<?xml version="1.0" standalone="no"?>
<!DOCTYPE svg PUBLIC "-//W3C//DTD SVG 1.1//EN" "http://www.w3.org/Graphics/SVG/1.1/DTD/svg11.dtd" >
<svg>
<metadata>
Created by FontForge 20120731 at Wed May 18 17:38:50 2016
 By ,,,
(c) Copyright , FFDec v.5.3.0.
</metadata>
<defs>
<font id="Isolation" horiz-adv-x="792" >
  <font-face 
    font-family="Isolation"
    font-weight="400"
    font-style="italic"
    font-stretch="normal"
    units-per-em="1024"
    panose-1="0 0 0 0 0 0 0 0 0 0"
    ascent="819"
    descent="-205"
    x-height="537"
    cap-height="720"
    bbox="-62 -213 1362 1015"
    underline-thickness="60"
    underline-position="30"
    slope="10"
    unicode-range="U+0020-2122"
  />
<missing-glyph horiz-adv-x="512" 
d="M0 683v-683h438v683h-438zM365 610v-537h-292v537h292z" />
    <glyph glyph-name=".notdef" horiz-adv-x="512" 
d="M0 683v-683h438v683h-438zM365 610v-537h-292v537h292z" />
    <glyph glyph-name="glyph1" horiz-adv-x="0" 
 />
    <glyph glyph-name="glyph2" horiz-adv-x="512" 
 />
    <glyph glyph-name="space" unicode=" " horiz-adv-x="512" 
 />
    <glyph glyph-name="exclam" unicode="!" horiz-adv-x="290" 
d="M172 35v80q0 13 -8 22q-9 8 -21 8h-88q-13 0 -21 -8q-9 -9 -9 -22v-80q0 -12 9 -21q8 -8 21 -8h88q12 0 21 8q8 9 8 21v0zM176 553v137q0 12 -8 21q-9 9 -21 9h-97q-12 0 -21 -9q-8 -9 -8 -21v-137q0 -31 3 -60l34 -261q2 -12 11 -20q10 -8 22 -8h17q8 1 15 4q6 3 11 8
q6 6 7 16l31 261q2 15 3 30t1 30v0z" />
    <glyph glyph-name="quotedbl" unicode="&#x22;" horiz-adv-x="409" 
d="M129 551v130q0 9 -6 15q-7 6 -16 6h-65q-9 0 -15 -6t-6 -15v-130q0 -9 6 -16t15 -7h65q9 0 16 7q6 7 6 16v0zM294 551v130q0 9 -6 15t-15 6h-64q-9 0 -16 -6q-6 -6 -6 -15v-130q0 -9 6 -16q7 -7 16 -7h64q9 0 15 7t6 16v0z" />
    <glyph glyph-name="numbersign" unicode="#" horiz-adv-x="640" 
d="M335 388q0 -16 -3 -33q-4 -17 -7 -33q-2 -12 -11 -21q-10 -8 -23 -8h-39q-12 0 -19 8q-6 8 -6 19q0 16 3 32l6 32q2 12 12 20q9 8 22 8h40q11 0 18 -6q7 -7 7 -18v0zM541 475q0 17 -10 22t-26 5h-18q-9 -1 -18 1q-8 1 -13 6q-6 6 -6 18v4l19 139q0 1 1 2v2q0 11 -4 16
q-5 5 -12 7q-6 2 -14 2q-9 1 -16 1q-17 0 -32 -5q-16 -5 -18 -25l-18 -139q-2 -11 -9 -17q-6 -7 -14 -9q-9 -3 -19 -3q-10 -1 -19 -1q-13 0 -26 4q-14 4 -14 22q0 1 1 2v2l19 139v2q1 1 1 2q0 11 -5 16q-4 5 -11 7t-14 2q-8 1 -15 1q-18 0 -32 -5q-15 -4 -18 -25l-20 -139
q-2 -12 -12 -21q-9 -8 -22 -8q-10 0 -22 1q-11 0 -22 -2t-19 -8q-7 -7 -9 -20q-2 -9 -3 -17t-1 -16q0 -19 10 -23q11 -5 26 -5q8 0 17 1q10 0 18 -1q8 -2 14 -7q6 -6 6 -17q0 -17 -4 -33q-3 -17 -6 -33q-5 -20 -18 -25t-31 -5h-12q-7 1 -13 1q-14 0 -21 -6q-7 -7 -10 -15
q-3 -9 -4 -20l-2 -20q-2 -18 9 -23t26 -5h19q9 1 18 -1q8 -2 13 -8q5 -7 5 -19q0 -36 -10 -72q-9 -35 -9 -71q0 -12 4 -17q4 -6 11 -8t15 -2h17q16 0 31 5q16 4 18 24l18 139q1 12 8 18q7 7 15 9q9 3 19 3q10 1 20 1q15 0 26 -6q11 -5 11 -24q0 -36 -10 -71q-11 -34 -11 -70
q0 -11 4 -18q4 -6 11 -8q8 -2 16 -2h17q16 0 31 5q15 4 17 24l20 139q2 12 11 21q10 9 22 9q11 0 23 -1q11 0 22 2t19 8t10 19q2 9 3 17t1 16q0 18 -9 23t-24 5q-10 0 -20 -1q-10 0 -18 2q-9 2 -14 7q-6 6 -6 19q0 16 4 32l6 32q5 21 20 25q16 3 34 3t33 4q16 3 20 26
q2 8 3 16t1 17v0z" />
    <glyph glyph-name="dollar" unicode="$" horiz-adv-x="622" 
d="M397 189q0 -22 -9 -38q-9 -15 -23 -24q-15 -9 -32 -14q-18 -5 -38 -7v163q18 -4 35 -9q18 -4 33 -12q15 -9 24 -22q10 -14 10 -37v0zM237 423q-18 4 -34 9t-29 14q-13 8 -21 23q-7 14 -7 35q0 20 8 33q8 14 21 23t29 14q16 4 33 6v-157v0zM519 208q0 55 -18 88
q-18 32 -50 53q-31 20 -71 32q-41 12 -85 24v171q39 -8 56 -29q18 -21 27 -59q2 -6 4 -9t6 -8h93q11 0 17 9q6 10 6 19v1q-3 3 -4 7l-2 8q-19 79 -69 126q-51 48 -134 56v41q0 7 -2 12q-2 4 -10 4h-13q-16 0 -25 -1q-9 -2 -9 -19v-19q1 -9 1 -18q-93 -7 -150 -56
q-57 -48 -57 -147q0 -64 25 -111q25 -46 87 -70q23 -9 47 -14t48 -13v-180q-45 5 -67 29t-26 69q0 4 -3 6l-3 -2h-90q-9 0 -18 -6q-9 -5 -9 -16q0 -72 39 -116q40 -44 105 -66q18 -5 35 -9q18 -3 37 -6v-89q0 -7 1 -15q2 -9 12 -9h35q8 0 9 10q1 9 1 14v89q72 6 128 38
q55 32 82 102q14 38 14 79v0z" />
    <glyph glyph-name="percent" unicode="%" horiz-adv-x="946" 
d="M282 532q0 -33 -23 -56q-23 -24 -56 -24t-56 24q-24 23 -24 56t24 56q23 23 56 23t56 -23t23 -56v0zM757 176q0 -33 -24 -56q-23 -24 -56 -24t-56 24q-24 23 -24 56t24 56q23 23 56 23t56 -23q24 -23 24 -56v0zM385 532q0 38 -14 72q-14 33 -39 57q-25 25 -58 39
q-33 15 -71 15t-71 -15q-33 -14 -58 -39q-25 -24 -39 -57q-14 -34 -14 -72t14 -71t39 -58q25 -26 58 -40t71 -14t71 14t58 40q25 25 39 58t14 71v0zM670 697q0 11 -8 13q-8 1 -17 1q-18 0 -35 -3q-17 -4 -27 -22l-375 -674q-3 -5 -3 -11q0 -8 6 -11t15 -3q20 0 37 3
q17 4 28 22l376 674q3 4 3 11v0zM859 176q0 38 -14 71t-39 58q-24 25 -58 39q-33 14 -71 14t-71 -14t-58 -39q-24 -25 -39 -58q-14 -33 -14 -71t14 -71q15 -33 39 -58q25 -25 58 -39t71 -14t71 14q34 14 58 39q25 25 39 58t14 71v0z" />
    <glyph glyph-name="ampersand" unicode="&#x26;" horiz-adv-x="752" 
d="M374 158q0 -10 -13 -19t-29 -17q-17 -8 -35 -12q-17 -5 -25 -5q-49 0 -80 28t-31 77q0 20 9 35q8 15 22 27t30 22t30 20l116 -141q6 -8 6 -15v0zM361 553q0 -14 -6 -27q-7 -12 -17 -23t-22 -19q-12 -9 -23 -16q-6 7 -15 18l-18 22q-9 12 -14 24q-6 12 -6 21q0 24 18 42
q19 17 43 17q27 0 43 -16q17 -17 17 -43v0zM664 16q0 4 -14 21q-13 18 -30 38q-18 20 -34 38q-15 18 -20 25q-10 12 -10 25q0 11 6 22q13 24 24 44q12 21 21 42q10 21 15 44q6 23 6 50q0 11 -10 11h-85q-14 0 -23 -9q-9 -8 -13 -20q-7 -23 -12 -45q-6 -22 -20 -42l-83 101
q-7 9 -7 18q0 11 10 19q8 6 16 11t16 12q33 27 49 68q17 40 17 83q0 37 -16 65q-16 27 -42 46q-25 18 -58 28q-32 9 -66 9q-57 0 -105 -23q-47 -23 -71 -79q-5 -13 -9 -29t-4 -30q0 -44 18 -83q19 -38 46 -71q-33 -17 -62 -37t-49 -45q-21 -25 -32 -57q-12 -32 -12 -73
q0 -48 18 -86q19 -38 50 -65q32 -27 74 -41q41 -15 86 -15q62 0 112 18q51 18 96 62q7 -10 15 -21q9 -11 18 -19q10 -9 21 -15q11 -5 26 -5h110q6 0 11 2q6 2 6 8v0z" />
    <glyph glyph-name="quotesingle" unicode="'" horiz-adv-x="276" 
d="M163 609v81q0 12 -9 21q-8 9 -21 9h-83q-12 0 -21 -9q-8 -9 -8 -21v-67q0 -12 8 -21q9 -8 21 -8h15q8 1 15 0q6 -1 11 -6q6 -4 6 -14q0 -24 -12 -38q-12 -13 -26 -21t-25 -13q-12 -6 -12 -13v-29q0 -11 8 -11q4 0 7 1t7 2q58 18 88 57q31 40 31 100v0z" />
    <glyph glyph-name="parenleft" unicode="(" horiz-adv-x="390" 
d="M297 729q0 6 -5 6h-63q-14 0 -25 -6t-20 -16q-10 -10 -17 -21q-8 -11 -14 -20q-28 -40 -52 -90q-24 -49 -42 -101q-18 -53 -28 -107t-10 -102q0 -102 29 -197q29 -96 83 -182q16 -24 33 -47t33 -47h75q6 0 12 3t6 11q0 6 -4 12q-14 22 -27 45q-12 23 -22 48
q-17 39 -30 84t-22 92q-10 47 -15 94t-5 90q0 118 35 230q35 111 93 214q2 4 2 7v0z" />
    <glyph glyph-name="parenright" unicode=")" horiz-adv-x="406" 
d="M297 272q0 48 -10 102t-28 107q-18 52 -42 101q-24 50 -52 90q-6 9 -14 20q-7 11 -17 21q-9 10 -20 16t-25 6h-63q-5 0 -5 -6q0 -3 2 -7q58 -103 93 -214q35 -112 35 -230q0 -43 -5 -90t-15 -94q-9 -47 -22 -92q-14 -45 -30 -84q-10 -25 -22 -48q-13 -23 -27 -45
q-4 -6 -4 -12q0 -8 6 -11t12 -3h75q16 24 33 47t33 47q54 86 83 182q29 95 29 197v0z" />
    <glyph glyph-name="asterisk" unicode="*" horiz-adv-x="458" 
d="M355 584q0 15 -10 30t-27 15q-18 0 -34 -9q-15 -9 -33 -9q-14 0 -18 12q-3 12 -3 23v17q1 9 1 18q0 26 -9 35q-8 9 -34 9q-18 0 -32 -5q-13 -5 -13 -26v-60q0 -10 -6 -16q-5 -7 -15 -7q-17 0 -33 9q-15 9 -32 9q-19 0 -28 -15q-8 -15 -8 -32q0 -18 14 -25q13 -7 29 -11
q16 -3 30 -9q14 -5 14 -18q0 -9 -7 -19l-16 -20q-9 -11 -16 -21q-7 -11 -7 -21q0 -7 5 -14t12 -13q7 -7 15 -11q9 -4 15 -4q15 0 25 11q11 11 18 24q8 12 16 23q7 11 20 11q11 0 19 -11t17 -23q9 -13 18 -24q10 -11 24 -11q8 0 16 4q8 3 15 10q6 6 11 13q5 8 5 15
q0 10 -8 21q-7 10 -15 21q-9 10 -16 20q-8 10 -8 19q0 14 14 19t31 8q16 4 30 11t14 27v0z" />
    <glyph glyph-name="plus" unicode="+" horiz-adv-x="620" 
d="M533 240v53q0 12 -9 21q-9 8 -21 8h-140q-13 0 -21 9q-9 9 -9 21v136q0 12 -9 21q-8 9 -21 9h-54q-12 0 -21 -9t-9 -21v-136q0 -12 -8 -21q-9 -9 -21 -9h-140q-12 0 -21 -8q-8 -9 -8 -21v-53q0 -12 8 -21q9 -8 21 -8h140q12 0 21 -9q8 -9 8 -21v-136q0 -12 9 -21t21 -9
h54q13 0 21 9q9 9 9 21v136q0 12 9 21q8 9 21 9h140q12 0 21 8q9 9 9 21v0z" />
    <glyph glyph-name="comma" unicode="," horiz-adv-x="295" 
d="M177 23v93q0 15 -10 25t-24 10h-88q-15 0 -25 -10q-9 -10 -9 -25v-77q0 -15 9 -25q10 -10 25 -10h14t15 -2q6 -1 11 -5q5 -5 5 -14q0 -29 -12 -45t-27 -25q-15 -10 -26 -15q-12 -6 -12 -14v-36q0 -5 1 -8q1 -2 7 -2q8 0 17 3q65 18 97 68t32 114v0z" />
    <glyph glyph-name="hyphen" unicode="-" horiz-adv-x="418" 
d="M304 259v71q0 12 -9 21q-9 8 -21 8h-224q-12 0 -21 -8q-8 -9 -8 -21v-71q0 -12 8 -21q9 -9 21 -9h224q12 0 21 9t9 21v0z" />
    <glyph glyph-name="period" unicode="." horiz-adv-x="289" 
d="M173 37v86q0 12 -8 21q-9 8 -21 8h-94q-12 0 -21 -8q-8 -9 -8 -21v-86q0 -12 8 -21q9 -8 21 -8h94q12 0 21 8q8 9 8 21v0z" />
    <glyph glyph-name="slash" unicode="/" horiz-adv-x="413" 
d="M354 717q0 9 -7 15q-6 6 -15 6h-60q-15 0 -23 -8q-9 -8 -15 -20q-3 -7 -5 -16l-4 -16l-26 -82q-36 -113 -70 -225q-35 -111 -68 -225q-2 -5 -9 -27q-6 -21 -13 -45t-13 -45q-5 -20 -5 -23q0 -8 6 -14t15 -6h60q14 0 23 8q9 9 16 20q3 6 5 15t4 17l25 81q36 113 71 226
q34 112 68 226q1 4 7 26q7 21 14 45q7 23 13 44q6 20 6 23v0z" />
    <glyph glyph-name="zero" unicode="0" horiz-adv-x="630" 
d="M419 360q0 -27 -1 -71q-2 -44 -11 -86t-30 -73t-61 -31q-28 0 -46 15q-19 14 -31 37q-11 23 -17 52t-8 59q-3 30 -3 56v46q0 27 2 67q1 41 12 78q10 38 31 64q21 27 60 27t60 -27q21 -28 30 -66q10 -38 12 -79q1 -41 1 -68v0zM563 343q0 67 -7 133q-8 66 -34 119t-76 85
t-134 32q-77 0 -125 -32q-47 -32 -75 -83q-27 -51 -36 -113q-9 -63 -9 -126v-25q0 -62 10 -123q10 -62 37 -111q28 -50 75 -81q48 -30 123 -30q79 0 129 31q49 31 76 81t37 114q9 64 9 129v0z" />
    <glyph glyph-name="one" unicode="1" horiz-adv-x="416" 
d="M370 36v647q0 12 -9 21q-8 9 -21 9h-56q-13 0 -26 -8q-12 -7 -20 -18q-32 -45 -72 -67q-40 -21 -94 -29q-7 -1 -12 -4q-4 -3 -4 -12v-53q0 -12 8 -21q9 -9 21 -9h113q12 0 21 -8q9 -9 9 -21v-427q0 -13 8 -21q9 -9 21 -9h83q13 0 21 9q9 8 9 21v0z" />
    <glyph glyph-name="two" unicode="2" horiz-adv-x="604" 
d="M544 35v63q0 12 -9 21q-8 9 -21 9h-253q-5 0 -11 2q-6 3 -6 10t5 12q7 9 15 16t16 13q38 28 77 54q39 27 76 55q50 35 79 86q30 51 30 112q0 81 -41 134q-40 53 -117 76q-48 15 -95 15q-24 0 -46 -4t-43 -13q-78 -29 -110 -92q-31 -64 -31 -142h109q10 0 19 3q8 4 12 14
q3 8 2 19q0 11 2 20q8 38 34 57q25 19 63 19q43 0 72 -28q30 -28 30 -72q0 -38 -16 -66q-15 -29 -45 -52q-11 -10 -24 -18q-13 -9 -25 -18q-41 -30 -81 -61q-41 -30 -78 -65q-40 -38 -61 -89q-21 -52 -21 -107q0 -12 13 -12h450q13 0 21 8q9 9 9 21v0z" />
    <glyph glyph-name="three" unicode="3" horiz-adv-x="562" 
d="M528 209q0 60 -24 106q-23 45 -84 66q45 22 64 58q19 35 19 84q0 50 -20 86q-21 37 -54 59q-33 23 -76 34q-42 10 -88 10q-64 0 -112 -25q-48 -26 -81 -83q-13 -24 -21 -51q-7 -28 -7 -55q0 -5 2 -9t7 -4h94q25 0 32 26q2 8 3 17t4 17q10 27 37 41t54 14q26 0 43 -9
t27 -23t13 -35q4 -20 4 -43q0 -18 -12 -33q-12 -16 -27 -24q-22 -11 -50 -14t-52 -3v-71q0 -4 1 -17q2 -13 5 -13q27 0 54 -4q28 -4 49 -15q22 -11 35 -32q14 -20 14 -54q0 -23 -7 -43t-20 -35t-32 -24t-42 -9q-51 0 -81 27q-30 28 -30 80q0 6 -3 12q-4 5 -11 5h-93
q-11 0 -19 -7q-8 -8 -8 -19v-3q0 -21 6 -44t14 -40q13 -31 36 -54t52 -38q28 -15 61 -23q32 -7 65 -7q37 0 73 7t69 23q32 16 57 41q26 25 41 61q9 19 14 44q5 24 5 45v0z" />
    <glyph glyph-name="four" unicode="4" horiz-adv-x="595" 
d="M334 546v-122q-1 -61 -3 -122q-1 -12 -10 -21q-8 -9 -21 -9h-118q-7 0 -13 3q-6 2 -6 11q0 4 4 12l152 251q2 2 4 5q3 4 6 4q4 0 5 -5v-7v0zM549 192v51q0 12 -9 21q-8 8 -21 8q-8 0 -17 1q-9 0 -17 3q-8 2 -12 9q-5 6 -5 17v381q0 12 -8 21q-9 9 -21 9h-98q-12 0 -25 -8
q-13 -7 -20 -18l-234 -377q-7 -11 -12 -26q-4 -16 -4 -29v-63q0 -12 9 -21q9 -8 21 -8h224q21 0 26 -16q5 -15 5 -32q0 -16 -1 -31q-1 -14 -1 -30q0 -17 5 -33q5 -15 26 -15h79q12 0 21 9q8 8 8 21v97q0 21 15 25q15 5 31 5q15 0 25 6q10 7 10 23v0z" />
    <glyph glyph-name="five" unicode="5" horiz-adv-x="561" 
d="M518 248q0 151 -143 204q-16 7 -36 11q-20 5 -38 5q-71 0 -129 -39l20 124q2 12 12 21q10 8 23 8h233q12 0 21 9t9 21v58q0 13 -9 22q-9 8 -21 8h-336q-12 0 -22 -8q-10 -9 -12 -21l-41 -328v-3q0 -11 8 -20q8 -8 19 -9l34 -2t35 -1q13 0 22 6q9 5 19 14q19 17 43 23
t50 6q18 0 37 -10q30 -17 43 -49t13 -65q0 -27 -7 -52q-7 -24 -22 -43q-15 -18 -38 -29q-22 -10 -52 -10q-18 0 -35 8q-16 9 -27 22q-12 13 -18 30q-7 17 -7 34h-112q-12 0 -20 -7q-8 -8 -8 -19q0 -7 4 -19q5 -12 7 -19q28 -74 88 -107q60 -34 136 -34q22 0 44 3q22 4 42 10
q91 29 131 91q40 63 40 156v0z" />
    <glyph glyph-name="six" unicode="6" horiz-adv-x="579" 
d="M399 230q0 -22 -6 -45q-5 -23 -16 -42q-12 -19 -31 -31q-18 -13 -44 -13q-27 0 -49 10q-21 11 -37 29q-15 18 -23 41q-7 23 -7 49t6 48q7 23 20 40q14 17 34 27q19 9 47 9q27 0 47 -9q20 -10 32 -27q13 -17 20 -39t7 -47v0zM539 239q0 70 -37 125t-102 81q-21 9 -42 14
q-22 5 -44 5q-38 0 -72 -15t-57 -46q-1 6 -1 10v9q0 25 5 57q6 31 20 58q13 27 35 45t55 18q15 0 31 -4q17 -3 29 -13q7 -6 12 -15t9 -17q3 -9 6 -14q3 -6 6 -6h104q11 0 18 7q6 6 6 18q0 6 -2 15q-3 9 -6 19q-4 10 -8 18q-4 9 -7 14q-14 23 -36 40q-21 16 -47 28
q-26 11 -53 17q-28 5 -54 5q-64 0 -110 -20q-45 -20 -76 -55t-48 -84q-17 -48 -26 -107q-4 -24 -5 -49q-2 -26 -2 -51q0 -65 11 -129q12 -65 41 -115q29 -51 79 -83q50 -31 128 -31q118 0 179 68t61 183v0z" />
    <glyph glyph-name="seven" unicode="7" horiz-adv-x="587" 
d="M553 601v70q0 12 -8 21q-9 8 -21 8h-450q-13 0 -22 -8q-8 -9 -9 -21q-2 -16 -1 -32v-33q0 -12 9 -21t21 -9h299q5 0 11 -2q5 -3 5 -9q0 -7 -5 -12q-13 -17 -27 -31t-27 -31q-62 -79 -100 -169q-39 -91 -61 -187q-5 -24 -11 -50q-5 -26 -5 -50q0 -10 3 -19q4 -10 15 -10
h96q12 0 21 9q10 8 10 21v10q-1 6 -1 11q0 45 15 99q15 55 37 109q23 55 50 106q26 51 51 89q21 32 46 62q24 31 50 60q3 4 6 9t3 10v0z" />
    <glyph glyph-name="eight" unicode="8" horiz-adv-x="579" 
d="M397 210q0 -49 -31 -80q-30 -31 -79 -31q-22 0 -39 10q-18 10 -32 25q-13 15 -20 35t-7 41t6 41q7 20 19 35q13 16 31 25t42 9q49 0 79 -31q31 -31 31 -79v0zM380 511q0 -40 -26 -62t-65 -22q-41 0 -64 29t-23 68q0 17 8 31t21 24q13 11 29 16t31 5q39 0 64 -25t25 -64v0
zM540 213q0 59 -25 105q-24 45 -82 69q39 18 62 53q22 35 22 78q0 46 -18 82q-17 37 -48 62t-71 37q-40 13 -83 13q-44 0 -86 -13q-42 -12 -74 -37t-52 -62t-20 -85q0 -46 24 -80t64 -54q-58 -26 -85 -71q-28 -45 -28 -106q0 -85 46 -134q46 -50 125 -70q21 -5 43 -9
q22 -3 43 -3q30 0 61 6q31 7 60 21q28 14 52 33q25 20 40 46q17 27 23 57q7 31 7 62v0z" />
    <glyph glyph-name="nine" unicode="9" horiz-adv-x="570" 
d="M385 470q0 -26 -6 -48q-7 -22 -20 -39q-14 -17 -34 -27q-20 -9 -47 -9q-54 0 -80 36q-26 35 -26 85q0 22 5 45t17 42t30 31q18 13 45 13t49 -10q21 -11 37 -29q15 -18 23 -41q7 -24 7 -49v0zM531 353q0 65 -12 128q-11 64 -40 116t-79 84q-51 31 -128 31q-59 0 -104 -18
q-45 -19 -75 -51q-31 -33 -46 -80t-15 -104q0 -71 37 -125q37 -55 102 -81q43 -18 86 -18q38 0 72 15q34 14 57 45q1 -6 1 -10v-9q0 -25 -6 -57q-6 -31 -19 -57q-14 -27 -36 -45q-23 -19 -55 -19q-14 0 -31 4t-28 14q-8 6 -13 15t-8 17q-4 9 -7 14q-3 6 -6 6h-103
q-11 0 -18 -7q-7 -6 -7 -18q0 -13 8 -35q9 -21 16 -32q13 -23 35 -40t48 -27q25 -11 53 -16t53 -5q81 0 133 31q52 32 82 83q30 52 41 118q12 66 12 133v0z" />
    <glyph glyph-name="colon" unicode=":" horiz-adv-x="287" 
d="M172 35v86q0 12 -8 21q-9 8 -21 8h-93q-12 0 -21 -8q-8 -9 -8 -21v-86q0 -12 8 -21q9 -8 21 -8h93q12 0 21 8q8 9 8 21v0zM172 400v84q0 12 -8 21q-9 9 -21 9h-93q-12 0 -21 -9q-8 -9 -8 -21v-84q0 -12 8 -21q9 -9 21 -9h93q12 0 21 9q8 9 8 21v0z" />
    <glyph glyph-name="semicolon" unicode=";" horiz-adv-x="290" 
d="M177 23v93q0 15 -10 25t-24 10h-87q-15 0 -25 -10t-10 -25v-77q0 -15 10 -25t25 -10h13q8 0 15 -2q6 -1 11 -5q5 -5 5 -14q0 -29 -12 -45t-27 -25q-15 -10 -26 -15q-12 -6 -12 -14v-36q0 -5 1 -8q1 -2 7 -2q8 0 17 3q65 18 97 68t32 114v0zM175 400v84q0 12 -8 21
q-9 9 -21 9h-94q-12 0 -21 -9q-8 -9 -8 -21v-84q0 -12 8 -21q9 -9 21 -9h94q12 0 21 9q8 9 8 21v0z" />
    <glyph glyph-name="less" unicode="&#x3c;" horiz-adv-x="631" 
d="M538 53q0 17 -5 34t-24 25l-312 135q-3 2 -7 4t-4 7t4 7t7 4l312 132q11 5 20 17q8 12 8 25v49q0 8 -4 15t-14 7q-2 0 -35 -14t-82 -34q-49 -21 -107 -45q-58 -25 -110 -47t-90 -38q-38 -17 -48 -21q-18 -8 -22 -24t-4 -33q0 -19 4 -34t22 -24q12 -5 51 -22
q38 -16 91 -39q52 -23 109 -47q58 -25 106 -45q49 -21 81 -34t34 -13q9 0 13 6t5 15q2 8 1 17v15v0z" />
    <glyph glyph-name="equal" unicode="=" horiz-adv-x="634" 
d="M540 177v52q0 12 -9 21q-10 9 -22 9h-459q-12 0 -21 -9q-8 -9 -8 -21v-52q0 -12 8 -21q9 -9 21 -9h459q12 0 22 9q9 9 9 21v0zM540 366v54q0 12 -9 21q-10 8 -22 8h-459q-12 0 -21 -8q-8 -9 -8 -21v-54q0 -12 8 -21q9 -8 21 -8h459q12 0 22 8q9 9 9 21v0z" />
    <glyph glyph-name="greater" unicode="&#x3e;" horiz-adv-x="615" 
d="M537 258q0 18 -4 34q-4 15 -24 23q-11 5 -50 22t-91 39q-51 22 -109 46t-107 45q-48 20 -81 33q-32 14 -33 14q-8 0 -12 -6q-4 -7 -6 -15q-1 -9 -1 -18q1 -8 1 -14q0 -18 5 -35t22 -25l314 -132q3 -2 7 -4t4 -7t-4 -7t-7 -4l-314 -135q-11 -5 -19 -17q-7 -12 -7 -25v-49
q0 -8 4 -15q4 -6 13 -6q1 0 34 14q34 13 83 34t107 46q59 26 110 48q52 22 90 38t47 20q19 9 23 25q5 15 5 33v0z" />
    <glyph glyph-name="question" unicode="?" horiz-adv-x="612" 
d="M348 35v83q0 13 -9 22t-21 9h-89q-13 0 -21 -9q-9 -9 -9 -22v-83q0 -12 9 -21q8 -8 21 -8h89q12 0 21 8q9 9 9 21v0zM522 510q0 59 -21 100q-22 41 -57 67q-36 26 -84 38q-48 13 -100 13q-36 0 -69 -7q-33 -8 -62 -23t-52 -40t-38 -58q-18 -42 -18 -88q0 -16 15 -16h95
q13 0 23 8t14 21q2 8 3 15q0 6 4 14q12 28 41 42t59 14q40 0 67 -24q27 -23 27 -66q0 -26 -9 -44t-22 -32t-30 -27q-17 -12 -33 -26q-21 -19 -35 -36t-22 -35t-12 -39q-3 -21 -3 -49q0 -8 5 -15q6 -7 14 -7h86q11 0 21 10q11 9 11 20v19t3 18q4 12 19 26q15 13 35 27
q20 15 42 32t40 39q19 21 31 48q12 28 12 61v0z" />
    <glyph glyph-name="at" unicode="@" horiz-adv-x="871" 
d="M516 390q0 -24 -6 -49q-7 -25 -18 -45q-21 -39 -57 -59q-36 -19 -79 -19q-24 0 -39 10q-16 10 -25 26t-13 36t-4 39q0 25 6 49q6 19 17 39q12 19 27 35q16 17 36 27q19 10 41 10q51 0 83 -21q31 -21 31 -78v0zM857 465q0 31 -9 66q-9 34 -22 64q-29 61 -72 105
q-42 44 -94 72q-53 29 -113 41q-61 13 -127 13q-97 0 -184 -34t-152 -96q-65 -61 -103 -146q-38 -84 -38 -184q0 -46 11 -93q10 -46 28 -88q31 -72 77 -124t104 -86t128 -50q69 -17 145 -17q112 0 202 47t158 134q3 3 3 8t-3 6t-6 1h-73q-19 0 -26 -5t-20 -16
q-49 -41 -111 -60q-62 -18 -125 -18q-118 0 -209 53t-136 166q-12 30 -19 62t-7 64q0 76 24 145q41 115 128 175t208 60q71 0 132 -19q62 -18 106 -55q45 -38 70 -95q26 -57 26 -132q0 -29 -6 -61q-5 -31 -18 -61q-13 -29 -32 -52q-20 -24 -47 -37q-6 -2 -17 -6t-16 -4
q-11 0 -18 6q-6 7 -8 17q17 83 38 164t38 164v3q0 14 -4 22q-4 7 -11 10t-16 3q-9 1 -19 1q-26 0 -37 -7q-11 -6 -24 -29q-2 -5 -3 -10q-2 -4 -9 -4q-8 0 -16 9q-8 10 -16 15q-22 18 -53 28q-31 9 -60 9q-36 0 -71 -11q-36 -11 -67 -32q-31 -20 -56 -48q-25 -29 -39 -62
q-26 -63 -26 -131q0 -44 12 -85t37 -73q24 -32 61 -52q36 -19 84 -19q39 0 72 19q33 20 58 47q2 -8 5 -19q2 -10 8 -19q9 -13 26 -21q18 -7 34 -7q21 0 44 6q24 7 44 15q115 43 171 136q56 92 56 212v0z" />
    <glyph glyph-name="A" unicode="A" horiz-adv-x="706" 
d="M441 295q0 -10 -7 -15q-6 -5 -15 -5h-126q-8 0 -15 5t-7 15q0 2 5 19t13 41q7 24 16 52q10 28 18 54q9 25 16 45q6 19 8 25l4 8q3 4 7 4t6 -5q2 -4 3 -8q2 -6 8 -25q6 -20 14 -45q9 -25 18 -53q9 -27 16 -51t12 -41q6 -17 6 -20v0zM696 24q0 3 -13 41q-13 37 -33 93
t-44 121q-23 65 -45 124q-21 59 -37 102q-16 44 -20 56l-31 86q-4 11 -7 23q-4 11 -9 22t-16 20q-11 8 -24 8h-117q-12 0 -23 -8q-12 -9 -17 -20l-238 -659q-1 -3 -1 -9q0 -9 6 -14q6 -4 14 -4h101q17 0 28 11q10 10 17 27q6 16 10 35q5 19 11 35q6 17 17 27q10 11 28 11
h209q17 0 27 -11q10 -10 16 -27q6 -16 10 -35t10 -35q6 -17 15 -27q10 -11 28 -11h106q8 0 15 4q7 5 7 14v0z" />
    <glyph glyph-name="B" unicode="B" horiz-adv-x="662" 
d="M470 225q0 -50 -31 -74q-31 -23 -78 -23h-174q-13 0 -21 8q-9 9 -9 21v133q0 12 9 21q8 8 21 8h174q47 0 78 -21q31 -22 31 -73v0zM452 518q0 -22 -9 -36t-22 -23q-14 -10 -32 -14t-36 -4h-166q-13 0 -21 9q-9 9 -9 21v95q0 13 9 21q8 8 21 9q32 2 66 2h67q8 0 16 -1
q8 0 17 -1q19 -2 39 -4q21 -2 36 -16q13 -11 18 -26q6 -16 6 -32v0zM622 210q0 29 -6 58q-6 28 -20 52t-35 42t-52 28q25 9 42 24q18 15 28 35t15 43q4 23 4 48q0 51 -28 96q-16 24 -37 41q-22 16 -47 25q-25 10 -52 14t-55 4h-329q-12 0 -21 -9q-8 -9 -8 -21v-655
q0 -12 8 -21q9 -8 21 -8h296q28 0 58 1q29 2 56 10q37 11 67 27t51 39t33 54q11 31 11 73v0z" />
    <glyph glyph-name="C" unicode="C" horiz-adv-x="750" 
d="M670 234q0 4 -2 8t-7 4h-132q-5 0 -9 -6t-7 -13q-3 -8 -5 -17q-2 -8 -5 -14q-22 -46 -61 -65q-38 -20 -87 -20t-83 22t-56 57q-21 35 -31 78q-11 43 -11 84q0 45 11 90q10 45 32 81q23 36 59 58q37 23 89 23q43 0 78 -16q34 -16 56 -55q3 -5 6 -14q3 -8 7 -17q3 -9 8 -15
q5 -7 11 -7h125q14 0 14 13q0 12 -4 29q-4 16 -11 32q-8 16 -16 31t-15 25q-48 63 -118 94q-70 30 -147 30q-67 0 -131 -24q-64 -23 -110 -71q-56 -59 -77 -132q-20 -72 -20 -150q0 -80 20 -148q21 -69 63 -119t105 -79q64 -29 150 -29q37 0 74 9t71 25t64 40q29 24 51 54
q17 24 28 50q12 27 19 55l2 10q2 4 2 9v0z" />
    <glyph glyph-name="D" unicode="D" horiz-adv-x="683" 
d="M484 377q0 -32 -6 -64q-6 -33 -18 -63t-32 -56q-19 -25 -47 -44q-14 -9 -30 -16q-15 -6 -32 -6h-120q-12 0 -21 8q-9 9 -9 21v409q0 12 9 21t21 9h120q43 0 74 -21q31 -20 51 -52t30 -71t10 -75v0zM638 392q0 36 -7 76q-8 40 -24 78q-15 38 -38 70q-23 33 -54 55
q-38 26 -81 37q-44 12 -90 12h-294q-12 0 -21 -9q-8 -9 -8 -21v-655q0 -12 8 -21q9 -8 21 -8h285q83 0 141 33t94 88q36 54 52 123t16 142v0z" />
    <glyph glyph-name="E" unicode="E" horiz-adv-x="591" 
d="M573 35v67q0 12 -9 21t-21 9h-344q-12 0 -21 8q-9 9 -9 21v128q0 12 9 21q9 8 21 8h276q13 0 21 9q9 9 9 21v66q0 12 -9 21q-8 8 -21 8h-276q-12 0 -21 9t-9 21v91q0 12 9 21t21 9h328q12 0 21 8q8 9 8 21v67q0 12 -8 21q-9 9 -21 9h-477q-12 0 -21 -9q-8 -9 -8 -21v-655
q0 -12 8 -21q9 -8 21 -8h493q12 0 21 8q9 9 9 21v0z" />
    <glyph glyph-name="F" unicode="F" horiz-adv-x="577" 
d="M537 623v68q0 12 -9 21t-21 9h-459q-12 0 -21 -9q-8 -9 -8 -21v-656q0 -12 8 -21q9 -8 21 -8h94q12 0 21 8q8 9 8 21v242q0 12 9 21t21 9h241q12 0 21 8q8 9 8 21v67q0 12 -8 21q-9 9 -21 9h-241q-12 0 -21 8q-9 9 -9 21v102q0 12 9 21t21 9h306q12 0 21 8q9 9 9 21v0z
" />
    <glyph glyph-name="G" unicode="G" horiz-adv-x="755" 
d="M700 35v336q0 12 -10 21q-9 8 -21 8h-234q-12 0 -21 -8q-8 -9 -8 -21v-61q0 -12 8 -21q9 -9 21 -9h100q11 0 17 -10q5 -10 5 -19q0 -4 -2 -10q-4 -14 -9 -27q-5 -14 -13 -27q-24 -36 -66 -55q-43 -20 -85 -20q-39 0 -69 13q-31 12 -55 33q-24 22 -41 52q-17 29 -27 64
q-6 21 -10 41q-4 21 -4 42q0 47 13 94q12 46 38 83q25 36 64 59q39 22 93 22q43 0 77 -13q33 -12 58 -48q8 -9 12 -19l10 -20q4 -7 9 -12q4 -4 13 -4h104q13 0 20 8q8 8 8 21q0 11 -8 26q-24 54 -57 89q-34 36 -75 57t-89 29q-49 8 -105 8q-33 0 -67 -8t-63 -21
q-108 -49 -159 -137q-51 -89 -51 -205q0 -41 6 -81t20 -77q16 -41 40 -76q44 -66 107 -105q63 -40 144 -40q56 0 111 15q55 14 98 53q10 9 19 19t17 21q2 -15 5 -30q2 -15 5 -30q2 -11 7 -20q4 -9 18 -9q8 0 16 -1h15q17 0 34 5t17 25v0z" />
    <glyph glyph-name="H" unicode="H" horiz-adv-x="675" 
d="M610 36v654q0 12 -9 21t-21 9h-92q-13 0 -21 -9q-9 -9 -9 -21v-201q0 -12 -9 -21q-8 -8 -21 -8h-225q-12 0 -21 8q-9 9 -9 21v201q0 12 -8 21q-9 9 -21 9h-94q-12 0 -21 -9q-8 -9 -8 -21v-654q0 -13 8 -21q9 -9 21 -9h94q12 0 21 9q8 8 8 21v270q0 12 9 21t21 9h225
q13 0 21 -9q9 -9 9 -21v-270q0 -13 9 -21q8 -9 21 -9h92q12 0 21 9q9 8 9 21v0z" />
    <glyph glyph-name="I" unicode="I" horiz-adv-x="247" 
d="M199 36v654q0 12 -9 21q-8 9 -21 9h-93q-12 0 -21 -9t-9 -21v-654q0 -12 9 -21t21 -9h93q13 0 21 9q9 9 9 21v0z" />
    <glyph glyph-name="J" unicode="J" horiz-adv-x="560" 
d="M489 203v487q0 12 -9 21t-21 9h-92q-12 0 -21 -9t-9 -21v-460q0 -21 -3 -43q-3 -21 -12 -39q-8 -17 -24 -28t-43 -11t-44 9q-17 10 -27 25t-14 36q-4 20 -5 44q-1 10 0 20q0 11 -2 20q-2 12 -13 12h-112q-17 0 -17 -17q0 -30 2 -66t11 -64q12 -39 35 -66t54 -43
q30 -16 66 -24q36 -7 73 -7q72 0 128 32q57 31 83 101q16 39 16 82v0z" />
    <glyph glyph-name="K" unicode="K" horiz-adv-x="693" 
d="M650 18q0 7 -5 12l-278 363q-7 10 -7 21q0 14 10 24l254 261q2 2 4 5q3 3 3 8t-6 6q-5 2 -9 2h-137q-12 0 -27 -6q-14 -7 -23 -16l-238 -258q-6 -6 -13 -6q-5 0 -6 6q-2 5 -2 9v241q0 12 -8 21q-9 9 -21 9h-91q-12 0 -21 -9q-8 -9 -8 -21v-654q0 -12 8 -21q9 -9 21 -9h91
q12 0 21 9q8 9 8 21v173q0 13 6 27q7 14 16 23l28 29q8 7 19 7t20 -11l191 -253q8 -10 21 -18q13 -7 26 -7h137q5 0 11 2q5 2 5 10v0z" />
    <glyph glyph-name="L" unicode="L" horiz-adv-x="586" 
d="M526 35v71q0 12 -10 21q-9 9 -21 9h-292q-12 0 -21 8q-9 9 -9 21v525q0 12 -8 21q-9 8 -21 8h-94q-12 0 -21 -8q-8 -9 -8 -21v-655q0 -12 8 -21q9 -8 21 -8h445q12 0 21 8q10 9 10 21v0z" />
    <glyph glyph-name="M" unicode="M" horiz-adv-x="817" 
d="M787 36v654q0 12 -9 21t-21 9h-160q-12 0 -22 -9q-11 -9 -15 -20l-148 -485q-1 -2 -3 -7q-1 -5 -4 -5t-5 5q-1 5 -2 7l-147 485q-4 11 -14 20t-23 9h-164q-12 0 -21 -9q-8 -9 -8 -21v-654q0 -12 8 -21q9 -9 21 -9h83q13 0 21 9q9 9 9 21v508q4 -9 7 -18q2 -10 5 -18
q8 -22 14 -44q7 -22 14 -43l77 -252l27 -91q4 -11 7 -22t7 -21q5 -11 14 -20t23 -9h90q13 0 23 9t14 20q11 31 20 62q9 32 20 64l40 132q21 66 41 133q4 10 8 27l10 34q6 18 11 34t9 23v-284v-139v-85q0 -12 9 -21t21 -9h83q12 0 21 9t9 21v0z" />
    <glyph glyph-name="N" unicode="N" horiz-adv-x="670" 
d="M614 36v654q0 12 -9 21t-21 9h-82q-12 0 -21 -9t-9 -21v-437v-8q-1 -6 -6 -6q-4 0 -6 4q-3 3 -5 6l-259 445q-7 11 -19 19q-11 7 -25 7h-102q-12 0 -21 -9q-8 -9 -8 -21v-654q0 -12 8 -21q9 -9 21 -9h83q13 0 21 9q9 9 9 21v448q0 4 1 9q1 6 5 6q3 0 6 -4t5 -6l267 -457
q7 -11 19 -19q12 -7 26 -7h92q12 0 21 9t9 21v0z" />
    <glyph glyph-name="O" unicode="O" horiz-adv-x="774" 
d="M579 380q0 -51 -10 -99t-34 -85q-24 -38 -63 -61q-40 -23 -98 -23q-57 0 -96 24q-39 23 -63 61q-23 38 -34 86q-11 47 -11 97q0 43 15 84q14 42 41 74q26 33 64 53t84 20q9 0 18 -1q10 -1 18 -3q42 -8 74 -30q31 -21 52 -51q21 -31 32 -68t11 -78v0zM729 351
q0 87 -21 158q-22 71 -65 123q-44 51 -111 79t-158 28q-90 0 -157 -28q-66 -29 -110 -80q-43 -52 -65 -123q-21 -71 -21 -157q0 -113 48 -200q48 -88 154 -134q36 -14 74 -23q38 -8 77 -8t78 8q40 9 76 23q106 46 154 134q47 88 47 200v0z" />
    <glyph glyph-name="P" unicode="P" horiz-adv-x="625" 
d="M426 490q0 -58 -28 -81t-83 -23h-112q-12 0 -21 8q-9 9 -9 21v151q0 12 9 21t21 9h112q55 0 83 -25q28 -24 28 -81v0zM579 496q0 52 -16 93q-15 41 -44 70q-28 29 -70 45q-41 16 -92 16h-307q-12 0 -21 -9q-8 -9 -8 -21v-655q0 -12 8 -21q9 -8 21 -8h94q12 0 21 8
q8 9 8 21v199q0 12 9 21t21 9h147q113 0 171 60q58 61 58 172v0z" />
    <glyph glyph-name="Q" unicode="Q" horiz-adv-x="783" 
d="M567 336q0 -13 -4 -30q-3 -17 -7 -35q-5 -18 -11 -35q-6 -16 -12 -26q-5 4 -14 12q-8 8 -17 16t-18 13q-10 6 -17 6q-12 0 -22 -9q-5 -4 -13 -12q-8 -7 -14 -14q-7 -8 -12 -16t-5 -16q0 -10 5 -16q6 -6 13 -12q7 -5 13 -11t6 -14t-10 -13q-9 -5 -21 -8q-11 -2 -23 -3
t-18 -1q-58 0 -95 21q-38 20 -61 55q-22 35 -32 81q-9 45 -9 95q0 45 11 90q11 44 34 79q24 35 61 57t88 22q60 0 100 -24q39 -24 62 -63t32 -88q10 -50 10 -101v0zM718 364q0 59 -12 113q-11 54 -37 99t-67 81t-98 58q-30 11 -62 18q-32 6 -65 6q-86 0 -152 -25
q-67 -26 -112 -74q-45 -47 -69 -115q-23 -68 -23 -152q0 -83 19 -154q20 -71 61 -122q42 -52 106 -81q65 -29 154 -29q51 0 101 12q49 12 94 36l59 -57q10 -8 21 -8q7 0 16 6q9 5 17 13l16 16l12 12q8 11 8 21q0 11 -8 19l-17 17q-10 9 -18 18q-7 9 -7 23q0 6 1 9q2 4 5 9
q33 53 45 111t12 120v0z" />
    <glyph glyph-name="R" unicode="R" horiz-adv-x="676" 
d="M466 506q0 -48 -25 -74t-73 -26h-169q-12 0 -21 9t-9 21v131q0 12 9 21t21 9h151q23 0 44 -5q21 -4 37 -15q17 -10 26 -28t9 -43v0zM616 513q0 41 -15 79q-26 69 -83 99q-56 29 -128 29h-341q-12 0 -21 -9q-8 -9 -8 -21v-656q0 -12 8 -21q9 -8 21 -8h89q13 0 21 8
q9 9 9 21v221q0 12 9 21q9 8 21 8l148 -1q12 0 25 -2t26 -7t23 -13q10 -7 14 -20q7 -17 8 -43t1 -45q0 -30 1 -66q1 -37 13 -65q2 -4 7 -11q4 -6 9 -6h134q8 0 8 4q0 17 -11 42q-10 25 -10 51q0 20 1 41v41q0 28 -3 53q-3 26 -12 47t-27 37q-18 17 -48 26q26 9 46 26
q21 17 35 39t22 48t8 53v0z" />
    <glyph glyph-name="S" unicode="S" horiz-adv-x="667" 
d="M618 217q0 58 -22 95t-74 65q-12 7 -25 10t-27 7q-52 14 -103 28q-50 14 -103 26q-18 4 -34 10q-17 5 -30 13q-12 9 -20 23t-8 36q0 24 13 40q12 16 31 25t41 13t40 4q20 0 40 -2t38 -9q18 -6 34 -18t26 -30q6 -9 9 -19q3 -9 5 -20q1 -2 2 -5q2 -3 5 -3h110q11 0 19 7
q9 7 9 18q0 3 -2 12q-2 8 -4 17l-6 16q-2 9 -3 12q-17 41 -44 69q-28 28 -63 46q-34 18 -74 26q-40 7 -81 7q-53 0 -104 -11q-51 -10 -91 -35q-41 -25 -65 -67q-25 -41 -25 -103q0 -77 36 -124q36 -48 109 -72q21 -6 42 -10t41 -9q34 -8 67 -16q34 -9 67 -17q15 -4 29 -9
q13 -5 24 -13t18 -20q6 -12 6 -30q0 -32 -16 -51q-15 -18 -40 -27q-24 -10 -52 -12q-28 -3 -52 -3q-43 0 -82 16q-38 15 -55 58q-2 7 -4 16q-3 9 -3 16q0 10 -9 10h-109q-12 0 -20 -7t-8 -21q0 -21 5 -45q5 -23 15 -43q18 -34 50 -57t71 -38q39 -14 80 -21t76 -7q43 0 85 7
t80 23q37 16 68 44q30 28 48 70q19 41 19 89v0z" />
    <glyph glyph-name="T" unicode="T" horiz-adv-x="651" 
d="M612 623v67q0 12 -9 21t-21 9h-532q-12 0 -21 -9q-8 -9 -8 -21v-67q0 -12 8 -21q9 -8 21 -8h159q12 0 21 -9t9 -21v-528q0 -13 9 -21q8 -9 21 -9h94q12 0 21 9q8 8 8 21v528q0 12 9 21t21 9h160q12 0 21 8q9 9 9 21v0z" />
    <glyph glyph-name="U" unicode="U" horiz-adv-x="642" 
d="M597 245v223q-1 110 -1 222q0 12 -8 21t-20 9h-96q-11 0 -23 -8q-11 -9 -11 -22v-434q0 -68 -27 -105t-99 -37q-66 0 -99 39q-34 39 -34 103v434q0 13 -10 22q-11 8 -23 8h-97q-12 0 -20 -9t-8 -21v-432q0 -68 20 -119q21 -50 59 -84q37 -34 91 -51q53 -18 117 -18
q63 0 116 16q53 15 92 47q38 31 60 80q21 49 21 116v0z" />
    <glyph glyph-name="V" unicode="V" horiz-adv-x="657" 
d="M640 700q0 10 -6 15q-7 5 -15 5h-99q-23 0 -34 -17q-1 -1 -12 -33l-25 -80q-16 -48 -33 -106q-17 -57 -34 -110q-16 -53 -28 -93t-16 -54q-1 -2 -2 -9q-2 -6 -5 -6q-5 0 -8 7q-2 7 -3 11l-137 461q-5 11 -15 20q-11 9 -23 9h-103q-8 0 -15 -5q-6 -5 -6 -15q0 -3 7 -26
q7 -24 19 -61q13 -37 29 -83q15 -46 32 -95t34 -97q16 -48 30 -88q15 -40 24 -69q10 -30 14 -40l27 -78l4 -14q3 -8 6 -15q5 -13 15 -20q11 -8 25 -8h84q14 0 24 8q10 7 16 20q5 10 8 22q3 11 7 23l39 111q29 82 57 163t57 164l6 18t12 35q6 20 14 42t14 41q7 20 11 33t4 14
v0z" />
    <glyph glyph-name="W" unicode="W" horiz-adv-x="971" 
d="M932 699q0 11 -7 16q-6 5 -15 5h-76q-12 0 -23 -8q-11 -9 -14 -21l-127 -465l-3 -6q-1 -5 -3 -5t-4 5q-1 5 -1 7q-25 117 -47 233q-23 115 -51 231q-3 11 -7 20q-5 9 -19 9h-110q-12 0 -23 -8q-11 -9 -13 -21l-92 -464q-1 -2 -2 -7q-2 -5 -4 -5t-3 5q-1 4 -2 6
q-21 75 -42 149q-21 73 -40 149l-14 56q-6 28 -14 56q-4 15 -7 31t-8 30q-3 10 -9 17q-6 6 -18 6h-91q-9 0 -16 -5q-6 -5 -6 -16q0 -3 4 -19t9 -34t10 -35l5 -20l54 -186l54 -186l35 -120q5 -16 9 -33q4 -16 9 -31q5 -13 16 -21q10 -8 23 -8h82q12 0 23 8t13 21l103 498
q1 2 3 8q1 5 3 5t4 -5q2 -6 2 -8l101 -498q2 -13 13 -21q10 -8 23 -8h87q13 0 23 8t15 21q5 15 9 31q4 17 9 33l35 120q27 93 53 186q27 93 53 186q1 4 6 20q5 17 10 35t9 34t4 19v0z" />
    <glyph glyph-name="X" unicode="X" horiz-adv-x="689" 
d="M644 20q0 5 -4 11l-205 320q-4 5 -5 12t-1 13q0 7 1 14q1 6 5 11l190 294q4 6 4 11q0 8 -6 11q-5 3 -11 3h-117q-12 0 -25 -7q-13 -8 -19 -19l-104 -180q-2 -4 -6 -7t-9 -3t-9 3q-3 4 -5 8l-102 179q-6 11 -19 19q-12 7 -25 7h-121q-6 0 -12 -3q-6 -2 -6 -11q0 -5 4 -11
l191 -300q4 -5 5 -12q1 -6 1 -12q0 -7 -1 -14t-5 -12l-204 -314q-3 -5 -3 -11q0 -8 5 -11q6 -3 12 -3h118q12 0 26 7q13 8 19 19l116 192q2 4 6 8t9 4t9 -4t6 -8l110 -192q6 -11 19 -19q13 -7 25 -7h126q6 0 12 3q5 3 5 11v0z" />
    <glyph glyph-name="Y" unicode="Y" horiz-adv-x="686" 
d="M644 705q0 9 -5 12q-6 3 -13 3h-106q-12 0 -24 -8t-18 -19l-127 -257l-4 -8q-3 -3 -8 -3t-8 3q-3 4 -5 8l-136 257q-6 11 -19 19q-12 8 -24 8h-108q-7 0 -13 -3q-5 -3 -5 -12q0 -7 3 -11l222 -393q6 -11 10 -27q4 -15 4 -28v-210q0 -12 9 -21t21 -9h92q12 0 21 9t9 21
v209q0 13 4 28q4 16 10 27l215 394q3 4 3 11v0z" />
    <glyph glyph-name="Z" unicode="Z" horiz-adv-x="629" 
d="M589 35v67q0 12 -9 21q-8 9 -21 9h-322q-5 0 -11 2q-6 3 -6 9q0 7 6 12l342 423q8 11 13 25q6 15 6 29v58q0 12 -9 21q-8 9 -21 9h-496q-13 0 -22 -9t-9 -21v-67q0 -12 9 -21q9 -8 22 -8h306q5 0 11 -3q5 -2 5 -9q0 -6 -6 -12l-338 -415q-8 -10 -13 -25t-5 -28v-67
q0 -12 8 -21q9 -8 21 -8h509q13 0 21 8q9 9 9 21v0z" />
    <glyph glyph-name="bracketleft" unicode="[" horiz-adv-x="365" 
d="M271 679q0 16 -6 30q-5 14 -25 14h-190q-12 0 -21 -9q-8 -9 -8 -21v-851q0 -12 8 -21q9 -9 21 -9h190q11 0 17 5q6 4 9 12t3 16q1 9 1 17q0 17 -5 30q-5 14 -25 14h-66q-12 0 -21 9q-8 9 -8 21v662q0 20 13 26q14 5 31 5q9 0 23 -1t26 0q13 2 22 8q10 6 10 21v11
q1 6 1 11v0z" />
    <glyph glyph-name="backslash" unicode="\" horiz-adv-x="404" 
d="M354 6q0 3 -6 23q-6 21 -13 44l-15 45q-6 21 -7 26q-35 114 -69 226q-34 113 -70 226l-25 82l-4 16q-2 9 -5 15q-7 11 -15 20q-9 9 -23 9h-60q-9 0 -15 -6t-6 -15q0 -3 5 -23q6 -21 13 -44q7 -24 13 -45q7 -22 9 -27q67 -226 138 -451l26 -82l4 -16q2 -9 5 -16
q6 -11 15 -19q8 -8 23 -8h60q9 0 15 6q7 6 7 14v0z" />
    <glyph glyph-name="bracketright" unicode="]" horiz-adv-x="387" 
d="M271 -158v851q0 12 -9 21t-21 9h-191q-11 0 -17 -5t-9 -13q-2 -8 -3 -16v-17q0 -17 4 -30q5 -14 25 -14h67q12 0 21 -9t9 -21v-662q0 -21 -14 -25q-14 -5 -30 -5q-10 0 -19 1h-18q-17 0 -25 -2q-9 -3 -14 -9q-4 -6 -5 -16t-1 -24q0 -16 4 -30q5 -14 25 -14h191q12 0 21 9
t9 21v0z" />
    <glyph glyph-name="asciicircum" unicode="^" horiz-adv-x="567" 
d="M465 333q0 4 -2 10l-158 330q-10 20 -29 23t-38 3q-18 0 -34 -4q-17 -5 -26 -22l-155 -330q-2 -6 -2 -10q0 -9 5 -13q6 -4 14 -4h50q13 0 25 8q13 9 18 20l98 216l4 8q3 3 8 3t8 -3l4 -8l96 -216q6 -11 18 -20q12 -8 24 -8h53q8 0 14 4q5 4 5 13v0z" />
    <glyph glyph-name="underscore" unicode="_" horiz-adv-x="537" 
d="M575 -93q0 11 -10 18q-9 7 -20 7h-495q-11 0 -20 -7t-9 -18t9 -18t20 -7h495q11 0 20 7q10 7 10 18v0z" />
    <glyph glyph-name="grave" unicode="`" horiz-adv-x="343" 
d="M233 569q0 4 -4 12l-53 97q-6 11 -20 18q-14 6 -27 6h-94q-4 0 -9 -1q-5 -2 -5 -7q0 -6 6 -12l93 -105q8 -9 24 -15q15 -6 27 -6h44q6 0 12 3t6 10v0z" />
    <glyph glyph-name="a" unicode="a" horiz-adv-x="545" 
d="M356 224q0 -12 -1 -32q0 -19 -6 -31q-13 -34 -48 -52q-35 -17 -69 -17q-29 0 -49 14t-20 45q0 26 10 41q11 15 27 24q17 9 39 13l42 8q21 3 41 8q19 5 33 17q1 -9 1 -19v-19v0zM525 14q0 7 -5 13t-11 15q-6 8 -11 21q-4 13 -4 36v267q0 56 -17 91t-47 56q-29 20 -70 28
t-90 8q-34 0 -68 -5q-33 -5 -62 -18t-52 -36q-23 -22 -36 -57q-3 -8 -7 -24t-4 -24q0 -6 4 -14q3 -9 12 -9h100q10 0 15 6q4 6 7 14t7 18t12 18q9 8 25 14q16 5 43 5q18 0 34 -2q16 -3 27 -11q12 -7 19 -21q8 -13 8 -33q0 -11 -6 -17q-5 -7 -12 -11q-8 -4 -17 -7
q-8 -2 -17 -3q-20 -3 -41 -5l-42 -6q-40 -5 -75 -16q-36 -11 -64 -32q-28 -20 -43 -52q-16 -31 -16 -77q0 -38 13 -66t36 -47t54 -29t67 -10q51 0 92 20q42 19 76 56q0 -9 3 -27q4 -18 8 -26q5 -9 15 -9h128q12 0 12 8v0z" />
    <glyph glyph-name="b" unicode="b" horiz-adv-x="546" 
d="M399 266q0 -28 -7 -56t-21 -51q-13 -23 -36 -37q-22 -15 -54 -15q-34 0 -58 14q-24 13 -39 35q-15 23 -21 52q-7 28 -7 58q0 32 5 61q4 29 17 52q14 22 37 36q24 14 62 14q36 0 59 -14q24 -14 37 -37q14 -23 20 -52t6 -60v0zM544 275q0 40 -7 79q-6 38 -22 72
q-15 34 -42 61q-26 27 -66 44q-41 18 -85 18q-40 0 -72 -10q-32 -11 -60 -40q-4 -5 -13 -16t-13 -13q-1 1 -2 16q-1 16 -1 39v49q0 27 1 51v42v23q0 12 -9 21q-8 9 -21 9h-82q-12 0 -21 -9q-8 -9 -8 -21v-654q0 -13 8 -21q9 -9 21 -9h78q16 0 21 8q6 7 8 17t3 18q1 7 7 7
q3 0 7 -3l9 -9t9 -10t7 -7q10 -10 26 -16q15 -6 31 -10t32 -6t30 -2q21 0 44 4q23 5 43 13q40 19 67 47t43 63t22 74q7 40 7 81v0z" />
    <glyph glyph-name="c" unicode="c" horiz-adv-x="525" 
d="M512 181q0 16 -17 16h-94q-13 0 -20 -4t-11 -11q-4 -6 -7 -14q-2 -9 -6 -16q-13 -21 -36 -33t-47 -12q-35 0 -57 15q-21 15 -32 38q-12 24 -16 53t-4 57q0 26 5 54t18 52q12 24 33 39q21 16 53 16q21 0 37 -4q15 -4 26 -13q10 -8 19 -22q8 -13 15 -33q2 -4 5 -9
q3 -4 8 -4h103q11 0 18 7t7 18v3q-9 71 -55 111q-46 39 -112 55q-17 4 -35 6q-18 3 -36 3q-65 0 -112 -20q-48 -20 -79 -57q-32 -36 -47 -87q-15 -50 -15 -112q0 -63 14 -115q13 -52 44 -88q31 -37 79 -57t116 -20t127 29t90 92q8 16 12 31t8 33q0 1 1 1v2v0z" />
    <glyph glyph-name="d" unicode="d" horiz-adv-x="584" 
d="M410 266q0 -31 -7 -59q-6 -29 -21 -51t-39 -35q-24 -14 -59 -14q-33 0 -55 15q-22 14 -36 37t-20 51t-6 56t6 56q5 29 19 53t36 39t56 15q38 0 62 -14q25 -13 39 -35t19 -52q6 -29 6 -62v0zM545 36v654q0 12 -9 21q-8 9 -21 9h-81q-12 0 -21 -9t-9 -21l-1 -194
q0 -6 -2 -11t-9 -5q-6 0 -12 6q-5 5 -10 11l-10 10q-21 17 -47 29q-27 13 -54 13q-62 0 -107 -21t-74 -58q-30 -37 -43 -87q-14 -50 -14 -108q0 -42 6 -82q7 -39 23 -75q17 -35 44 -63t69 -46q21 -8 42 -12q22 -4 43 -4q22 0 43 12q22 12 41 27q18 15 34 27q15 13 25 13h16
q0 -10 -1 -21q0 -11 2 -21q3 -11 9 -17q6 -7 19 -7h79q13 0 21 9q9 8 9 21v0z" />
    <glyph glyph-name="e" unicode="e" horiz-adv-x="541" 
d="M386 321h-196q-8 0 -15 5q-6 6 -6 14q0 3 2 9q2 8 5 17t9 17q14 23 40 38q26 14 53 14q52 0 78 -33q26 -32 30 -81v0zM533 246q0 14 -1 27q-1 12 -1 27q0 88 -42 148t-127 86q-21 7 -42 11t-42 4q-53 0 -101 -19q-80 -29 -118 -92q-38 -62 -38 -146q0 -67 13 -122
q13 -54 43 -94q30 -39 79 -61t122 -22q80 0 141 30q62 30 96 106l4 8q1 3 1 8q0 11 -10 14q-10 2 -17 2h-82q-17 0 -26 -10q-9 -9 -21 -20q-11 -10 -30 -19t-56 -9q-28 0 -50 10q-22 11 -37 29t-22 41q-8 24 -8 50h342q5 0 17 2q13 2 13 11v0z" />
    <glyph glyph-name="f" unicode="f" horiz-adv-x="351" 
d="M333 490q0 17 -5 31t-26 14h-43q-5 0 -11 1q-7 0 -7 7v46q0 17 11 21t26 4h18q8 0 16 3q7 2 11 8q5 7 5 19v54q0 12 -9 21q-8 9 -21 9h-33q-87 0 -126 -38q-39 -37 -39 -125q0 -12 -9 -21t-21 -9h-17q-9 -1 -16 -3q-7 -3 -12 -9q-4 -6 -4 -17q0 -7 -1 -13v-13
q0 -17 5 -31t25 -14q9 0 17 -1q9 0 16 -3q7 -2 12 -9q5 -6 5 -17v-370q0 -12 8 -21q9 -8 21 -8h81q12 0 21 8q9 9 9 21v370q0 22 14 26q15 4 32 4t32 4q14 4 14 25q0 7 1 13v13v0z" />
    <glyph glyph-name="g" unicode="g" horiz-adv-x="579" 
d="M401 274q0 -30 -6 -59q-6 -28 -19 -49q-14 -21 -37 -33q-23 -13 -59 -13q-22 0 -40 9q-21 9 -34 26q-14 16 -22 35q-9 20 -12 42t-3 42q0 21 3 42q3 22 12 41q8 20 21 35q12 16 33 27q22 10 42 10q32 0 55 -14t37 -36q15 -22 22 -50q7 -27 7 -55v0zM541 21v485
q0 12 -9 21q-8 8 -21 8h-74q-13 0 -19 -5t-9 -12q-2 -8 -3 -17q0 -10 -1 -18q0 -2 -1 -6q-1 -5 -5 -5q-3 0 -7 4q-4 3 -7 8q-4 5 -7 10q-4 6 -6 8q-22 23 -58 35t-68 12q-44 0 -79 -14q-36 -13 -62 -37q-26 -25 -44 -59q-19 -34 -29 -75q-11 -45 -11 -87q0 -57 13 -107
t41 -88q29 -37 73 -59q44 -21 107 -21q47 0 84 19q36 20 60 62q1 -7 1 -14q1 -7 1 -14q0 -34 -3 -63q-2 -29 -14 -51q-12 -21 -35 -33q-24 -13 -65 -13q-32 0 -59 10q-28 10 -38 45h-123q-11 0 -19 -8q-8 -7 -8 -18q0 -9 7 -25q7 -15 12 -23q15 -24 43 -40q28 -17 62 -27
q33 -10 66 -14t60 -4q58 0 106 13q47 12 80 41q33 28 51 71q17 44 17 105v0z" />
    <glyph glyph-name="h" unicode="h" horiz-adv-x="534" 
d="M509 379q0 67 -32 106q-31 38 -97 56q-31 8 -59 8q-47 0 -91 -20t-67 -63v224q0 12 -9 21q-8 9 -21 9h-83q-12 0 -21 -9q-8 -9 -8 -21v-655q0 -12 8 -21q9 -8 21 -8h83q13 0 21 8q9 9 9 21v244v33q-1 16 2 33q7 39 39 62q31 24 70 24q28 0 47 -7q18 -7 28 -19
q11 -13 14 -33q4 -20 4 -47v-290q0 -12 9 -21q8 -8 21 -8h82q13 0 21 8q9 9 9 21v344v0z" />
    <glyph glyph-name="i" unicode="i" horiz-adv-x="252" 
d="M198 36v470q0 12 -9 21q-9 8 -21 8h-83q-12 0 -21 -8q-8 -9 -8 -21v-470q0 -13 8 -21q9 -9 21 -9h83q12 0 21 9q9 8 9 21v0zM198 617v71q0 12 -9 21t-21 9h-83q-12 0 -21 -9q-8 -9 -8 -21v-71q0 -12 8 -21q9 -8 21 -8h83q12 0 21 8q9 9 9 21v0z" />
    <glyph glyph-name="j" unicode="j" horiz-adv-x="308" 
d="M228 -37v543q0 12 -9 21q-9 8 -21 8h-83q-12 0 -21 -8q-9 -9 -9 -21v-562q0 -17 -4 -25q-5 -7 -12 -10q-7 -2 -16 -2t-16 -2t-12 -8q-4 -6 -4 -21v-53q0 -12 4 -21q5 -9 18 -9h28q13 1 28 2q41 1 66 14q25 14 39 36q13 22 18 52q6 30 6 66v0zM228 617v71q0 12 -9 21
t-21 9h-83q-12 0 -21 -9t-9 -21v-71q0 -12 9 -21q9 -8 21 -8h83q12 0 21 8q9 9 9 21v0z" />
    <glyph glyph-name="k" unicode="k" horiz-adv-x="513" 
d="M507 20q0 4 -4 12l-166 272q-5 10 -5 20q0 17 10 27l155 167q5 5 5 11q0 8 -7 9q-6 2 -11 2h-108q-13 0 -27 -7q-14 -6 -22 -15l-144 -162q-3 -2 -5 -4q-3 -3 -7 -3q-5 0 -6 5q-2 5 -2 10v326q0 12 -9 21q-8 9 -21 9h-83q-12 0 -21 -9q-8 -9 -8 -21v-654q0 -12 8 -21
q9 -9 21 -9h83q22 0 26 17q5 17 5 34t-1 32t-1 31q0 19 4 39q3 20 18 35q6 6 15 16q10 10 19 10q13 0 20 -12l99 -176q6 -11 19 -19q13 -7 25 -7h108q6 0 12 3q6 2 6 11v0z" />
    <glyph glyph-name="l" unicode="l" horiz-adv-x="218" 
d="M180 36v654q0 12 -8 21q-9 9 -21 9h-83q-12 0 -21 -9t-9 -21v-654q0 -12 9 -21t21 -9h83q12 0 21 9q8 9 8 21v0z" />
    <glyph glyph-name="m" unicode="m" 
d="M772 35v341q0 15 -3 29t-8 29q-18 55 -57 85t-99 30q-35 0 -69 -11q-34 -10 -59 -37q-8 -9 -13 -18q-6 -10 -12 -19q-26 41 -58 63t-82 22q-22 0 -44 -8q-22 -9 -42 -21q-21 -13 -38 -30q-18 -16 -31 -33q-2 5 -2 15v20q1 12 -2 21q-2 9 -8 16q-7 6 -20 6h-75
q-12 0 -21 -8q-8 -9 -8 -21v-471q0 -12 8 -21q9 -8 21 -8h83q13 0 21 8q9 9 9 21v263v13q-1 6 -1 13q0 47 21 77t72 30q72 0 72 -74q0 -81 -1 -161v-161q0 -12 9 -21q8 -8 21 -8h83q12 0 21 8q8 9 8 21v292q0 20 5 39t16 33t27 23q17 9 39 9q26 0 41 -8q16 -8 24 -21
q8 -14 11 -33q2 -19 2 -41v-293q0 -12 9 -21q8 -8 21 -8h80q12 0 21 8q8 9 8 21v0z" />
    <glyph glyph-name="n" unicode="n" horiz-adv-x="519" 
d="M500 37v333q0 69 -28 112q-27 43 -97 61q-30 8 -55 8q-59 0 -96 -20t-67 -72v16q1 7 1 15q0 17 -5 32t-26 15h-77q-12 0 -21 -8q-8 -9 -8 -21v-471q0 -12 8 -21q9 -8 21 -8h83q13 0 21 8q9 9 9 21q0 70 1 138v138q0 37 15 67t51 45q18 8 38 8q43 0 66 -16q24 -16 24 -63
q0 -80 -1 -158v-159q0 -12 8 -21q9 -8 21 -8h84q13 0 21 8q9 9 9 21v0z" />
    <glyph glyph-name="o" unicode="o" horiz-adv-x="609" 
d="M426 272q0 -32 -6 -61t-21 -52q-15 -22 -39 -35q-25 -14 -62 -14t-62 14q-25 13 -40 35t-22 51t-7 62q0 31 7 60q8 29 23 52q16 22 41 35q25 14 60 14q37 0 62 -13t40 -35q14 -22 20 -51t6 -62v0zM573 272q0 24 -4 47q-3 23 -10 45q-27 97 -95 142q-67 45 -166 45
q-93 0 -160 -43q-67 -42 -99 -132q-8 -24 -13 -51t-5 -53q0 -23 4 -47q4 -23 11 -46q30 -94 97 -139q68 -45 165 -45t164 43q68 44 96 138q15 48 15 96v0z" />
    <glyph glyph-name="p" unicode="p" horiz-adv-x="552" 
d="M386 254q0 -28 -5 -55t-18 -49q-13 -21 -34 -34q-22 -14 -54 -14q-31 0 -54 14q-22 14 -37 35q-16 22 -23 49t-7 54q0 30 4 61q5 31 18 55q14 24 37 39q24 16 62 16q37 0 59 -16t33 -41q12 -24 16 -55q3 -31 3 -59v0zM532 269q0 53 -13 102t-41 88q-27 39 -69 62
q-42 24 -101 24q-29 0 -49 -15q-19 -14 -34 -31q-16 -17 -30 -31q-13 -14 -32 -14q-8 0 -9 8v13v19t-3 18q-2 8 -8 13q-7 5 -19 5h-74q-12 0 -21 -8q-8 -9 -8 -21v-674q0 -12 8 -22q9 -9 21 -9h82q13 0 21 9q9 10 9 22v212q0 3 1 11q1 7 6 7q1 0 4 -4t7 -9t6 -10q3 -4 5 -6
q9 -11 23 -18q15 -8 30 -13q16 -4 32 -6t29 -2q62 0 105 23q43 24 70 63t39 89q13 51 13 105v0z" />
    <glyph glyph-name="q" unicode="q" horiz-adv-x="564" 
d="M399 271q0 -27 -6 -53q-6 -27 -18 -49q-13 -21 -34 -35t-53 -14t-55 13t-38 34t-22 48t-7 56q0 30 5 61q4 31 18 55q13 25 37 40t62 15q37 0 59 -16t34 -41q11 -24 15 -55q3 -31 3 -59v0zM532 -156v675q0 12 -9 21q-9 8 -21 8h-74q-20 0 -25 -14q-4 -13 -4 -30v-26v-4
q0 -4 -2 -4q-3 0 -5 8t-3 10q-9 25 -29 42q-24 19 -55 26q-31 6 -61 6q-58 0 -100 -24q-42 -23 -70 -62q-27 -38 -40 -87t-13 -101q0 -54 12 -105t39 -91q28 -39 71 -63t104 -24q28 0 61 9q34 10 54 31q1 2 4 6l6 10q4 5 7 9q2 4 4 4q5 0 6 -7t1 -10v-213q0 -12 9 -21t21 -9
h82q12 0 21 9t9 21v0z" />
    <glyph glyph-name="r" unicode="r" horiz-adv-x="347" 
d="M333 437v85q0 7 -1 17q-2 11 -12 11q-18 0 -40 -3q-23 -2 -40 -10q-13 -6 -27 -16q-13 -10 -24 -23q-12 -13 -20 -27q-9 -15 -14 -28v65q0 12 -9 21q-9 8 -21 8h-75q-12 0 -21 -8q-8 -9 -8 -21v-470q0 -13 8 -21q9 -9 21 -9h83q13 0 21 9q9 8 9 21v215q0 25 6 53
q6 29 20 52q13 23 34 38q22 15 53 15q7 0 14 -1q6 -2 13 -2q14 0 22 8t8 21v0z" />
    <glyph glyph-name="s" unicode="s" horiz-adv-x="535" 
d="M514 177q0 45 -20 73q-20 27 -50 44q-31 16 -68 25q-38 9 -73 17q-10 2 -28 6t-36 9q-19 5 -34 12t-21 15q-8 8 -8 21q0 17 11 25q10 9 24 13q15 4 30 5h27q31 0 55 -11q23 -10 33 -43q2 -5 3 -9q1 -3 8 -3h101q10 0 20 6q9 6 9 17q0 5 -2 12q-1 7 -3 12q-11 41 -36 66
q-24 25 -56 39t-69 18q-37 5 -74 5q-43 0 -82 -9q-40 -10 -70 -31q-31 -21 -49 -54q-19 -34 -19 -82q0 -58 36 -93t88 -49l110 -26q10 -2 27 -6t33 -11q16 -6 29 -15q12 -9 12 -23q0 -15 -10 -25q-9 -10 -24 -16q-14 -7 -30 -9q-16 -3 -28 -3q-20 0 -38 2q-19 2 -34 8
q-15 7 -26 19q-12 13 -17 34q-2 8 -4 11q-2 4 -10 4h-105q-11 0 -18 -8t-7 -19t5 -27q6 -16 11 -26q18 -31 45 -51q28 -20 61 -31q32 -11 68 -16q35 -4 68 -4q44 0 86 9q42 10 75 32q33 21 54 56q20 35 20 85v0z" />
    <glyph glyph-name="t" unicode="t" horiz-adv-x="339" 
d="M324 492q0 17 -5 31t-26 14h-19t-18 2q-9 2 -15 9q-5 7 -5 19v82q0 12 -9 21t-21 9h-83q-12 0 -21 -9t-9 -21v-82q0 -20 -11 -24q-11 -5 -25 -6q-14 -2 -25 -6q-11 -5 -11 -23q0 -7 -1 -13v-13q0 -17 5 -31t25 -14q17 0 30 -5q13 -4 13 -25v-262q0 -48 9 -76t28 -43
t49 -20q31 -4 76 -4q11 0 23 -1q12 0 22 2q11 3 17 10q6 6 6 20v46q0 28 -27 28q-12 0 -23 1q-12 0 -20 4q-8 3 -13 12q-4 9 -4 25v258q0 14 6 20q7 6 16 8q10 2 21 2q12 0 21 2q10 2 16 8q7 5 7 20v12q1 7 1 13v0z" />
    <glyph glyph-name="u" unicode="u" horiz-adv-x="521" 
d="M506 38v470q0 12 -9 21q-8 8 -21 8h-82q-12 0 -20 -8q-9 -9 -9 -21v-117q1 -58 1 -116q0 -22 -1 -51q0 -29 -8 -49q-13 -30 -42 -47q-29 -18 -61 -18q-31 0 -48 10q-18 10 -28 26t-12 39q-3 23 -3 48v275q0 12 -9 21q-8 8 -21 8h-83q-12 0 -21 -8q-8 -9 -8 -21v-307
q0 -47 9 -85q10 -37 32 -65q22 -27 57 -41q35 -15 86 -15q39 0 75 10q37 10 64 40q9 8 15 17t12 19q0 -10 -1 -22q0 -12 2 -24t8 -19q6 -8 21 -8h75q13 0 21 9q9 8 9 21v0z" />
    <glyph glyph-name="v" unicode="v" horiz-adv-x="566" 
d="M539 518q0 9 -7 14q-6 5 -15 5h-89q-12 0 -19 -8q-6 -9 -10 -20l-111 -323q-1 -2 -3 -7q-2 -4 -5 -4t-5 4q-2 5 -3 7l-105 323q-4 11 -15 20q-10 8 -23 8h-88q-20 0 -20 -20q0 -9 3 -17q5 -14 10 -27l10 -28l42 -114q19 -50 37 -100l36 -100q8 -24 17 -48t19 -48
q5 -11 16 -19q10 -8 24 -8h89q13 0 24 11t16 23q4 11 19 50t34 91t41 110q21 59 39 108t30 82t12 35v0z" />
    <glyph glyph-name="w" unicode="w" horiz-adv-x="773" 
d="M759 516q0 9 -7 15q-6 6 -15 6h-78q-13 0 -23 -9t-13 -20l-82 -312q-1 -3 -3 -7q-1 -5 -4 -5t-4 5q-1 4 -2 7l-69 312q-2 12 -13 21q-11 8 -23 8h-85q-12 0 -23 -8q-11 -9 -13 -21l-65 -313q0 -2 -2 -6q-1 -5 -3 -5q-3 0 -5 5q-1 4 -2 6l-82 313q-3 11 -14 20
q-10 9 -22 9h-81q-23 0 -23 -20q0 -5 2 -14t5 -18t5 -18l5 -15l34 -115q21 -76 41 -151q21 -74 45 -149q4 -12 14 -21q11 -8 24 -8h87q13 0 23 8q10 9 13 21l73 318q1 2 3 8q1 5 3 5t4 -5q1 -6 2 -8l73 -318q3 -12 13 -21q11 -8 23 -8h87q16 0 25 9q9 10 14 24q2 6 13 42
q11 37 27 89q15 52 32 111t32 110t24 85q10 35 10 38v0z" />
    <glyph glyph-name="x" unicode="x" horiz-adv-x="565" 
d="M528 20q0 4 -4 12l-152 220q-4 5 -5 11q-1 7 -1 13q0 7 1 14t5 12l145 211q4 6 4 11q0 7 -5 10q-6 3 -12 3h-106q-13 0 -26 -7t-19 -18l-62 -105q-2 -4 -6 -7q-3 -3 -8 -3t-9 3q-5 3 -7 7l-61 105q-6 11 -19 18t-25 7h-113q-6 0 -12 -3t-6 -10q0 -3 1 -6q2 -3 4 -5
l142 -211q7 -11 7 -26q0 -14 -7 -24l-147 -220q-4 -8 -4 -12q0 -7 5 -10q6 -2 12 -2h111q12 0 25 7t19 18l62 108q2 4 6 7t10 3q5 0 9 -3t6 -7l64 -108q7 -11 20 -18t26 -7h114q6 0 12 2q6 3 6 10v0z" />
    <glyph glyph-name="y" unicode="y" horiz-adv-x="552" 
d="M541 518q0 9 -7 14q-6 5 -15 5h-90q-12 0 -23 -9q-10 -8 -15 -20l-97 -322q-1 -2 -2 -7q-2 -4 -6 -4t-6 4q-1 5 -2 7l-98 322q-4 13 -15 21t-23 8h-99q-22 0 -22 -20q0 -2 2 -9q3 -7 6 -16t6 -17t4 -11l162 -443q3 -9 5 -19q2 -9 2 -19q0 -21 -13 -45q-13 -23 -36 -29
q-5 -2 -10 -2h-11h-16t-15 -2q-6 -3 -10 -8q-5 -6 -5 -17v-54q0 -9 9 -19t18 -11q5 -1 11 -1h12h22q10 1 22 1q31 0 54 9q23 10 40 28q17 17 30 40q12 24 21 51l209 584q1 3 1 10v0z" />
    <glyph glyph-name="z" unicode="z" horiz-adv-x="577" 
d="M476 38v54q0 12 -8 21q-9 9 -21 9h-213q-5 0 -11 2t-6 8t6 12l224 257q8 10 14 24t6 27v56q0 12 -9 21q-8 8 -20 8h-369q-12 0 -21 -8q-9 -9 -9 -21v-54q0 -12 9 -21q9 -8 21 -8h199q5 0 10 -2t5 -8q0 -7 -6 -13l-237 -264q-8 -9 -14 -24q-5 -15 -5 -28v-48q0 -12 8 -21
q9 -9 21 -9h397q12 0 21 9q8 9 8 21v0z" />
    <glyph glyph-name="braceleft" unicode="{" horiz-adv-x="436" 
d="M338 682q0 15 -4 27q-5 12 -24 12h-52q-16 0 -35 -4q-18 -3 -35 -11q-18 -8 -32 -19t-24 -26q-13 -22 -18 -50q-4 -27 -4 -53v-169q0 -33 -14 -45t-31 -19t-30 -14q-14 -7 -14 -28v-16v-16q0 -21 14 -28q13 -7 30 -13t31 -19t14 -46v-168q0 -25 4 -55q5 -29 18 -51
q10 -15 24 -26q14 -12 32 -20q17 -9 35 -13q19 -4 35 -4h52q13 0 20 12q8 11 8 22v28q0 16 -7 22t-17 8q-11 1 -22 0q-12 -1 -21 2q-18 6 -25 25q-7 20 -7 36v165q0 61 -26 96t-89 43q63 8 89 43t26 96v166q0 17 7 36q7 20 25 25q9 3 21 2q11 -1 22 0q10 2 17 8t7 22v17v0z
" />
    <glyph glyph-name="bar" unicode="|" horiz-adv-x="252" 
d="M136 15v693q0 12 -9 21t-21 9h-56q-12 0 -21 -9q-8 -9 -8 -21v-693q0 -11 8 -20q9 -9 21 -9h56q12 0 21 9t9 20v0z" />
    <glyph glyph-name="braceright" unicode="}" horiz-adv-x="446" 
d="M338 245v16v16q0 20 -14 26q-13 7 -30 14t-31 20t-14 46v169q0 25 -5 55q-4 29 -17 51q-10 15 -24 26q-14 12 -32 20q-18 9 -37 13q-18 4 -34 4h-51q-13 0 -21 -11q-7 -12 -7 -23v-28q0 -16 7 -22t17 -8q11 -1 22 0q12 1 21 -2q18 -5 25 -25q7 -19 7 -36v-166v-5
q-1 -3 -1 -6q0 -56 30 -88t86 -40q-56 -8 -86 -40t-30 -88q0 -45 1 -89v-87q0 -17 -7 -36q-7 -20 -25 -25q-15 -4 -27 -3q-13 1 -22 0q-9 -2 -14 -11q-4 -9 -4 -35q0 -15 4 -27q5 -12 24 -12h51q16 0 34 4q19 3 37 11t32 19q14 10 24 26q13 22 17 50q5 27 5 53v168
q0 33 14 46q14 12 31 19q17 6 30 12q14 7 14 29v0z" />
    <glyph glyph-name="asciitilde" unicode="~" horiz-adv-x="587" 
d="M481 258q0 5 -3 13t-6 18q-3 9 -6 17q-4 8 -6 13t-5 9t-9 4t-13 -10q-7 -9 -17 -20q-10 -10 -24 -20q-14 -9 -34 -9q-29 0 -54 11t-50 24t-52 24t-58 11q-37 0 -66 -19q-29 -18 -49 -48q-8 -11 -8 -24q0 -5 3 -15q4 -11 9 -23t11 -21q5 -9 10 -9q4 0 12 9l19 19
q10 10 24 19q14 8 31 8q27 0 54 -10q26 -11 53 -24q27 -12 54 -23q28 -10 57 -10q36 0 66 20q30 21 50 50q7 8 7 16v0z" />
    <glyph glyph-name="exclamdown" unicode="&#xa1;" horiz-adv-x="286" 
d="M176 -161v137q0 15 -1 29q-1 15 -3 30l-34 260q-2 12 -11 21q-10 8 -22 8q-18 0 -32 -4q-14 -5 -16 -25l-33 -260q-3 -30 -3 -59v-137q0 -12 8 -21q9 -9 21 -9h97q12 0 21 9q8 9 8 21v0zM172 413v80q0 12 -8 21q-9 8 -21 8h-88q-13 0 -21 -8q-9 -9 -9 -21v-80
q0 -13 9 -22q8 -9 21 -9h88q12 0 21 9q8 9 8 22v0z" />
    <glyph glyph-name="cent" unicode="&#xa2;" horiz-adv-x="610" 
d="M284 431l-88 -289q-21 27 -26 61t-5 67q0 29 6 58q5 29 18 52t36 37q22 15 56 14h3v0zM512 181q0 16 -17 16h-94q-21 0 -29 -14t-17 -32q-10 -17 -27 -31t-56 -13h-8l90 291q4 -6 7 -15q4 -8 7 -17q4 -8 8 -14q3 -6 8 -6h103q11 0 18 7t7 19v3q0 26 -9 49q-10 23 -27 43
q-17 19 -39 34q-22 14 -46 24q2 7 7 19l8 24q4 13 7 23q3 11 3 17q0 9 -7 15q-6 6 -16 6h-19q-15 0 -25 -9q-9 -9 -14 -22q-6 -13 -10 -28q-3 -14 -6 -25q-12 2 -23 3t-22 1q-65 0 -112 -20q-48 -20 -79 -57q-32 -36 -47 -87q-15 -50 -15 -112q0 -40 6 -79t21 -74
q16 -35 42 -63t66 -45l-33 -107q-1 -2 3 -4q3 -1 3 -3q0 -9 3 -15q2 -7 13 -7q18 0 34 4t23 25q7 22 14 45q6 22 14 45q11 -2 22 -2h22q68 0 127 29t90 92q8 16 12 31t8 33q0 1 1 1v2v0z" />
    <glyph glyph-name="sterling" unicode="&#xa3;" horiz-adv-x="674" 
d="M594 34q0 5 -1 7l-28 73q-7 18 -24 18q-5 0 -16 -5q-10 -4 -24 -10q-14 -5 -29 -9q-16 -5 -33 -5q-16 0 -32 4t-32 9t-31 9q-16 4 -33 4q-32 0 -66 -7q-34 -8 -66 -19q4 5 10 10l11 11q14 14 31 30t29 33q14 20 20 42q5 22 5 45q0 21 -4 40t-7 38h99q13 0 23 10
q9 10 9 23q0 17 -9 25q-10 8 -26 9q-16 2 -35 0q-19 -1 -37 -1q-17 0 -32 4t-22 16q-5 8 -12 24t-12 33q-6 17 -10 33q-4 17 -4 26q0 49 30 75q29 26 76 26q53 0 87 -30t34 -83q0 -9 6 -13q5 -4 13 -4h95q12 0 21 8q8 9 8 21v2q-1 1 -1 2q-5 24 -8 47q-3 24 -14 46
q-17 34 -44 58q-26 24 -57 39q-32 15 -68 22t-72 7q-80 0 -145 -32q-65 -31 -98 -107q-8 -15 -13 -36q-6 -21 -6 -39q0 -30 8 -59t22 -56q4 -8 8 -14q4 -7 8 -15h-23q-14 1 -25 -1t-19 -9q-8 -8 -8 -23q0 -22 14 -29q15 -6 34 -6q6 0 16 1h22q11 -1 20 -3t13 -7q4 -6 8 -16
q3 -11 5 -22q3 -11 4 -22q1 -12 1 -19q0 -33 -8 -57q-9 -25 -23 -45q-15 -20 -36 -37t-47 -33q-5 -3 -5 -8t3 -9l38 -67q10 -17 33 -17q11 0 24 4t26 9q13 6 26 10q14 4 27 4q28 0 54 -6q26 -7 52 -15q26 -7 53 -14q26 -7 54 -7q36 0 76 10t71 27q7 3 12 8q6 5 6 14v0z" />
    <glyph glyph-name="yen" unicode="&#xa5;" horiz-adv-x="714" 
d="M644 705q0 8 -5 11q-6 3 -13 3h-106q-12 0 -24 -7q-12 -8 -18 -19l-127 -257l-4 -8q-3 -4 -8 -4t-8 4t-5 8l-136 257q-6 11 -19 19q-12 7 -24 7h-108q-7 0 -13 -3q-5 -3 -5 -11q0 -7 3 -11l168 -298h-112q-11 0 -20 -7q-10 -8 -10 -19t10 -18q9 -7 20 -7h140
q15 -24 25 -43t14 -46h-179q-11 0 -20 -7q-10 -8 -10 -19t10 -18q9 -7 20 -7h180v-169q0 -12 9 -21t21 -9h92q12 0 21 9t9 21v169h163q11 0 20 7t9 18t-9 19q-9 7 -20 7h-162q3 25 14 46q12 21 24 43h124q11 0 20 7t9 18t-9 19q-9 7 -20 7h-97l163 298q3 4 3 11v0z" />
    <glyph glyph-name="section" unicode="&#xa7;" horiz-adv-x="683" 
d="M439 262q0 -30 -17 -41q-16 -11 -40 -23l-174 92q-19 10 -36 28t-17 41q0 56 56 62l170 -85q21 -12 39 -30q19 -19 19 -44v0zM582 294q0 39 -11 68t-39 57q-19 19 -54 39q-34 21 -74 41t-79 38q-39 19 -65 31q-24 12 -34 27q-11 14 -11 43q0 8 5 15q13 20 32 29
q20 9 43 9q37 0 58 -16q20 -15 31 -50q4 -11 8 -16q4 -4 17 -4h100q8 0 15 3t7 13q0 22 -7 45t-17 42q-14 29 -37 48q-23 20 -51 32q-29 11 -59 17q-31 5 -62 5q-44 0 -86 -14q-42 -13 -74 -38t-52 -62q-19 -38 -19 -86q0 -37 16 -72q17 -34 45 -58q-48 -26 -78 -65
q-29 -39 -29 -96q0 -46 18 -79q19 -34 55 -61q14 -9 38 -22t53 -27l58 -29q31 -15 57 -28q27 -14 46 -25q20 -12 26 -20q17 -21 17 -43q0 -39 -25 -59t-62 -20q-27 0 -50 11q-22 10 -35 37q-4 8 -5 14q-2 6 -4 15q-4 11 -9 13q-4 2 -15 2h-107q-7 0 -14 -3q-6 -2 -6 -11v-7
q6 -48 27 -83t52 -60q32 -24 73 -35q40 -12 86 -12q38 0 73 7q36 7 66 23q31 17 55 43q23 26 39 63q7 17 11 38q5 20 5 39q0 46 -18 80q-19 34 -53 64q20 9 39 25q20 16 35 36t25 43t10 46v0z" />
    <glyph glyph-name="dieresis" unicode="&#xa8;" horiz-adv-x="494" 
d="M163 685v71q0 12 -9 21q-8 8 -21 8h-83q-12 0 -21 -8q-8 -9 -8 -21v-71q0 -12 8 -21q9 -9 21 -9h83q13 0 21 9q9 9 9 21v0zM379 685v71q0 12 -9 21q-8 8 -21 8h-83q-12 0 -20 -8q-9 -9 -9 -21v-71q0 -12 9 -21q8 -9 20 -9h83q13 0 21 9q9 9 9 21v0z" />
    <glyph glyph-name="copyright" unicode="&#xa9;" horiz-adv-x="1249" 
d="M905 307q0 9 -8 9h-122q-6 0 -9 -6q-11 -30 -23 -51q-13 -22 -30 -36q-16 -14 -39 -22q-24 -7 -57 -7q-45 0 -77 21q-31 21 -50 54q-20 33 -29 73t-9 78q0 40 10 80q9 40 30 72t55 51q33 20 80 20q38 0 70 -15q31 -15 51 -49q2 -4 5 -12t7 -16q3 -9 8 -15q4 -6 10 -6h114
q13 0 13 11q0 13 -4 27t-10 29t-13 29t-15 23q-44 57 -108 86q-64 28 -134 28q-61 0 -118 -22q-58 -21 -101 -65q-52 -53 -70 -120q-19 -67 -19 -139q0 -73 19 -136q18 -62 57 -108q38 -47 96 -73t136 -26q34 0 67 8q34 9 66 24t58 37q27 23 47 50q7 8 15 23t15 32
q6 17 11 33t5 26v0zM1075 423q0 -95 -35 -177q-36 -83 -98 -144q-61 -62 -144 -97q-82 -36 -175 -36q-94 0 -177 36q-83 35 -145 97q-61 61 -97 144q-36 82 -36 177q0 93 36 175q36 83 97 144q62 62 145 97q83 36 177 36q93 0 175 -36q83 -35 144 -97q62 -61 98 -144
q35 -82 35 -175v0zM1173 427q0 76 -20 146q-19 70 -55 131t-87 111q-50 51 -111 87t-131 55q-70 20 -146 20t-147 -20q-70 -19 -131 -55t-111 -87q-50 -50 -87 -111q-36 -61 -56 -131q-19 -70 -19 -146q0 -114 43 -214q44 -101 119 -175q74 -75 175 -118q100 -43 214 -43
t214 43t174 118q75 74 118 175q44 100 44 214v0z" />
    <glyph glyph-name="ordfeminine" unicode="&#xaa;" horiz-adv-x="471" 
d="M249 561v-18q-1 -11 -4 -19q-8 -20 -29 -31t-42 -11q-17 0 -29 9t-12 27q0 23 14 32q13 10 31 14q19 4 38 7q20 3 32 13q0 -5 1 -12v-11v0zM364 309v40q0 12 -9 21t-21 9h-284q-12 0 -21 -9q-8 -9 -8 -21v-40q0 -12 8 -21q9 -9 21 -9h284q12 0 21 9t9 21v0zM350 436
q0 4 -3 8q-3 3 -6 8t-6 12q-3 8 -3 22v160q0 33 -10 54t-28 34q-17 12 -42 17q-25 4 -54 4q-21 0 -40 -3q-20 -3 -37 -11q-18 -7 -32 -21t-21 -34q-2 -5 -5 -14q-2 -10 -2 -15q0 -4 2 -9q2 -4 7 -4h60q11 0 14 11t8 18q8 11 20 13q13 3 24 3q21 0 37 -8q15 -9 15 -33
q0 -12 -15 -18q-15 -5 -37 -8t-48 -7t-48 -15q-22 -10 -37 -31q-15 -20 -15 -56q0 -46 30 -68t73 -22q29 0 55 12q25 11 45 33q0 -3 1 -9q0 -6 2 -13q1 -6 4 -10q3 -5 8 -5h77q7 0 7 5v0z" />
    <glyph glyph-name="guillemotleft" unicode="&#xab;" horiz-adv-x="433" 
d="M154 167v35q0 7 -2 15t-7 13l-76 65q-4 4 -4 8q0 6 4 9l76 64q5 5 7 14t2 15v35q0 2 -1 7q0 5 -4 5q-3 0 -4 -1l-115 -104q-8 -7 -9 -22v-25q0 -9 1 -21t8 -18l115 -106q1 -1 2 -1q1 -1 2 -1q4 0 4 6q1 6 1 8v0zM322 167v35q0 8 -3 15q-2 8 -7 13l-76 65q-4 4 -4 8
q0 6 4 9l76 64q5 6 7 14q3 9 3 15v35q0 4 -4 6t-6 4v1l4 1h-3q-1 -1 -2 -1l1 -1l-115 -103q-8 -7 -9 -22v-25q0 -9 1 -21t8 -18l115 -106q1 -1 2 -1q1 -1 2 -1q4 0 5 5t1 9v0z" />
    <glyph glyph-name="registered" unicode="&#xae;" horiz-adv-x="1351" 
d="M808 566q0 -41 -21 -64t-63 -23h-146q-11 0 -19 8q-8 7 -8 18v113q0 12 8 19t19 7h132q19 0 37 -4q18 -3 31 -13q14 -9 22 -24q8 -14 8 -37v0zM938 135q0 19 -9 41t-9 46q0 29 1 60q1 32 -5 61q-5 29 -22 52q-16 23 -51 34q45 15 70 56q25 40 25 86q0 43 -15 77
q-14 34 -41 56q-27 23 -63 35q-35 11 -76 11h-295q-10 0 -19 -7q-8 -8 -8 -19v-567q0 -10 8 -18q9 -8 19 -8h77q11 0 18 8q8 8 8 18v191q0 11 7 18q8 6 18 6h128q20 0 45 -8q24 -8 32 -28q5 -15 6 -32q2 -17 2 -33q0 -8 -1 -31q0 -22 2 -47q2 -24 7 -43q6 -19 18 -19h114h6
q3 1 3 4v0zM1153 431q0 -98 -37 -185q-37 -88 -102 -153q-66 -65 -153 -102q-87 -38 -185 -38q-99 0 -186 37t-152 102t-103 152q-38 88 -38 187q0 98 38 185t103 152t152 103q87 37 186 37q98 0 185 -37q87 -38 153 -103q65 -65 102 -152t37 -185v0zM1255 435
q0 120 -46 225q-45 106 -124 185q-78 78 -184 124q-105 46 -225 46t-226 -46t-184 -124q-78 -79 -124 -185q-45 -105 -45 -225t45 -225q46 -106 124 -184t184 -124t226 -46t225 46q106 46 184 124q79 78 124 184q46 105 46 225v0z" />
    <glyph glyph-name="degree" unicode="&#xb0;" horiz-adv-x="465" 
d="M270 664q0 -21 -11 -36q-10 -15 -33 -15q-24 0 -34 15q-11 15 -11 36t11 36t34 15q24 0 34 -15q10 -14 10 -36v0zM319 664q0 42 -26 66q-25 23 -67 23q-40 0 -68 -23q-27 -24 -27 -66t27 -65q28 -24 68 -24q42 0 67 23q26 23 26 66v0z" />
    <glyph glyph-name="plusminus" unicode="&#xb1;" horiz-adv-x="618" 
d="M529 116q0 11 -10 18q-9 7 -20 7h-444q-12 0 -21 -7t-9 -18t9 -18t21 -7h444q11 0 20 7q10 7 10 18v0zM533 370v53q0 12 -9 21q-9 8 -21 8h-140q-21 0 -26 16q-5 15 -5 31q0 14 1 26t1 26q0 16 -5 31q-5 16 -26 16h-53q-21 0 -27 -15q-5 -15 -5 -32q0 -14 1 -27
q1 -12 1 -26q0 -16 -5 -31t-25 -15h-140q-12 0 -21 -8q-8 -9 -8 -21v-53q0 -12 8 -21q9 -8 21 -8h140q20 0 25 -15t5 -31q0 -14 -1 -26q-1 -13 -1 -27q0 -17 5 -32q6 -15 27 -15h53q21 0 26 16q5 15 5 31q0 14 -1 26t-1 26q0 16 5 31q5 16 26 16h140q12 0 21 8q9 9 9 21v0z
" />
    <glyph glyph-name="uni00B2" unicode="&#xb2;" horiz-adv-x="388" 
d="M272 36v654q0 12 -9 21t-21 9h-94q-13 0 -21 -9q-9 -9 -9 -21v-654q0 -13 9 -21q8 -9 21 -9h94q12 0 21 9q9 8 9 21v0zM386 819l-2 4l-129 117q-4 4 -11 5q-7 2 -15 3q-9 1 -17 1h-13q-10 0 -26 -1q-15 -1 -23 -8l-127 -117l-2 -4q0 -4 6 -5h8h43q7 0 19 2q11 2 16 7
l80 77q4 4 10 4t10 -4l79 -77q5 -5 16 -7q12 -2 19 -2h43h9q7 1 7 5v0z" />
    <glyph glyph-name="uni00B3" unicode="&#xb3;" horiz-adv-x="711" 
d="M597 245v223q-1 110 -1 222q0 12 -8 21t-20 9h-96q-11 0 -23 -8q-11 -9 -11 -22v-434q0 -68 -27 -105t-99 -37q-66 0 -99 39q-34 39 -34 103v434q0 13 -10 22q-11 8 -23 8h-97q-12 0 -20 -9t-8 -21v-432q0 -68 20 -119q21 -50 59 -84q37 -34 91 -51q53 -18 117 -18
q63 0 116 16q53 15 92 47q38 31 60 80q21 49 21 116v0zM495 819l-2 4l-129 117q-4 4 -11 5q-8 2 -16 3t-16 1h-14q-10 0 -25 -1q-16 -1 -24 -8q-7 -7 -27 -24q-20 -18 -41 -38q-22 -20 -40 -37q-19 -17 -22 -22q0 -4 7 -5h10h42q7 0 18 2t16 7l80 77q4 4 11 4q6 0 10 -4
l79 -77q5 -5 16 -7t18 -2h43h10q7 1 7 5v0z" />
    <glyph glyph-name="acute" unicode="&#xb4;" horiz-adv-x="982" 
d="M932 699q0 11 -7 16q-6 5 -15 5h-76q-12 0 -23 -8q-11 -9 -14 -21l-127 -465l-3 -6q-1 -5 -3 -5t-4 5q-1 5 -1 7q-25 117 -47 233q-23 115 -51 231q-3 11 -7 20q-5 9 -19 9h-110q-12 0 -23 -8q-11 -9 -13 -21l-92 -464q-1 -2 -2 -7q-2 -5 -4 -5t-3 5q-1 4 -2 6
q-21 75 -42 149q-21 73 -40 149l-14 56q-6 28 -14 56q-4 15 -7 31t-8 30q-3 10 -9 17q-6 6 -18 6h-91q-9 0 -16 -5q-6 -5 -6 -16q0 -3 4 -19t9 -34t10 -35l5 -20l54 -186l54 -186l35 -120q5 -16 9 -33q4 -16 9 -31q5 -13 16 -21q10 -8 23 -8h82q12 0 23 8t13 21l103 498
q1 2 3 8q1 5 3 5t4 -5q2 -6 2 -8l101 -498q2 -13 13 -21q10 -8 23 -8h87q13 0 23 8t15 21q5 15 9 31q4 17 9 33l35 120q27 93 53 186q27 93 53 186q1 4 6 20q5 17 10 35t9 34t4 19v0zM624 820l-1 2q-1 1 -1 2l-106 116q-7 8 -21 8q-14 1 -25 1q-8 0 -21 -1t-19 -8l-104 -116
q-1 -1 -1 -4q0 -4 5 -5h7h35q6 0 15 2q10 2 14 7l64 76q3 4 9 4q4 0 9 -4l64 -76q5 -5 13 -7q9 -2 15 -2h36h7q6 1 6 5v0z" />
    <glyph glyph-name="uni00B5" unicode="&#xb5;" horiz-adv-x="729" 
d="M644 705q0 8 -5 12q-6 3 -13 3h-106q-12 0 -24 -8t-18 -19l-127 -257l-4 -8q-3 -3 -8 -3t-8 3q-3 4 -5 8l-136 257q-6 11 -19 19q-12 8 -24 8h-108q-7 0 -13 -3q-5 -4 -5 -12q0 -7 3 -11l222 -393q6 -11 10 -27q4 -15 4 -28v-210q0 -13 9 -21q9 -9 21 -9h92q12 0 21 9
q9 8 9 21v208q0 14 4 29q4 16 10 27l215 394q3 4 3 11v0zM488 821q0 1 -1 1v2l-106 116q-7 8 -22 8q-16 1 -25 1q-8 0 -20 -1q-13 -1 -19 -8l-104 -116q-1 -1 -1 -2q-1 -1 -1 -2q0 -4 5 -5h8h34q6 0 15 2q8 2 13 7l66 76q4 4 8 4q6 0 9 -4l64 -76q4 -5 13 -7t16 -2h35h8
q5 1 5 6v0z" />
    <glyph glyph-name="paragraph" unicode="&#xb6;" horiz-adv-x="401" 
d="M269 36v470q0 12 -9 21q-9 8 -21 8h-83q-12 0 -21 -8q-9 -9 -9 -21v-470q0 -13 9 -21q9 -9 21 -9h83q12 0 21 9q9 8 9 21v0zM386 631l-2 4l-129 117q-4 4 -11 5q-7 2 -15 3q-9 1 -17 1h-13q-10 0 -26 -1q-15 -1 -23 -8l-127 -117l-2 -4q0 -4 6 -5t9 -1h42q8 0 19 2
q11 3 16 8l80 77q4 4 10 4t10 -4l79 -77q5 -5 16 -8q11 -2 19 -2h43q3 0 10 1q6 1 6 5v0z" />
    <glyph glyph-name="periodcentered" unicode="&#xb7;" horiz-adv-x="616" 
d="M506 38v470q0 12 -9 21q-8 8 -21 8h-82q-12 0 -20 -8q-9 -9 -9 -21v-117q1 -58 1 -116q0 -22 -1 -51q0 -29 -8 -49q-13 -30 -42 -47q-29 -18 -61 -18q-31 0 -48 10q-18 10 -28 26t-12 39q-3 23 -3 48v275q0 12 -9 21q-8 8 -21 8h-83q-12 0 -21 -8q-8 -9 -8 -21v-307
q0 -47 9 -85q10 -37 32 -65q22 -27 57 -41q35 -15 86 -15q39 0 75 10q37 10 64 40q9 8 15 17t12 19q0 -10 -1 -22q0 -12 2 -24t8 -19q6 -8 21 -8h75q13 0 21 9q9 8 9 21v0zM446 640l-1 2q-12 13 -25 25q-14 12 -27 23q-19 17 -38 35l-40 36q-10 8 -27 8q-17 1 -30 1
q-10 0 -25 -1t-23 -8l-128 -117l-2 -4q0 -4 7 -5q6 -1 10 -1h40q9 0 20 2q11 3 16 8l80 77q4 4 10 4q7 0 11 -4l77 -77q6 -5 16 -8q11 -2 19 -2h44q3 0 10 1q6 1 6 5v0z" />
    <glyph glyph-name="cedilla" unicode="&#xb8;" horiz-adv-x="859" 
d="M776 516q0 9 -6 15q-7 6 -16 6h-78q-12 0 -22 -9q-11 -9 -14 -20l-82 -312q-1 -3 -2 -7q-2 -5 -5 -5t-4 5q-1 4 -2 7l-69 312q-2 12 -12 21q-11 8 -23 8h-85q-13 0 -23 -8q-11 -9 -13 -21l-66 -313q0 -2 -1 -6q-2 -5 -4 -5q-3 0 -5 5q-1 4 -2 6l-82 313q-3 11 -13 20
q-11 9 -23 9h-81q-22 0 -22 -20q0 -5 2 -14l4 -18l6 -18q2 -9 4 -15l34 -115q21 -76 42 -151q20 -74 44 -149q4 -12 15 -21q11 -8 24 -8h87q12 0 22 8q11 9 14 21l72 318q1 2 3 8q2 5 4 5t3 -5q2 -6 3 -8l72 -318q3 -12 14 -21q10 -8 22 -8h87q17 0 25 9q9 10 14 24l14 42
q11 37 26 89q16 52 32 111q17 59 32 110l25 85q9 35 9 38v0zM549 639l-1 2q-1 1 -1 2l-105 116q-8 8 -22 8q-14 1 -24 1q-9 0 -21 -1q-13 -1 -19 -8l-105 -116q-1 -1 -1 -2q-1 -1 -1 -2q0 -4 6 -5h7h35q6 0 15 2q8 2 13 7l65 76q4 4 9 4q6 0 9 -4l63 -76q4 -5 14 -7
q9 -2 15 -2h36h7q6 1 6 5v0z" />
    <glyph glyph-name="uni00B9" unicode="&#xb9;" horiz-adv-x="634" 
d="M541 518q0 9 -7 14q-6 5 -15 5h-90q-12 0 -23 -9q-10 -8 -15 -20l-97 -322q-1 -2 -2 -7q-2 -4 -6 -4t-6 4q-1 5 -2 7l-98 322q-4 13 -15 21t-23 8h-99q-22 0 -22 -20q0 -2 2 -9q3 -7 6 -16t6 -17t4 -11l162 -443q3 -9 5 -19q2 -9 2 -19q0 -21 -13 -45q-13 -23 -36 -29
q-5 -2 -10 -2h-11h-16t-15 -2q-6 -3 -10 -8q-5 -6 -5 -17v-54q0 -9 9 -19t18 -11q5 -1 11 -1h12h22q10 1 22 1q31 0 54 9q23 10 40 28q17 17 30 40q12 24 21 51l209 584q1 3 1 10v0zM427 640v1q-1 1 -1 2l-105 116q-7 8 -23 8q-15 1 -24 1t-21 -1t-18 -8l-105 -116
q-1 -1 -1 -2q-1 -1 -1 -2q0 -4 6 -5h8h33q7 0 15 2q9 2 14 7l66 76q4 4 8 4q6 0 9 -4l63 -76q5 -5 14 -7t15 -2h36h8q4 1 4 6v0z" />
    <glyph glyph-name="ordmasculine" unicode="&#xba;" horiz-adv-x="477" 
d="M278 579q0 -40 -18 -68t-63 -28t-64 27q-19 28 -19 69q0 39 20 68q20 30 63 30q46 0 63 -28q18 -28 18 -70v0zM367 309v40q0 12 -9 21q-10 9 -22 9h-284q-12 0 -21 -9q-8 -9 -8 -21v-40q0 -12 8 -21q9 -9 21 -9h284q12 0 22 9q9 9 9 21v0zM371 579q0 80 -48 124t-126 44
q-57 0 -101 -25t-64 -80q-11 -31 -11 -63q0 -29 9 -55q19 -58 63 -85t104 -27q38 0 70 12q32 11 55 32q23 22 36 53q13 30 13 70v0z" />
    <glyph glyph-name="guillemotright" unicode="&#xbb;" horiz-adv-x="435" 
d="M154 308q0 8 -1 20q-1 13 -8 19l-115 103l1 1q-1 0 -3 1h-2l4 -1v-1q-2 -2 -6 -4q-3 -2 -3 -6v-35q0 -6 2 -15t7 -14l76 -64q4 -3 4 -9q0 -4 -4 -8l-76 -65q-5 -5 -7 -13t-2 -15v-35v-8q1 -6 5 -6q1 0 18 15t38 34q21 20 39 37q19 17 24 22q8 8 8 22q1 15 1 25v0z
M322 308q0 9 -1 20q-1 12 -9 19l-115 104q-1 1 -4 1q-4 0 -5 -5v-7v-35q0 -6 2 -15t7 -14l76 -64q4 -3 4 -9q0 -4 -4 -8l-76 -65q-5 -5 -7 -13t-2 -15v-35v-8q1 -6 5 -6q1 0 18 15q18 15 38 34q21 20 39 37t24 22q8 8 9 22t1 25v0z" />
    <glyph glyph-name="onequarter" unicode="&#xbc;" horiz-adv-x="759" 
d="M554 293v-42t-1 -41v-20q0 -9 -1 -19q-1 -6 -4 -11q-4 -4 -11 -4h-60q-3 0 -6 1q-3 2 -3 6q0 2 11 21t25 42q13 23 26 43q13 21 16 26l2 2q1 2 3 2t3 -2v-4v0zM177 417v324q0 6 -4 11q-4 4 -10 4h-29q-10 0 -17 -9q-7 -8 -17 -19q-11 -11 -27 -20q-16 -10 -44 -13
q-8 -2 -8 -7q0 -6 -1 -9v-9q0 -8 2 -16q3 -8 13 -8h56q7 0 11 -4q5 -4 5 -11v-214q0 -14 14 -14h42q14 0 14 14v0zM598 710q0 7 -4 10q-5 3 -12 4q-6 2 -13 2q-7 1 -11 1q-14 0 -27 -5t-21 -18l-429 -640q-4 -5 -4 -13q0 -6 5 -10q4 -3 11 -5q7 -1 13 -1h11q13 0 26 5
q13 6 21 17l430 640q4 5 4 13v0zM663 133q0 15 -7 19t-14 4q-8 1 -15 2q-6 2 -6 13v190q0 15 -15 15h-48q-6 0 -13 -4q-7 -3 -10 -9l-117 -188q-6 -11 -8 -23q-1 -12 -1 -24q0 -8 2 -18q3 -9 14 -9h112q11 0 14 -7q2 -8 2 -16t-1 -16t-1 -16t3 -15q2 -8 13 -8h39q15 0 15 15
v49q0 9 6 11t14 3q7 1 14 3t7 13v8q1 4 1 8v0z" />
    <glyph glyph-name="onehalf" unicode="&#xbd;" horiz-adv-x="781" 
d="M177 417v324q0 6 -4 11q-4 4 -10 4h-29q-10 0 -17 -9q-7 -8 -17 -19q-11 -11 -27 -20q-16 -10 -44 -13q-8 -2 -8 -7q0 -6 -1 -9v-9q0 -8 2 -16q3 -8 13 -8h56q7 0 11 -4q5 -4 5 -11v-214q0 -14 14 -14h42q14 0 14 14v0zM598 710q0 7 -4 10q-5 3 -12 4q-6 2 -13 2
q-7 1 -11 1q-14 0 -27 -6q-13 -5 -21 -17l-429 -640q-4 -5 -4 -13q0 -6 5 -10q4 -3 11 -5q7 -1 13 -1h11q13 0 26 5q13 6 21 17l430 640q4 5 4 13v0zM678 58q0 8 -2 17q-3 9 -14 9h-127q-8 0 -8 6t11 15q11 8 28 19q16 11 35 25q20 14 36 31q17 16 28 37t11 47q0 28 -10 49
t-28 35q-17 13 -40 21q-23 7 -49 7q-57 0 -86 -36q-29 -35 -29 -89h55q5 0 9 1q4 2 6 7t2 10q-1 5 0 10q8 38 49 38q22 0 36 -14t14 -36q0 -36 -29 -59q-24 -20 -49 -37q-26 -17 -48 -37q-21 -20 -35 -45q-14 -26 -14 -61q0 -5 6 -5h226q13 0 15 13q1 13 1 22v0z" />
    <glyph glyph-name="threequarters" unicode="&#xbe;" horiz-adv-x="779" 
d="M574 293q0 -21 -1 -42v-41v-20q1 -9 0 -19q-1 -6 -5 -11q-4 -4 -11 -4h-59q-3 0 -6 1q-3 2 -3 6q0 2 10 21q11 19 25 42t27 43q12 21 16 26l2 2q1 2 3 2t2 -3v-3v0zM267 504q0 30 -12 53t-42 33q27 14 34 34t7 46q0 23 -11 40q-11 16 -29 27q-17 11 -38 15q-21 5 -40 5
q-23 0 -43 -8q-20 -9 -35 -23q-16 -14 -24 -34q-9 -20 -9 -43q0 -7 5 -7h46q14 0 15 11q2 10 5 19q5 14 18 21t28 7q26 0 35 -16q8 -16 8 -39q0 -13 -8 -20q-8 -8 -18 -12q-11 -3 -23 -4t-21 -1v-36v-9q0 -6 2 -6h4q2 1 4 1q27 0 48 -12t21 -41q0 -22 -14 -39t-37 -17
q-26 0 -41 14q-14 13 -14 40q0 3 -2 6t-6 3h-46q-13 0 -13 -14q0 -24 9 -44q9 -19 26 -33q16 -14 37 -21t45 -7q25 0 49 7q23 7 41 21q17 14 28 35t11 48v0zM619 710q0 7 -5 10q-4 3 -11 4q-7 2 -13 2q-7 1 -11 1q-14 0 -27 -5t-21 -18l-430 -640q-4 -5 -4 -13q0 -6 4 -10
q5 -3 12 -5q6 -1 13 -1h11q14 0 26 5q13 6 21 17l430 640q5 7 5 13v0zM682 133q0 8 -2 16q-3 7 -13 7q-9 0 -18 1q-8 2 -8 14v190q0 7 -4 11q-5 4 -11 4h-48q-6 0 -13 -4q-7 -3 -10 -9l-116 -188q-7 -11 -8 -23q-2 -12 -2 -24q0 -8 3 -18q2 -9 14 -9h111q11 0 13 -7
q3 -7 3 -15t-1 -16t-1 -16t2 -16q3 -8 14 -8h39q6 0 11 5q4 4 4 10v49q0 10 6 12q7 2 14 3q8 0 14 2t6 13q0 4 1 8v8v0z" />
    <glyph glyph-name="questiondown" unicode="&#xbf;" horiz-adv-x="592" 
d="M523 12q0 17 -16 17h-96q-13 0 -23 -8q-11 -9 -14 -21q-2 -8 -2 -15q-1 -6 -5 -14q-12 -28 -41 -41q-29 -14 -58 -14q-41 0 -68 23q-26 24 -26 66q0 25 8 43q9 18 23 33q14 14 31 26q16 13 33 27q20 18 34 35q13 16 21 35q8 18 12 40q3 21 3 49q0 8 -5 15q-6 6 -14 6h-85
q-10 0 -21 -9t-11 -20v-19t-3 -17q-4 -14 -19 -26q-15 -13 -35 -28q-20 -14 -42 -31q-22 -18 -40 -39q-18 -22 -31 -49q-12 -27 -12 -62q0 -57 21 -98t57 -67q37 -26 84 -38t99 -12q72 0 131 29q60 29 90 98q20 44 20 86v0zM344 406v84q0 12 -9 21t-21 9h-89q-13 0 -21 -9
q-9 -9 -9 -21v-84q0 -12 9 -21q8 -9 21 -9h89q12 0 21 9t9 21v0z" />
    <glyph glyph-name="Agrave" unicode="&#xc0;" 
d="M441 295q0 -10 -7 -15q-6 -5 -15 -5h-126q-8 0 -15 5t-7 15q0 2 5 19t13 41q7 24 16 52q10 28 18 54q9 25 16 45q6 19 8 25l4 8q3 4 7 4t6 -5q2 -4 3 -8q2 -6 8 -25q6 -20 14 -45q9 -25 18 -53q9 -27 16 -51t12 -41q6 -17 6 -20v0zM696 24q0 3 -13 41q-13 37 -33 93
t-44 121q-23 65 -45 124q-21 59 -37 102q-16 44 -20 56l-31 86q-4 11 -7 23q-4 11 -9 22t-16 20q-11 8 -24 8h-117q-12 0 -23 -8q-12 -9 -17 -20l-238 -659q-1 -3 -1 -9q0 -9 6 -14q6 -4 14 -4h101q17 0 28 11q10 10 17 27q6 16 10 35q5 19 11 35q6 17 17 27q10 11 28 11
h209q17 0 27 -11q10 -10 16 -27q6 -16 10 -35t10 -35q6 -17 15 -27q10 -11 28 -11h106q8 0 15 4q7 5 7 14v0zM407 813q0 4 -4 12l-54 96q-6 11 -20 18q-13 7 -26 7h-94q-4 0 -10 -2q-5 -1 -5 -6q0 -6 6 -14l94 -103q8 -9 24 -16q15 -6 27 -6h44q7 0 12 3q6 3 6 11v0z" />
    <glyph glyph-name="Aacute" unicode="&#xc1;" 
d="M441 295q0 -10 -7 -15q-6 -5 -15 -5h-126q-8 0 -15 5t-7 15q0 2 5 19t13 41q7 24 16 52q10 28 18 54q9 25 16 45q6 19 8 25l4 8q3 4 7 4t6 -5q2 -4 3 -8q2 -6 8 -25q6 -20 14 -45q9 -25 18 -53q9 -27 16 -51t12 -41q6 -17 6 -20v0zM696 24q0 3 -13 41q-13 37 -33 93
t-44 121q-23 65 -45 124q-21 59 -37 102q-16 44 -20 56l-31 86q-4 11 -7 23q-4 11 -9 22t-16 20q-11 8 -24 8h-117q-12 0 -23 -8q-12 -9 -17 -20l-238 -659q-1 -3 -1 -9q0 -9 6 -14q6 -4 14 -4h101q17 0 28 11q10 10 17 27q6 16 10 35q5 19 11 35q6 17 17 27q10 11 28 11
h209q17 0 27 -11q10 -10 16 -27q6 -16 10 -35t10 -35q6 -17 15 -27q10 -11 28 -11h106q8 0 15 4q7 5 7 14v0zM527 938q0 5 -6 6q-6 2 -10 2h-94q-12 0 -26 -7t-20 -18l-53 -96q-4 -8 -4 -12q0 -8 5 -11q6 -3 12 -3h44q12 0 28 6q15 7 23 16l94 103q7 8 7 14v0z" />
    <glyph glyph-name="Acircumflex" unicode="&#xc2;" 
d="M441 295q0 -10 -7 -15q-6 -5 -15 -5h-126q-8 0 -15 5t-7 15q0 2 5 19t13 41q7 24 16 52q10 28 18 54q9 25 16 45q6 19 8 25l4 8q3 4 7 4t6 -5q2 -4 3 -8q2 -6 8 -25q6 -20 14 -45q9 -25 18 -53q9 -27 16 -51t12 -41q6 -17 6 -20v0zM696 24q0 3 -13 41q-13 37 -33 93
t-44 121q-23 65 -45 124q-21 59 -37 102q-16 44 -20 56l-31 86q-4 11 -7 23q-4 11 -9 22t-16 20q-11 8 -24 8h-117q-12 0 -23 -8q-12 -9 -17 -20l-238 -659q-1 -3 -1 -9q0 -9 6 -14q6 -4 14 -4h101q17 0 28 11q10 10 17 27q6 16 10 35q5 19 11 35q6 17 17 27q10 11 28 11
h209q17 0 27 -11q10 -10 16 -27q6 -16 10 -35t10 -35q6 -17 15 -27q10 -11 28 -11h106q8 0 15 4q7 5 7 14v0zM504 820l-1 2q-1 1 -1 2l-105 116q-8 8 -22 8q-14 1 -25 1q-8 0 -21 -1q-12 -1 -18 -8l-105 -116q-1 -1 -1 -4q0 -4 5 -5h7h35q6 0 16 2q9 2 13 7l64 76q3 4 10 4
q4 0 8 -4l64 -76q5 -5 14 -7q8 -2 14 -2h36h7q6 1 6 5v0z" />
    <glyph glyph-name="Atilde" unicode="&#xc3;" 
d="M441 295q0 -10 -7 -15q-6 -5 -15 -5h-126q-8 0 -15 5t-7 15q0 2 5 19t13 41q7 24 16 52q10 28 18 54q9 25 16 45q6 19 8 25l4 8q3 4 7 4t6 -5q2 -4 3 -8q2 -6 8 -25q6 -20 14 -45q9 -25 18 -53q9 -27 16 -51t12 -41q6 -17 6 -20v0zM696 24q0 3 -13 41q-13 37 -33 93
t-44 121q-23 65 -45 124q-21 59 -37 102q-16 44 -20 56l-31 86q-4 11 -7 23q-4 11 -9 22t-16 20q-11 8 -24 8h-117q-12 0 -23 -8q-12 -9 -17 -20l-238 -659q-1 -3 -1 -9q0 -9 6 -14q6 -4 14 -4h101q17 0 28 11q10 10 17 27q6 16 10 35q5 19 11 35q6 17 17 27q10 11 28 11
h209q17 0 27 -11q10 -10 16 -27q6 -16 10 -35t10 -35q6 -17 15 -27q10 -11 28 -11h106q8 0 15 4q7 5 7 14v0zM516 859q0 3 -2 12l-6 18q-4 9 -8 16q-4 6 -8 6q-3 0 -8 -6q-6 -7 -13 -15q-8 -7 -18 -14t-24 -7q-20 0 -38 8t-35 17q-18 9 -37 17q-19 7 -41 7q-26 0 -46 -12
q-21 -12 -35 -34l-4 -8t-2 -9q0 -3 2 -11q3 -7 7 -16q4 -8 8 -15q3 -6 6 -6t9 6t14 13t17 14q9 6 21 6q19 0 38 -8l38 -16q19 -9 38 -17q20 -7 40 -7q27 0 48 15q21 14 35 35q4 5 4 11v0z" />
    <glyph glyph-name="Adieresis" unicode="&#xc4;" 
d="M441 295q0 -10 -7 -15q-6 -5 -15 -5h-126q-8 0 -15 5t-7 15q0 2 5 19t13 41q7 24 16 52q10 28 18 54q9 25 16 45q6 19 8 25l4 8q3 4 7 4t6 -5q2 -4 3 -8q2 -6 8 -25q6 -20 14 -45q9 -25 18 -53q9 -27 16 -51t12 -41q6 -17 6 -20v0zM696 24q0 3 -13 41q-13 37 -33 93
t-44 121q-23 65 -45 124q-21 59 -37 102q-16 44 -20 56l-31 86q-4 11 -7 23q-4 11 -9 22t-16 20q-11 8 -24 8h-117q-12 0 -23 -8q-12 -9 -17 -20l-238 -659q-1 -3 -1 -9q0 -9 6 -14q6 -4 14 -4h101q17 0 28 11q10 10 17 27q6 16 10 35q5 19 11 35q6 17 17 27q10 11 28 11
h209q17 0 27 -11q10 -10 16 -27q6 -16 10 -35t10 -35q6 -17 15 -27q10 -11 28 -11h106q8 0 15 4q7 5 7 14v0zM320 844v71q0 12 -9 21t-21 9h-83q-12 0 -21 -9q-10 -9 -10 -21v-71q0 -12 10 -21q9 -8 21 -8h83q12 0 21 8q9 9 9 21v0zM536 844v71q0 12 -9 21t-21 9h-83
q-12 0 -21 -9q-10 -9 -10 -21v-71q0 -12 10 -21q9 -8 21 -8h83q12 0 21 8q9 9 9 21v0z" />
    <glyph glyph-name="Aring" unicode="&#xc5;" 
d="M441 295q0 -10 -7 -15q-6 -5 -15 -5h-126q-8 0 -15 5t-7 15q0 2 5 19t13 41q7 24 16 52q10 28 18 54q9 25 16 45q6 19 8 25l4 8q3 4 7 4t6 -5q2 -4 3 -8q2 -6 8 -25q6 -20 14 -45q9 -25 18 -53q9 -27 16 -51t12 -41q6 -17 6 -20v0zM402 903q0 -22 -11 -36
q-10 -15 -33 -15q-24 0 -34 15q-10 14 -10 36q0 20 10 36q10 15 34 15q23 0 33 -14q11 -14 11 -37v0zM696 24q0 3 -13 41q-13 37 -33 93t-43 121q-24 65 -45 124q-22 59 -38 102q-16 44 -20 56l-30 86q-5 11 -8 23q-4 11 -9 22t-16 20q-10 8 -24 8h-116q-13 0 -24 -8
q-11 -9 -16 -20l-239 -659q-1 -3 -1 -9q0 -9 6 -14q6 -4 14 -4h101q17 0 28 11q11 10 17 27q6 16 11 35q4 19 10 35q7 17 17 27q10 11 28 11h209q18 0 27 -11q10 -10 16 -27q6 -16 11 -35q4 -19 9 -35q6 -17 16 -27q9 -11 27 -11h106q8 0 15 4q7 5 7 14v0zM451 903
q0 43 -26 66t-67 23q-40 0 -67 -23q-28 -24 -28 -66t28 -66q27 -23 67 -23q42 0 67 23q26 23 26 66v0z" />
    <glyph glyph-name="AE" unicode="&#xc6;" horiz-adv-x="1092" 
d="M459 269h-166q-8 0 -15 5q-6 5 -6 15q0 3 5 20t13 40q7 24 16 51q10 28 18 53t15 45q6 19 9 26q1 3 3 7t7 4h50q25 -1 51 -1v-265v0zM1016 27v67q0 13 -11 20q-11 6 -23 6h-344q-13 0 -22 11q-9 10 -9 23v127q0 12 10 20q9 8 21 8h277q12 0 22 9q9 10 9 22v65q0 13 -9 23
q-10 10 -22 10h-277q-11 0 -21 8t-10 20v90q0 12 10 22q9 10 21 10h328q12 0 21 8t9 20v67q0 11 -9 22q-8 12 -21 12h-666q-13 0 -24 -9q-11 -10 -16 -21t-18 -46q-12 -35 -30 -84q-18 -48 -39 -106t-43 -117q-21 -60 -41 -116q-20 -55 -35 -99q-16 -43 -25 -71
q-9 -27 -9 -29q0 -9 6 -14q7 -4 15 -4h102q12 0 23 7q10 8 16 19l32 88q5 11 16 18t23 7h206v-113q0 -12 10 -19q9 -7 21 -7h492q12 0 23 6q11 7 11 20v0z" />
    <glyph glyph-name="Ccedilla" unicode="&#xc7;" horiz-adv-x="750" 
d="M670 234q0 4 -2 8t-7 4h-132q-9 0 -12 -8q-5 -12 -7 -22q-3 -10 -8 -22q-23 -45 -60 -64q-38 -19 -87 -19t-83 22t-56 57q-21 35 -31 78q-11 43 -11 84q0 45 11 90q10 45 32 81q23 36 59 58q37 23 89 23q43 0 78 -17q34 -16 56 -55q3 -5 6 -14q3 -8 7 -17q3 -8 8 -14
q5 -7 11 -7h125q14 0 14 13q0 12 -4 29q-4 16 -11 33q-8 16 -16 31t-15 24q-49 63 -117 94q-68 30 -148 30q-66 0 -130 -24q-65 -23 -111 -71q-56 -59 -77 -131q-20 -72 -20 -151q0 -75 18 -141q19 -66 56 -116q37 -49 96 -80q58 -32 138 -37q-3 -5 -9 -11q-5 -6 -11 -13
q-5 -7 -8 -15q-4 -7 -4 -13q0 -11 9 -14t17 -3h15q9 1 15 -1q11 -4 17 -13q7 -8 7 -20q0 -9 -5 -15t-13 -9q-8 -4 -16 -5t-15 -1q-14 0 -29 5q-14 4 -28 4q-11 0 -17 -6q-7 -7 -7 -17q0 -8 6 -13q6 -6 15 -9t18 -4t15 -1h26q13 -1 27 -1q43 0 70 22q27 21 27 67q0 27 -13 37
q-14 10 -30 14q-16 5 -29 8q-13 4 -13 18q0 5 1 8q74 2 141 35t111 93q17 24 28 51q12 27 19 56q1 4 2 9q2 4 2 8v0z" />
    <glyph glyph-name="Egrave" unicode="&#xc8;" horiz-adv-x="650" 
d="M573 35v67q0 12 -9 21t-21 9h-344q-12 0 -21 8q-9 9 -9 21v128q0 12 9 21q9 8 21 8h276q13 0 21 9q9 9 9 21v66q0 12 -9 21q-8 8 -21 8h-276q-12 0 -21 9t-9 21v91q0 12 9 21t21 9h328q12 0 21 8q8 9 8 21v67q0 12 -8 21q-9 9 -21 9h-477q-12 0 -21 -9q-8 -9 -8 -21v-655
q0 -12 8 -21q9 -8 21 -8h493q12 0 21 8q9 9 9 21v0zM360 813q0 4 -4 12l-53 96q-5 10 -20 18q-15 7 -27 7h-94q-4 0 -9 -2q-5 -1 -5 -6q0 -6 6 -14l94 -103q8 -9 23 -16q15 -6 27 -6h44q6 0 12 3t6 11v0z" />
    <glyph glyph-name="Eacute" unicode="&#xc9;" horiz-adv-x="650" 
d="M573 35v67q0 12 -9 21t-21 9h-344q-12 0 -21 8q-9 9 -9 21v128q0 12 9 21q9 8 21 8h276q13 0 21 9q9 9 9 21v66q0 12 -9 21q-8 8 -21 8h-276q-12 0 -21 9t-9 21v91q0 12 9 21t21 9h328q12 0 21 8q8 9 8 21v67q0 12 -8 21q-9 9 -21 9h-477q-12 0 -21 -9q-8 -9 -8 -21v-655
q0 -12 8 -21q9 -8 21 -8h493q12 0 21 8q9 9 9 21v0zM439 938q0 5 -6 6q-6 2 -10 2h-94q-11 0 -26 -7q-15 -8 -20 -18l-53 -96q-4 -8 -4 -12q0 -8 5 -11q6 -3 12 -3h44q12 0 28 6q15 7 23 16l94 103q7 8 7 14v0z" />
    <glyph glyph-name="Ecircumflex" unicode="&#xca;" horiz-adv-x="650" 
d="M573 35v67q0 12 -9 21t-21 9h-344q-12 0 -21 8q-9 9 -9 21v128q0 12 9 21q9 8 21 8h276q13 0 21 9q9 9 9 21v66q0 12 -9 21q-8 8 -21 8h-276q-12 0 -21 9t-9 21v91q0 12 9 21t21 9h328q12 0 21 8q8 9 8 21v67q0 12 -8 21q-9 9 -21 9h-477q-12 0 -21 -9q-8 -9 -8 -21v-655
q0 -12 8 -21q9 -8 21 -8h493q12 0 21 8q9 9 9 21v0zM438 821l-2 2q-1 1 -1 2l-105 116q-7 8 -22 8q-14 1 -24 1q-8 0 -21 -1t-19 -8l-104 -116q-2 -1 -2 -2q-1 -1 -1 -2q0 -4 6 -5h8h35q6 0 14 2t13 7l66 76q3 4 9 4q4 0 8 -4l65 -76q5 -5 13 -7t14 -2h36h8q6 1 6 5v0z" />
    <glyph glyph-name="Edieresis" unicode="&#xcb;" horiz-adv-x="650" 
d="M573 35v67q0 12 -9 21t-21 9h-344q-12 0 -21 8q-9 9 -9 21v128q0 12 9 21q9 8 21 8h276q13 0 21 9q9 9 9 21v66q0 12 -9 21q-8 8 -21 8h-276q-12 0 -21 9t-9 21v91q0 12 9 21t21 9h328q12 0 21 8q8 9 8 21v67q0 12 -8 21q-9 9 -21 9h-477q-12 0 -21 -9q-8 -9 -8 -21v-655
q0 -12 8 -21q9 -8 21 -8h493q12 0 21 8q9 9 9 21v0zM250 844v71q0 12 -9 21q-8 9 -21 9h-83q-12 0 -21 -9q-8 -9 -8 -21v-71q0 -12 8 -21q9 -8 21 -8h83q13 0 21 8q9 9 9 21v0zM466 844v71q0 12 -9 21q-8 9 -21 9h-82q-13 0 -21 -9q-9 -9 -9 -21v-71q0 -12 9 -21q8 -8 21 -8
h82q13 0 21 8q9 9 9 21v0z" />
    <glyph glyph-name="Igrave" unicode="&#xcc;" horiz-adv-x="379" 
d="M262 36v654q0 12 -8 21q-9 9 -21 9h-93q-13 0 -22 -9t-9 -21v-654q0 -13 9 -21q9 -9 22 -9h93q12 0 21 9q8 8 8 21v0zM233 813q0 4 -4 12l-53 96q-6 11 -20 18t-27 7h-94q-4 0 -9 -2q-5 -1 -5 -6q0 -6 6 -14l93 -103q8 -9 24 -16q15 -6 27 -6h44q4 0 11 5q7 4 7 9v0z" />
    <glyph glyph-name="Iacute" unicode="&#xcd;" horiz-adv-x="290" 
d="M173 36v654q0 12 -8 21q-9 9 -21 9h-94q-12 0 -21 -9q-8 -9 -8 -21v-654q0 -13 8 -21q9 -9 21 -9h94q12 0 21 9q8 8 8 21v0zM258 938q0 5 -5 6q-5 2 -9 2h-94q-13 0 -27 -7t-20 -18l-53 -96q-4 -8 -4 -12q0 -8 6 -11t12 -3h43q12 0 27 6q16 7 24 16l94 103q6 8 6 14v0z
" />
    <glyph glyph-name="Icircumflex" unicode="&#xce;" horiz-adv-x="358" 
d="M242 36v654q0 12 -9 21q-8 9 -21 9h-93q-12 0 -21 -9t-9 -21v-654q0 -13 9 -21q9 -9 21 -9h93q13 0 21 9q9 8 9 21v0zM320 820l-1 2q-1 1 -1 2l-106 116q-7 8 -21 8q-15 1 -25 1q-8 0 -21 -1t-19 -8l-104 -116q-1 -1 -1 -4q0 -4 5 -5h7h35q6 0 15 2t14 7l64 76q3 4 9 4
q4 0 8 -4l65 -76q5 -5 13 -7t15 -2h35h8q6 1 6 5v0z" />
    <glyph glyph-name="Idieresis" unicode="&#xcf;" horiz-adv-x="395" 
d="M279 36v654q0 12 -9 21t-21 9h-93q-12 0 -22 -9q-9 -9 -9 -21v-654q0 -13 9 -21q10 -9 22 -9h93q12 0 21 9q9 8 9 21v0zM163 844v71q0 12 -9 21q-8 9 -21 9h-83q-12 0 -21 -9q-8 -9 -8 -21v-71q0 -12 8 -21q9 -8 21 -8h83q13 0 21 8q9 9 9 21v0zM379 844v71q0 12 -9 21
q-8 9 -21 9h-83q-12 0 -20 -9q-9 -9 -9 -21v-71q0 -12 9 -21q8 -8 20 -8h83q13 0 21 8q9 9 9 21v0z" />
    <glyph glyph-name="Eth" unicode="&#xd0;" horiz-adv-x="876" 
d="M616 377q0 -33 -6 -66t-18 -63q-13 -31 -33 -57q-20 -25 -49 -44q-13 -8 -28 -14q-15 -5 -30 -5h-121q-12 0 -21 8q-9 9 -9 21v181h88q13 0 22 8q9 9 9 21v53q0 12 -9 21q-9 8 -22 8h-88v117q0 12 9 21t21 9h120q43 0 74 -21q31 -20 51 -52t30 -71t10 -75v0zM770 392
q0 36 -7 76q-8 40 -23 78q-16 38 -39 70q-23 33 -54 55q-37 26 -81 37q-44 12 -90 12h-293q-13 0 -21 -9q-9 -9 -9 -21v-241h-103q-12 0 -21 -8q-8 -9 -8 -21v-53q0 -12 8 -21q9 -8 21 -8h103v-303q0 -12 9 -21q8 -8 21 -8h284q84 0 142 33q58 32 94 87q36 54 51 124
q16 69 16 142v0z" />
    <glyph glyph-name="Ntilde" unicode="&#xd1;" horiz-adv-x="730" 
d="M614 36v654q0 12 -9 21t-21 9h-82q-12 0 -21 -9t-9 -21v-437v-9q-1 -5 -6 -5q-4 0 -6 3q-3 4 -5 7l-259 445q-7 11 -19 18q-11 8 -25 8h-102q-12 0 -21 -9q-8 -9 -8 -21v-654q0 -13 8 -21q9 -9 21 -9h83q13 0 21 9q9 8 9 21v448q0 3 1 9q1 5 5 5q3 0 6 -4t5 -6l267 -457
q7 -11 19 -18t26 -7h92q12 0 21 9q9 8 9 21v0zM497 869q0 3 -3 12q-2 8 -6 17q-3 9 -8 16q-5 6 -8 6q-4 0 -9 -6q-5 -7 -12 -15q-7 -7 -18 -14q-10 -6 -23 -6q-21 0 -39 8q-17 8 -35 17q-17 9 -36 17q-19 7 -42 7q-24 0 -47 -13q-22 -12 -35 -34q-5 -8 -5 -17q0 -3 3 -11
q2 -7 6 -16q4 -8 7 -15q4 -6 7 -6t8 6l14 14l18 14q10 6 21 6q20 0 39 -8l38 -16q18 -9 38 -17q19 -7 40 -7q26 0 47 15q20 14 35 35q2 3 3 5q2 2 2 6v0z" />
    <glyph glyph-name="Ograve" unicode="&#xd2;" horiz-adv-x="835" 
d="M579 380q0 -51 -10 -99t-34 -85q-24 -38 -63 -61q-40 -23 -98 -23q-57 0 -96 24q-39 23 -63 61q-23 38 -34 86q-11 47 -11 97q0 43 15 84q14 42 41 74q26 33 64 53t84 20q9 0 18 -1q10 -1 18 -3q42 -8 74 -30q31 -21 52 -51q21 -31 32 -68t11 -78v0zM729 351
q0 87 -21 158q-22 71 -65 123q-44 51 -111 79t-158 28q-90 0 -157 -28q-66 -29 -110 -80q-43 -52 -65 -123q-21 -71 -21 -157q0 -113 48 -200q48 -88 154 -134q36 -14 74 -23q38 -8 77 -8t78 8q40 9 76 23q106 46 154 134q47 88 47 200v0zM407 813q0 4 -4 12l-54 96
q-6 11 -20 18q-13 7 -26 7h-94q-4 0 -10 -2q-5 -1 -5 -6q0 -6 6 -14l94 -103q8 -9 24 -16q15 -6 27 -6h44q7 0 12 3q6 3 6 11v0z" />
    <glyph glyph-name="Oacute" unicode="&#xd3;" horiz-adv-x="835" 
d="M579 380q0 -51 -10 -99t-34 -85q-24 -38 -63 -61q-40 -23 -98 -23q-57 0 -96 24q-39 23 -63 61q-23 38 -34 86q-11 47 -11 97q0 43 15 84q14 42 41 74q26 33 64 53t84 20q9 0 18 -1q10 -1 18 -3q42 -8 74 -30q31 -21 52 -51q21 -31 32 -68t11 -78v0zM729 351
q0 87 -21 158q-22 71 -65 123q-44 51 -111 79t-158 28q-90 0 -157 -28q-66 -29 -110 -80q-43 -52 -65 -123q-21 -71 -21 -157q0 -113 48 -200q48 -88 154 -134q36 -14 74 -23q38 -8 77 -8t78 8q40 9 76 23q106 46 154 134q47 88 47 200v0zM540 938q0 5 -5 6q-5 2 -9 2h-95
q-11 0 -26 -7q-16 -8 -21 -18l-52 -96q-4 -8 -4 -12q0 -8 6 -11q5 -3 11 -3h44q13 0 28 6q14 7 23 16l94 103q6 8 6 14v0z" />
    <glyph glyph-name="Ocircumflex" unicode="&#xd4;" horiz-adv-x="835" 
d="M579 380q0 -51 -10 -99t-34 -85q-24 -38 -63 -61q-40 -23 -98 -23q-57 0 -96 24q-39 23 -63 61q-23 38 -34 86q-11 47 -11 97q0 43 15 84q14 42 41 74q26 33 64 53t84 20q9 0 18 -1q10 -1 18 -3q42 -8 74 -30q31 -21 52 -51q21 -31 32 -68t11 -78v0zM729 351
q0 87 -21 158q-22 71 -65 123q-44 51 -111 79t-158 28q-90 0 -157 -28q-66 -29 -110 -80q-43 -52 -65 -123q-21 -71 -21 -157q0 -113 48 -200q48 -88 154 -134q36 -14 74 -23q38 -8 77 -8t78 8q40 9 76 23q106 46 154 134q47 88 47 200v0zM529 820l-1 2q-1 1 -1 2l-106 116
q-7 8 -21 8q-15 1 -25 1q-8 0 -21 -1t-19 -8l-104 -116q-1 -1 -1 -2q-1 -1 -1 -2q0 -4 5 -5h8h34q6 0 15 2q8 2 13 7l66 76q4 4 8 4q6 0 9 -4l64 -76q4 -5 13 -7t15 -2h36h8q6 1 6 5v0z" />
    <glyph glyph-name="Otilde" unicode="&#xd5;" horiz-adv-x="835" 
d="M579 380q0 -51 -10 -99t-34 -85q-24 -38 -63 -61q-40 -23 -98 -23q-57 0 -96 24q-39 23 -63 61q-23 38 -34 86q-11 47 -11 97q0 43 15 84q14 42 41 74q26 33 64 53t84 20q9 0 18 -1q10 -1 18 -3q42 -8 74 -30q31 -21 52 -51q21 -31 32 -68t11 -78v0zM729 351
q0 87 -21 158q-22 71 -65 123q-44 51 -111 79t-158 28q-90 0 -157 -28q-66 -29 -110 -80q-43 -52 -65 -123q-21 -71 -21 -157q0 -113 48 -200q48 -88 154 -134q36 -14 74 -23q38 -8 77 -8t78 8q40 9 76 23q106 46 154 134q47 88 47 200v0zM546 869q0 4 -2 12t-6 17
q-3 9 -8 16q-4 6 -9 6q-3 0 -8 -6q-5 -7 -12 -15q-7 -7 -17 -14q-11 -6 -24 -6q-20 0 -38 8t-36 17t-37 17q-19 7 -42 7q-25 0 -46 -13q-20 -13 -34 -34q-2 -4 -5 -8q-2 -4 -2 -9q0 -3 3 -11q3 -7 7 -16q4 -8 8 -15q4 -6 6 -6q3 0 9 6q5 6 13 14l18 14q10 6 21 6q20 0 39 -8
l38 -16q19 -9 38 -17q20 -7 40 -7q26 0 47 15q21 14 35 35q4 5 4 11v0z" />
    <glyph glyph-name="Odieresis" unicode="&#xd6;" horiz-adv-x="835" 
d="M579 380q0 -51 -10 -99t-34 -85q-24 -38 -63 -61q-40 -23 -98 -23q-57 0 -96 24q-39 23 -63 61q-23 38 -34 86q-11 47 -11 97q0 43 15 84q14 42 41 74q26 33 64 53t84 20q9 0 18 -1q10 -1 18 -3q42 -8 74 -30q31 -21 52 -51q21 -31 32 -68t11 -78v0zM729 351
q0 87 -21 158q-22 71 -65 123q-44 51 -111 79t-158 28q-90 0 -157 -28q-66 -29 -110 -80q-43 -52 -65 -123q-21 -71 -21 -157q0 -113 48 -200q48 -88 154 -134q36 -14 74 -23q38 -8 77 -8t78 8q40 9 76 23q106 46 154 134q47 88 47 200v0zM339 844v71q0 12 -9 21q-8 9 -20 9
h-83q-13 0 -21 -9q-9 -9 -9 -21v-71q0 -12 9 -21q8 -8 21 -8h83q12 0 20 8q9 9 9 21v0zM555 844v71q0 12 -8 21q-9 9 -21 9h-83q-13 0 -21 -9q-9 -9 -9 -21v-71q0 -12 9 -21q8 -8 21 -8h83q12 0 21 8q8 9 8 21v0z" />
    <glyph glyph-name="multiply" unicode="&#xd7;" horiz-adv-x="546" 
d="M438 510q0 13 -10 21l-37 36q-9 9 -20 9q-12 0 -22 -9l-99 -98q-8 -8 -20 -8q-14 0 -22 8l-96 96q-9 9 -21 9t-21 -9l-38 -39q-8 -8 -8 -20q0 -14 8 -22l96 -96q9 -9 9 -21t-9 -21l-99 -99q-8 -9 -8 -21q0 -13 8 -21l37 -36q8 -8 21 -8t21 8l99 98q9 9 22 9q11 0 20 -9
l96 -96q9 -8 22 -8q12 0 20 8l38 39q9 9 9 21q0 11 -9 21l-96 96q-8 8 -8 22q0 12 8 20l99 98q10 8 10 22v0z" />
    <glyph glyph-name="Oslash" unicode="&#xd8;" horiz-adv-x="857" 
d="M593 380q0 -51 -9 -99q-10 -48 -34 -85q-23 -38 -63 -61q-39 -23 -98 -23q-32 0 -64 9q-32 10 -57 31l311 318q14 -45 14 -90v0zM522 561l-314 -319q-12 32 -18 67q-5 35 -5 71q0 17 2 34q3 17 8 34q17 60 55 102q38 43 101 56q20 5 39 5q34 0 70 -13q35 -13 62 -37v0z
M789 702q0 10 -5 19q-5 10 -14 19q-9 8 -19 14q-9 6 -19 6q-16 0 -28 -13l-80 -82q-49 40 -111 57q-61 17 -123 17q-91 0 -157 -28q-67 -29 -111 -80q-44 -52 -65 -123q-22 -71 -22 -157q0 -59 15 -116q14 -57 49 -106l-63 -65q-11 -13 -11 -29q0 -9 5 -19q5 -9 13 -18
q9 -9 18 -14q10 -6 19 -6q17 0 29 12l63 64q48 -33 104 -50q56 -18 113 -18q78 0 149 28q108 45 157 134q49 88 49 203q0 60 -12 121q-11 60 -40 114l85 87q12 14 12 29v0z" />
    <glyph glyph-name="Ugrave" unicode="&#xd9;" horiz-adv-x="711" 
d="M597 245v223q-1 110 -1 222q0 12 -8 21t-20 9h-96q-11 0 -23 -8q-11 -9 -11 -22v-434q0 -68 -27 -105t-99 -37q-66 0 -99 39q-34 39 -34 103v434q0 13 -10 22q-11 8 -23 8h-97q-12 0 -20 -9t-8 -21v-432q0 -68 20 -119q21 -50 59 -84q37 -34 91 -51q53 -18 117 -18
q63 0 116 16q53 15 92 47q38 31 60 80q21 49 21 116v0zM389 813q0 4 -4 12l-53 96q-6 11 -20 18t-26 7h-94q-4 0 -10 -2q-6 -1 -6 -6q0 -6 7 -14l94 -103q8 -9 23 -16q16 -6 28 -6h44q6 0 12 3q5 3 5 11v0z" />
    <glyph glyph-name="Uacute" unicode="&#xda;" horiz-adv-x="711" 
d="M597 245v223q-1 110 -1 222q0 12 -8 21t-20 9h-96q-11 0 -23 -8q-11 -9 -11 -22v-434q0 -68 -27 -105t-99 -37q-66 0 -99 39q-34 39 -34 103v434q0 13 -10 22q-11 8 -23 8h-97q-12 0 -20 -9t-8 -21v-432q0 -68 20 -119q21 -50 59 -84q37 -34 91 -51q53 -18 117 -18
q63 0 116 16q53 15 92 47q38 31 60 80q21 49 21 116v0zM439 938q0 5 -6 6q-6 2 -10 2h-94q-11 0 -26 -7q-15 -8 -20 -18l-53 -96q-4 -8 -4 -12q0 -8 5 -11q6 -3 12 -3h44q12 0 28 6q15 7 23 16l94 103q7 8 7 14v0z" />
    <glyph glyph-name="Ucircumflex" unicode="&#xdb;" horiz-adv-x="711" 
d="M597 245v223q-1 110 -1 222q0 12 -8 21t-20 9h-96q-11 0 -23 -8q-11 -9 -11 -22v-434q0 -68 -27 -105t-99 -37q-66 0 -99 39q-34 39 -34 103v434q0 13 -10 22q-11 8 -23 8h-97q-12 0 -20 -9t-8 -21v-432q0 -68 20 -119q21 -50 59 -84q37 -34 91 -51q53 -18 117 -18
q63 0 116 16q53 15 92 47q38 31 60 80q21 49 21 116v0zM461 820l-1 2q-1 1 -1 2l-105 116q-8 8 -22 8q-14 1 -25 1q-8 0 -21 -1q-12 -1 -18 -8l-105 -116q-1 -1 -1 -2q-1 -1 -1 -2q0 -4 6 -5h7h35q6 0 14 2q9 2 14 7l65 76q3 4 10 4q4 0 8 -4l64 -76q5 -5 14 -7q8 -2 14 -2
h36h7q6 1 6 5v0z" />
    <glyph glyph-name="Udieresis" unicode="&#xdc;" horiz-adv-x="711" 
d="M597 245v223q-1 110 -1 222q0 12 -8 21t-20 9h-96q-11 0 -23 -8q-11 -9 -11 -22v-434q0 -68 -27 -105t-99 -37q-66 0 -99 39q-34 39 -34 103v434q0 13 -10 22q-11 8 -23 8h-97q-12 0 -20 -9t-8 -21v-432q0 -68 20 -119q21 -50 59 -84q37 -34 91 -51q53 -18 117 -18
q63 0 116 16q53 15 92 47q38 31 60 80q21 49 21 116v0zM280 844v71q0 12 -9 21t-21 9h-83q-12 0 -21 -9q-10 -9 -10 -21v-71q0 -12 10 -21q9 -8 21 -8h83q12 0 21 8q9 9 9 21v0zM496 844v71q0 12 -9 21t-21 9h-84q-12 0 -21 -9q-8 -9 -8 -21v-71q0 -12 8 -21q9 -8 21 -8h84
q12 0 21 8q9 9 9 21v0z" />
    <glyph glyph-name="Yacute" unicode="&#xdd;" horiz-adv-x="729" 
d="M644 705q0 8 -5 12q-6 3 -13 3h-106q-12 0 -24 -8t-18 -19l-126 -257q-3 -4 -5 -8q-3 -3 -8 -3t-8 3q-3 4 -5 8l-136 257q-6 11 -19 19q-12 8 -24 8h-108q-7 0 -13 -3q-5 -4 -5 -12q0 -7 3 -11l222 -393q6 -11 10 -27q4 -15 4 -28v-210q0 -13 9 -21q9 -9 21 -9h92
q13 0 21 9q9 8 9 21v208q0 14 4 29q4 16 10 27l215 394q3 4 3 11v0zM468 938q0 5 -5 6q-5 2 -9 2h-95q-12 0 -26 -7q-15 -8 -20 -18l-53 -96q-2 -3 -3 -6q-2 -2 -2 -6q0 -8 6 -11q7 -3 13 -3h43q12 0 27 6q16 7 24 16l94 103q6 8 6 14v0z" />
    <glyph glyph-name="Thorn" unicode="&#xde;" horiz-adv-x="644" 
d="M413 414q0 -55 -27 -78q-27 -24 -82 -24h-108q-11 0 -22 7q-10 8 -10 20v146q0 12 10 22t22 10h107q53 0 81 -24q29 -23 29 -79v0zM560 415q0 101 -57 159q-58 59 -159 59h-180v101q0 11 -7 20q-7 8 -20 8h-91q-12 0 -19 -8q-6 -9 -6 -20v-707q0 -11 6 -20q7 -8 19 -8h91
q13 0 20 8q7 9 7 20v136q0 12 10 19q11 7 22 7h143q110 0 166 59q55 59 55 167v0z" />
    <glyph glyph-name="germandbls" unicode="&#xdf;" horiz-adv-x="648" 
d="M544 244q0 36 -13 76q-13 39 -40 64q-5 4 -15 10l-20 12q-9 6 -17 14q-7 7 -7 14q0 6 12 16q11 11 24 27q13 17 25 42q11 24 11 59q0 33 -11 65q-12 31 -33 56q-22 26 -45 40q-24 14 -49 22q-26 7 -54 8q-28 2 -60 2q-62 0 -119 -27q-41 -20 -64 -51q-23 -30 -33 -66
q-11 -35 -13 -76q-2 -40 -2 -80q0 -48 1 -95t3 -95q2 -59 2 -118q1 -60 4 -119q1 -29 10 -37q9 -7 38 -7h68h13q6 1 11 6q1 1 2 11q1 9 2 21v21v13q0 109 -4 215q-5 106 -5 214q0 20 1 39q1 20 5 39q8 35 36 54q27 20 61 20q40 0 68 -25q27 -24 27 -66q0 -35 -19 -57
t-52 -31q-10 -3 -28 -5q-18 -1 -25 -8q-7 -5 -9 -11q-1 -7 -1 -15v-9q1 -5 1 -10q1 -11 2 -19q1 -7 4 -12t10 -8t20 -3q7 0 12 1q6 1 12 1q25 0 44 -12t33 -32q14 -19 21 -43q7 -23 7 -45q0 -24 -10 -46q-10 -21 -27 -37q-17 -17 -39 -27q-23 -9 -46 -9q-21 0 -33 -4
q-11 -3 -11 -29v-46q1 -17 8 -25q7 -9 22 -12q15 -2 44 -2q25 0 48 2q24 2 48 12q32 15 59 38q27 24 45 53q19 29 30 63q10 34 10 69v0z" />
    <glyph glyph-name="agrave" unicode="&#xe0;" horiz-adv-x="618" 
d="M356 224q0 -12 -1 -32q0 -19 -6 -31q-13 -34 -48 -52q-35 -17 -69 -17q-29 0 -49 14t-20 45q0 26 10 41q11 15 27 24q17 9 39 13l42 8q21 3 41 8q19 5 33 17q1 -9 1 -19v-19v0zM525 14q0 7 -5 13t-11 15q-6 8 -11 21q-4 13 -4 36v267q0 56 -17 91t-47 56q-29 20 -70 28
t-90 8q-34 0 -68 -5q-33 -5 -62 -18t-52 -36q-23 -22 -36 -57q-3 -8 -7 -24t-4 -24q0 -6 4 -14q3 -9 12 -9h100q10 0 15 6q4 6 7 14t7 18t12 18q9 8 25 14q16 5 43 5q18 0 34 -2q16 -3 27 -11q12 -7 19 -21q8 -13 8 -33q0 -11 -6 -17q-5 -7 -12 -11q-8 -4 -17 -7
q-8 -2 -17 -3q-20 -3 -41 -5l-42 -6q-40 -5 -75 -16q-36 -11 -64 -32q-28 -20 -43 -52q-16 -31 -16 -77q0 -38 13 -66t36 -47t54 -29t67 -10q51 0 92 20q42 19 76 56q0 -9 3 -27q4 -18 8 -26q5 -9 15 -9h128q12 0 12 8v0zM360 627q0 4 -4 12l-53 96q-5 10 -20 18
q-15 7 -27 7h-94q-4 0 -9 -2q-5 -1 -5 -6q0 -7 6 -13l94 -104q8 -9 23 -15t27 -6h44q6 0 12 3q6 2 6 10v0z" />
    <glyph glyph-name="aacute" unicode="&#xe1;" horiz-adv-x="620" 
d="M356 224q0 -12 -1 -32q0 -19 -6 -31q-13 -34 -48 -52q-35 -17 -69 -17q-29 0 -49 14t-20 45q0 26 10 41q11 15 27 24q17 9 39 13l42 8q21 3 41 8q19 5 33 17q1 -9 1 -19v-19v0zM525 14q0 7 -5 13t-11 15q-6 8 -11 21q-4 13 -4 36v267q0 56 -17 91t-47 56q-29 20 -70 28
t-90 8q-34 0 -68 -5q-33 -5 -62 -18t-52 -36q-23 -22 -36 -57q-3 -8 -7 -24t-4 -24q0 -6 4 -14q3 -9 12 -9h100q10 0 15 6q4 6 7 14t7 18t12 18q9 8 25 14q16 5 43 5q18 0 34 -2q16 -3 27 -11q12 -7 19 -21q8 -13 8 -33q0 -11 -6 -17q-5 -7 -12 -11q-8 -4 -17 -7
q-8 -2 -17 -3q-20 -3 -41 -5l-42 -6q-40 -5 -75 -16q-36 -11 -64 -32q-28 -20 -43 -52q-16 -31 -16 -77q0 -38 13 -66t36 -47t54 -29t67 -10q51 0 92 20q42 19 76 56q0 -9 3 -27q4 -18 8 -26q5 -9 15 -9h128q12 0 12 8v0zM421 752q0 5 -6 6q-5 2 -9 2h-94q-13 0 -27 -7
q-13 -7 -20 -18l-53 -96q-4 -8 -4 -12q0 -8 6 -10q5 -3 12 -3h44q12 0 27 6q16 6 24 15l94 104q6 6 6 13v0z" />
    <glyph glyph-name="acircumflex" unicode="&#xe2;" horiz-adv-x="620" 
d="M356 224q0 -12 -1 -32q0 -19 -6 -31q-13 -34 -48 -52q-35 -17 -69 -17q-29 0 -49 14t-20 45q0 26 10 41q11 15 27 24q17 9 39 13l42 8q21 3 41 8q19 5 33 17q1 -9 1 -19v-19v0zM525 14q0 7 -5 13t-11 15q-6 8 -11 21q-4 13 -4 36v267q0 56 -17 91t-47 56q-29 20 -70 28
t-90 8q-34 0 -68 -5q-33 -5 -62 -18t-52 -36q-23 -22 -36 -57q-3 -8 -7 -24t-4 -24q0 -6 4 -14q3 -9 12 -9h100q10 0 15 6q4 6 7 14t7 18t12 18q9 8 25 14q16 5 43 5q18 0 34 -2q16 -3 27 -11q12 -7 19 -21q8 -13 8 -33q0 -11 -6 -17q-5 -7 -12 -11q-8 -4 -17 -7
q-8 -2 -17 -3q-20 -3 -41 -5l-42 -6q-40 -5 -75 -16q-36 -11 -64 -32q-28 -20 -43 -52q-16 -31 -16 -77q0 -38 13 -66t36 -47t54 -29t67 -10q51 0 92 20q42 19 76 56q0 -9 3 -27q4 -18 8 -26q5 -9 15 -9h128q12 0 12 8v0zM420 639l-1 2q-1 1 -1 2l-105 116q-8 8 -22 8
q-14 1 -25 1q-8 0 -21 -1q-12 -1 -18 -8l-105 -116q-1 -1 -1 -2q-1 -1 -1 -2q0 -4 6 -5h7h35q6 0 15 2q8 2 13 7l65 76q3 4 10 4q4 0 8 -4l64 -76q5 -5 14 -7q8 -2 14 -2h36h7q6 1 6 5v0z" />
    <glyph glyph-name="atilde" unicode="&#xe3;" horiz-adv-x="618" 
d="M356 224q0 -12 -1 -32q0 -19 -6 -31q-13 -34 -48 -52q-35 -17 -69 -17q-29 0 -49 14t-20 45q0 26 10 41q11 15 27 24q17 9 39 13l42 8q21 3 41 8q19 5 33 17q1 -9 1 -19v-19v0zM525 14q0 7 -5 13t-11 15q-6 8 -11 21q-4 13 -4 36v267q0 56 -17 91t-47 56q-29 20 -70 28
t-90 8q-34 0 -68 -5q-33 -5 -62 -18t-52 -36q-23 -22 -36 -57q-3 -8 -7 -24t-4 -24q0 -6 4 -14q3 -9 12 -9h100q10 0 15 6q4 6 7 14t7 18t12 18q9 8 25 14q16 5 43 5q18 0 34 -2q16 -3 27 -11q12 -7 19 -21q8 -13 8 -33q0 -11 -6 -17q-5 -7 -12 -11q-8 -4 -17 -7
q-8 -2 -17 -3q-20 -3 -41 -5l-42 -6q-40 -5 -75 -16q-36 -11 -64 -32q-28 -20 -43 -52q-16 -31 -16 -77q0 -38 13 -66t36 -47t54 -29t67 -10q51 0 92 20q42 19 76 56q0 -9 3 -27q4 -18 8 -26q5 -9 15 -9h128q12 0 12 8v0zM436 703q0 3 -2 12l-6 18q-4 9 -8 16t-8 7
q-3 0 -8 -7t-13 -15q-8 -7 -18 -14t-24 -7q-20 0 -38 8t-35 17q-18 9 -37 17t-41 8q-25 0 -47 -13q-23 -12 -35 -33q-5 -8 -5 -18q0 -3 2 -10q3 -8 6 -17q3 -8 7 -15q4 -6 7 -6q4 0 10 6q6 7 13 14q8 7 18 13t21 6q19 0 38 -7q19 -8 38 -17t38 -17q20 -7 40 -7q27 0 48 15
q20 15 34 35q2 3 4 5q1 2 1 6v0z" />
    <glyph glyph-name="adieresis" unicode="&#xe4;" horiz-adv-x="623" 
d="M356 224q0 -12 -1 -32q0 -19 -6 -31q-13 -34 -48 -52q-35 -17 -69 -17q-29 0 -49 14t-20 45q0 26 10 41q11 15 27 24q17 9 39 13l42 8q21 3 41 8q19 5 33 17q1 -9 1 -19v-19v0zM525 14q0 7 -5 13t-11 15q-6 8 -11 21q-4 13 -4 36v267q0 56 -17 91t-47 56q-29 20 -70 28
t-90 8q-34 0 -68 -5q-33 -5 -62 -18t-52 -36q-23 -22 -36 -57q-3 -8 -7 -24t-4 -24q0 -6 4 -14q3 -9 12 -9h100q10 0 15 6q4 6 7 14t7 18t12 18q9 8 25 14q16 5 43 5q18 0 34 -2q16 -3 27 -11q12 -7 19 -21q8 -13 8 -33q0 -11 -6 -17q-5 -7 -12 -11q-8 -4 -17 -7
q-8 -2 -17 -3q-20 -3 -41 -5l-42 -6q-40 -5 -75 -16q-36 -11 -64 -32q-28 -20 -43 -52q-16 -31 -16 -77q0 -38 13 -66t36 -47t54 -29t67 -10q51 0 92 20q42 19 76 56q0 -9 3 -27q4 -18 8 -26q5 -9 15 -9h128q12 0 12 8v0zM232 651v71q0 12 -9 21q-9 8 -21 8h-83
q-12 0 -21 -8q-9 -9 -9 -21v-71q0 -12 9 -22q9 -9 21 -9h83q12 0 21 9q9 10 9 22v0zM448 651v71q0 12 -9 21q-9 8 -21 8h-83q-12 0 -21 -8q-10 -9 -10 -21v-71q0 -12 10 -22q9 -9 21 -9h83q12 0 21 9q9 10 9 22v0z" />
    <glyph glyph-name="aring" unicode="&#xe5;" horiz-adv-x="620" 
d="M356 224q0 -12 -1 -32q0 -19 -6 -31q-13 -34 -48 -52q-35 -17 -69 -17q-29 0 -49 14t-20 45q0 26 10 41q11 15 27 24q17 9 39 13l42 8q21 3 41 8q19 5 33 17q1 -9 1 -19v-19v0zM312 701q0 -21 -11 -36q-10 -15 -33 -15q-24 0 -34 15q-11 15 -11 36t11 36q10 16 34 16
t34 -15q10 -14 10 -37v0zM525 14q0 7 -5 13t-11 15q-6 8 -11 21q-4 13 -4 36v267q0 56 -17 91t-47 56q-29 20 -70 28t-90 8q-34 0 -68 -5q-33 -5 -62 -18t-52 -36q-23 -22 -36 -57q-3 -8 -7 -24t-4 -24q0 -6 4 -14q3 -9 12 -9h100q10 0 15 6q4 6 7 14t7 18t12 18q9 8 25 14
q16 5 43 5q18 0 34 -2q16 -3 27 -11q12 -7 19 -21q8 -13 8 -33q0 -11 -6 -17q-5 -7 -12 -11q-8 -4 -17 -7q-8 -2 -17 -3q-20 -3 -41 -5l-42 -6q-40 -5 -75 -16q-36 -11 -64 -32q-28 -20 -43 -52q-16 -31 -16 -77q0 -38 13 -66t36 -47t54 -29t67 -10q51 0 92 20q42 19 76 56
q0 -9 3 -27q4 -18 8 -26q5 -9 15 -9h128q12 0 12 8v0zM361 701q0 43 -26 67q-25 23 -67 23q-41 0 -68 -24q-26 -24 -26 -66t26 -65q27 -24 68 -24q42 0 67 23q26 23 26 66v0z" />
    <glyph glyph-name="ae" unicode="&#xe6;" horiz-adv-x="983" 
d="M370 229q0 -13 -1 -35q-1 -21 -5 -33q-13 -34 -48 -52q-34 -17 -70 -17q-29 0 -49 14t-20 45q0 38 22 55q22 16 53 23t63 12q33 4 53 20l2 -16v-16v0zM465 95q-2 -4 -4 -5q0 5 2 5h2v0zM733 321h-197q-8 0 -15 5q-6 6 -6 14q0 2 1 4q1 3 2 5q3 8 5 17t8 17q14 23 40 38
q26 14 53 14q52 0 79 -33q26 -32 30 -81v0zM880 246q0 14 -1 27q-1 12 -1 27q0 89 -42 148q-42 60 -127 86q-21 7 -42 11t-43 4q-43 0 -84 -13q-42 -13 -77 -37q-17 16 -38 26q-22 9 -46 15q-24 5 -48 7t-47 2q-34 0 -67 -5t-62 -18t-52 -36q-24 -22 -36 -57q-3 -8 -7 -24
t-4 -24q0 -6 4 -14q3 -9 11 -9h101q10 0 14 6q5 6 8 14t7 18q3 10 12 18t25 14q16 5 43 5q18 0 33 -2q16 -3 28 -11q12 -7 19 -21q7 -13 7 -34q0 -10 -5 -16q-5 -7 -13 -11q-7 -4 -16 -7q-9 -2 -17 -3q-21 -4 -42 -6t-41 -5q-40 -5 -76 -16t-64 -32q-27 -20 -43 -52
q-16 -31 -16 -77q0 -38 13 -66t36 -47q24 -19 54 -29q31 -10 67 -10q51 0 93 20q41 19 75 56q0 -3 3 0l3 3q8 7 14 14q7 8 15 15q35 -62 92 -85q56 -23 124 -23q38 0 74 7q37 8 68 24t56 42t41 63q2 4 3 8t1 9q0 11 -10 13q-9 2 -17 2h-83q-15 0 -24 -8q-10 -7 -19 -19
q-16 -18 -41 -24t-49 -6q-27 0 -48 10q-22 9 -37 26q-14 16 -23 39q-8 22 -8 48v7h342q5 0 17 2q13 2 13 11v0z" />
    <glyph glyph-name="ccedilla" unicode="&#xe7;" horiz-adv-x="617" 
d="M368 -109q0 27 -14 37q-13 10 -29 14t-29 7q-13 4 -13 16q0 5 1 9q2 4 2 10t-5 7q-4 2 -9 2q-9 -4 -13 -5t-10 -10q-4 -5 -10 -11q-5 -7 -11 -15q-6 -7 -9 -15q-4 -7 -4 -13q0 -11 8 -14q9 -3 18 -3h15q6 1 15 -1q11 -2 17 -12q7 -9 7 -20q0 -9 -5 -15q-5 -7 -13 -10
t-17 -4q-9 -2 -16 -2q-14 0 -28 5q-13 4 -27 4q-11 0 -17 -6q-7 -6 -7 -16q0 -11 11 -17q12 -6 26 -8q15 -3 30 -3q15 -1 22 -1h22q10 -1 21 1q35 5 53 31t18 58v0zM526 178q0 19 -17 19h-94q-13 0 -19 -4q-7 -5 -11 -12q-4 -6 -7 -15t-7 -16q-13 -20 -36 -32
q-23 -11 -47 -11q-35 0 -56 15q-22 15 -33 38q-11 24 -15 53t-4 57q0 26 5 54t17 52t33 39q21 16 53 16q21 0 37 -4q15 -4 26 -13q11 -8 19 -22q8 -13 15 -33q2 -4 5 -9q3 -4 8 -4h104q11 0 18 7q6 7 6 18v3q-9 68 -51 107q-43 39 -106 56q-42 12 -81 12q-65 0 -112 -20
q-48 -20 -79 -57q-31 -36 -46 -87q-16 -50 -16 -112q0 -63 14 -115t45 -88q30 -37 78 -57t116 -20q74 0 131 31q58 31 90 99q2 4 5 11l6 16q2 8 4 15q2 8 2 13v0z" />
    <glyph glyph-name="egrave" unicode="&#xe8;" horiz-adv-x="645" 
d="M402 321h-198q-8 0 -14 5q-6 6 -6 14q0 3 2 9q2 8 5 17t8 17q14 23 40 38q27 14 53 14q52 0 79 -33q27 -32 31 -81v0zM547 246q0 14 -1 27q-1 12 -1 27q0 88 -42 148t-127 86q-20 7 -41 11t-43 4q-53 0 -100 -19q-81 -29 -119 -92q-38 -62 -38 -146q0 -67 14 -122
q13 -54 43 -94q29 -39 79 -61q49 -22 121 -22q80 0 142 30q61 30 96 106l4 8q1 3 1 8q0 11 -9 14q-9 2 -17 2h-83q-17 0 -26 -10q-9 -9 -21 -20q-12 -10 -31 -19t-56 -9q-27 0 -49 10q-22 11 -37 29t-23 41q-7 24 -7 50h342q5 0 17 2t12 11v0zM375 627q0 4 -1 6l-4 6l-52 96
q-5 10 -20 18q-15 7 -26 7h-95q-4 0 -9 -2q-5 -1 -5 -6q0 -7 6 -13l94 -104q8 -9 23 -15q16 -6 28 -6h43q6 0 12 3q6 2 6 10v0z" />
    <glyph glyph-name="eacute" unicode="&#xe9;" horiz-adv-x="631" 
d="M386 321h-196q-8 0 -15 5q-6 6 -6 14q0 3 2 9q2 8 5 17t9 17q14 23 40 38q26 14 53 14q52 0 78 -33q26 -32 30 -81v0zM533 246q0 14 -1 27q-1 12 -1 27q0 88 -42 148t-127 86q-21 7 -42 11t-42 4q-53 0 -101 -19q-80 -29 -118 -92q-38 -62 -38 -146q0 -67 13 -122
q13 -54 43 -94q30 -39 79 -61t122 -22q80 0 141 30q62 30 96 106l4 8q1 3 1 8q0 11 -10 14q-10 2 -17 2h-82q-17 0 -26 -10q-9 -9 -21 -20q-11 -10 -30 -19t-56 -9q-28 0 -50 10q-22 11 -37 29t-22 41q-8 24 -8 50h342q5 0 17 2q13 2 13 11v0zM421 752q0 5 -6 6q-5 2 -9 2
h-94q-13 0 -27 -7q-13 -7 -20 -18l-53 -96q-4 -8 -4 -12q0 -8 6 -10q5 -3 12 -3h44q12 0 27 6q16 6 24 15l94 104q6 6 6 13v0z" />
    <glyph glyph-name="ecircumflex" unicode="&#xea;" horiz-adv-x="645" 
d="M402 321h-198q-8 0 -14 5q-6 6 -6 14q0 3 2 9q2 8 5 17t8 17q14 23 40 38q27 14 53 14q52 0 79 -33q27 -32 31 -81v0zM547 246q0 14 -1 27q-1 12 -1 27q0 88 -42 148t-127 86q-20 7 -41 11t-43 4q-53 0 -100 -19q-81 -29 -119 -92q-38 -62 -38 -146q0 -67 14 -122
q13 -54 43 -94q29 -39 79 -61q49 -22 121 -22q80 0 142 30q61 30 96 106l4 8q1 3 1 8q0 11 -9 14q-9 2 -17 2h-83q-17 0 -26 -10q-9 -9 -21 -20q-12 -10 -31 -19t-56 -9q-27 0 -49 10q-22 11 -37 29t-23 41q-7 24 -7 50h342q5 0 17 2t12 11v0zM445 639l-1 2q-1 1 -1 2
l-106 116q-7 8 -21 8q-14 1 -25 1q-8 0 -21 -1q-12 -1 -19 -8l-104 -116q-1 -1 -1 -4q0 -4 5 -5h7h35q6 0 15 2q10 2 14 7l64 76q3 4 9 4q4 0 9 -4l64 -76q5 -5 13 -7q9 -2 15 -2h36h7q6 1 6 5v0z" />
    <glyph glyph-name="edieresis" unicode="&#xeb;" horiz-adv-x="633" 
d="M386 321h-196q-8 0 -15 5q-6 6 -6 14q0 3 2 9q2 8 5 17t9 17q14 23 40 38q26 14 53 14q52 0 78 -33q26 -32 30 -81v0zM533 246q0 14 -1 27q-1 12 -1 27q0 88 -42 148t-127 86q-21 7 -42 11t-42 4q-53 0 -101 -19q-80 -29 -118 -92q-38 -62 -38 -146q0 -67 13 -122
q13 -54 43 -94q30 -39 79 -61t122 -22q80 0 141 30q62 30 96 106l4 8q1 3 1 8q0 11 -10 14q-10 2 -17 2h-82q-17 0 -26 -10q-9 -9 -21 -20q-11 -10 -30 -19t-56 -9q-28 0 -50 10q-22 11 -37 29t-22 41q-8 24 -8 50h342q5 0 17 2q13 2 13 11v0zM240 651v71q0 12 -9 21
q-10 8 -22 8h-83q-12 0 -21 -8q-8 -9 -8 -21v-71q0 -12 8 -22q9 -9 21 -9h83q12 0 22 9q9 10 9 22v0zM456 651v71q0 12 -9 21q-9 8 -22 8h-83q-12 0 -21 -8q-8 -9 -8 -21v-71q0 -12 8 -22q9 -9 21 -9h83q13 0 22 9q9 10 9 22v0z" />
    <glyph glyph-name="igrave" unicode="&#xec;" horiz-adv-x="364" 
d="M247 36v470q0 12 -9 21q-8 8 -21 8h-84q-12 0 -21 -8q-8 -9 -8 -21v-470q0 -13 8 -21q9 -9 21 -9h84q13 0 21 9q9 8 9 21v0zM233 627q0 4 -5 12l-52 96q-5 10 -20 18q-16 7 -27 7h-94q-4 0 -9 -2q-6 -1 -6 -6q0 -7 7 -13l94 -104q8 -9 23 -15t27 -6h44q6 0 12 3q6 2 6 10
v0z" />
    <glyph glyph-name="iacute" unicode="&#xed;" horiz-adv-x="283" 
d="M163 36v470q0 12 -9 21q-8 8 -21 8h-83q-12 0 -21 -8q-8 -9 -8 -21v-470q0 -13 8 -21q9 -9 21 -9h83q13 0 21 9q9 8 9 21v0zM253 752q0 5 -5 6q-6 2 -10 2h-94q-13 0 -27 -7q-13 -7 -19 -18l-54 -96q-4 -8 -4 -12q0 -8 6 -10q5 -3 12 -3h44q12 0 27 6q16 6 24 15l94 104
q6 6 6 13v0z" />
    <glyph glyph-name="icircumflex" unicode="&#xee;" horiz-adv-x="366" 
d="M232 36v470q0 12 -9 21q-9 8 -21 8h-83q-12 0 -21 -8q-9 -9 -9 -21v-470q0 -13 9 -21q9 -9 21 -9h83q12 0 21 9q9 8 9 21v0zM320 639l-1 2q-1 1 -1 2l-106 116q-7 8 -21 8q-15 1 -25 1q-8 0 -21 -1t-19 -8l-105 -116q-1 -1 -1 -4q0 -4 6 -5h7h35q6 0 15 2t13 7l65 76
q3 4 9 4q4 0 8 -4l65 -76q5 -5 13 -7t14 -2h36h8q6 1 6 5v0z" />
    <glyph glyph-name="idieresis" unicode="&#xef;" horiz-adv-x="472" 
d="M264 36v470q0 12 -8 21q-9 8 -21 8h-83q-12 0 -21 -8q-9 -9 -9 -21v-470q0 -13 9 -21q9 -9 21 -9h83q12 0 21 9q8 8 8 21v0zM163 651v71q0 12 -9 21q-8 8 -21 8h-83q-12 0 -21 -8q-8 -9 -8 -21v-71q0 -12 8 -22q9 -9 21 -9h83q13 0 21 9q9 10 9 22v0zM379 651v71
q0 12 -9 21q-8 8 -21 8h-83q-12 0 -21 -8q-9 -9 -9 -21v-71q0 -12 9 -22q9 -9 21 -9h83q13 0 21 9q9 10 9 22v0z" />
    <glyph glyph-name="eth" unicode="&#xf0;" horiz-adv-x="675" 
d="M403 767l-7 15q-7 9 -20 1l-262 -153q-13 -8 -10 -16l7 -14q2 -4 8 -5q5 0 10 3l262 153q6 4 10 8q4 5 2 8v0zM426 272q0 -32 -6 -61t-21 -52q-15 -22 -39 -35q-25 -14 -62 -14t-62 14q-25 13 -40 35t-22 51t-7 62q0 31 7 60q8 29 23 52q16 22 41 36q25 13 60 13
q37 0 62 -13q25 -12 40 -35q14 -22 20 -51t6 -62v0zM573 272q0 24 -4 47q-3 23 -10 45q-27 97 -95 142q-67 45 -166 45q-93 0 -160 -43q-67 -42 -99 -132q-8 -24 -13 -51t-5 -53q0 -23 4 -47q4 -23 11 -46q30 -94 97 -139q68 -45 165 -45t164 43q68 44 96 138q15 48 15 96v0
zM520 450q0 1 -3 5q-3 5 -7 10t-8 9l-5 5q-12 16 -29 36q-16 21 -35 43q-19 23 -39 47q-19 24 -37 47q-44 54 -92 113q-7 9 -21 19q-13 9 -25 5l-78 -25q-5 -2 -10 -3q-5 0 -5 -5q0 -7 6 -13l277 -285q8 -9 23 -15q16 -6 28 -6h43q6 0 12 3q5 2 5 10v0z" />
    <glyph glyph-name="ntilde" unicode="&#xf1;" horiz-adv-x="610" 
d="M500 37v333q0 69 -28 112q-27 43 -97 61q-30 8 -55 8q-59 0 -96 -20t-67 -72v16q1 7 1 15q0 17 -5 32t-26 15h-77q-12 0 -21 -8q-8 -9 -8 -21v-471q0 -12 8 -21q9 -8 21 -8h83q13 0 21 8q9 9 9 21q0 70 1 138v138q0 37 15 67t51 45q18 8 38 8q43 0 66 -16q24 -16 24 -63
q0 -80 -1 -158v-159q0 -12 8 -21q9 -8 21 -8h84q13 0 21 8q9 9 9 21v0zM423 727q0 3 -2 11q-3 9 -7 18q-3 9 -7 16t-8 7q-5 0 -10 -7t-12 -14q-7 -8 -17 -14q-11 -6 -24 -6q-20 0 -38 7q-18 8 -36 17q-17 10 -36 18q-19 7 -41 7q-26 0 -47 -13q-20 -13 -34 -34l-4 -8t-2 -9
q0 -3 2 -11q3 -7 7 -16q4 -8 8 -15q4 -6 6 -6q3 0 9 6q5 6 14 13q8 7 17 14q9 6 21 6q19 0 38 -7q19 -8 38 -17t38 -17q20 -7 40 -7q27 0 48 15t35 35q4 5 4 11v0z" />
    <glyph glyph-name="ograve" unicode="&#xf2;" horiz-adv-x="675" 
d="M426 272q0 -32 -6 -61t-21 -52q-15 -22 -39 -35q-25 -14 -62 -14t-62 14q-25 13 -40 35t-22 51t-7 62q0 31 7 60q8 29 23 52q16 22 41 35q25 14 60 14q37 0 62 -13t40 -35q14 -22 20 -51t6 -62v0zM573 272q0 24 -4 47q-3 23 -10 45q-27 97 -95 142q-67 45 -166 45
q-93 0 -160 -43q-67 -42 -99 -132q-8 -24 -13 -51t-5 -53q0 -23 4 -47q4 -23 11 -46q30 -94 97 -139q68 -45 165 -45t164 43q68 44 96 138q15 48 15 96v0zM372 627q0 4 -4 12l-52 96q-6 10 -20 18q-15 7 -27 7h-95q-4 0 -9 -2q-5 -1 -5 -6q0 -7 6 -13l94 -104q8 -9 24 -15
q15 -6 27 -6h43q7 0 12 3q6 2 6 10v0z" />
    <glyph glyph-name="oacute" unicode="&#xf3;" horiz-adv-x="676" 
d="M426 272q0 -32 -6 -61t-21 -52q-15 -22 -39 -35q-25 -14 -62 -14t-62 14q-25 13 -40 35t-22 51t-7 62q0 31 7 60q8 29 23 52q16 22 41 35q25 14 60 14q37 0 62 -13t40 -35q14 -22 20 -51t6 -62v0zM573 272q0 24 -4 47q-3 23 -10 45q-27 97 -95 142q-67 45 -166 45
q-93 0 -160 -43q-67 -42 -99 -132q-8 -24 -13 -51t-5 -53q0 -23 4 -47q4 -23 11 -46q30 -94 97 -139q68 -45 165 -45t164 43q68 44 96 138q15 48 15 96v0zM465 752q0 5 -5 6q-5 2 -9 2h-94q-13 0 -27 -7t-20 -18l-53 -96q-4 -8 -4 -12q0 -8 6 -10q5 -3 12 -3h44q12 0 27 6
t23 15l94 104q6 6 6 13v0z" />
    <glyph glyph-name="ocircumflex" unicode="&#xf4;" horiz-adv-x="675" 
d="M426 272q0 -32 -6 -61t-21 -52q-15 -22 -39 -35q-25 -14 -62 -14t-62 14q-25 13 -40 35t-22 51t-7 62q0 31 7 60q8 29 23 52q16 22 41 35q25 14 60 14q37 0 62 -13t40 -35q14 -22 20 -51t6 -62v0zM573 272q0 24 -4 47q-3 23 -10 45q-27 97 -95 142q-67 45 -166 45
q-93 0 -160 -43q-67 -42 -99 -132q-8 -24 -13 -51t-5 -53q0 -23 4 -47q4 -23 11 -46q30 -94 97 -139q68 -45 165 -45t164 43q68 44 96 138q15 48 15 96v0zM443 639l-1 2q-1 1 -1 2l-106 116q-7 8 -21 8q-15 1 -25 1q-8 0 -21 -1t-19 -8l-104 -116q-1 -1 -1 -2q-1 -1 -1 -2
q0 -4 5 -5h8h35q6 0 14 2t13 7l66 76q3 4 9 4q4 0 8 -4l64 -76q4 -5 13 -7t15 -2h36h8q6 1 6 5v0z" />
    <glyph glyph-name="otilde" unicode="&#xf5;" horiz-adv-x="675" 
d="M426 272q0 -32 -6 -61t-21 -52q-15 -22 -39 -35q-25 -14 -62 -14t-62 14q-25 13 -40 35t-22 51t-7 62q0 31 7 60q8 29 23 52q16 22 41 35q25 14 60 14q37 0 62 -13t40 -35q14 -22 20 -51t6 -62v0zM573 272q0 24 -4 47q-3 23 -10 45q-27 97 -95 142q-67 45 -166 45
q-93 0 -160 -43q-67 -42 -99 -132q-8 -24 -13 -51t-5 -53q0 -23 4 -47q4 -23 11 -46q30 -94 97 -139q68 -45 165 -45t164 43q68 44 96 138q15 48 15 96v0zM465 727q0 4 -2 12q-2 9 -5 18q-4 8 -9 15q-4 7 -8 7q-3 0 -8 -7q-6 -7 -13 -14q-7 -8 -17 -14t-24 -6q-20 0 -38 7
q-18 8 -36 17q-18 10 -37 18q-19 7 -41 7q-25 0 -47 -13t-34 -34q-5 -8 -5 -17q0 -3 2 -11q3 -7 6 -16q4 -8 8 -15q3 -6 6 -6q4 0 10 6l13 13q8 7 18 14q9 6 21 6q19 0 38 -7q19 -8 38 -17t38 -17q20 -7 40 -7q27 0 47 15q21 15 35 35q4 5 4 11v0z" />
    <glyph glyph-name="odieresis" unicode="&#xf6;" horiz-adv-x="677" 
d="M426 272q0 -32 -6 -61t-21 -52q-15 -22 -39 -35q-25 -14 -62 -14t-62 14q-25 13 -40 35t-22 51t-7 62q0 31 7 60q8 29 23 52q16 22 41 35q25 14 60 14q37 0 62 -13t40 -35q14 -22 20 -51t6 -62v0zM573 272q0 24 -4 47q-3 23 -10 45q-27 97 -95 142q-67 45 -166 45
q-93 0 -160 -43q-67 -42 -99 -132q-8 -24 -13 -51t-5 -53q0 -23 4 -47q4 -23 11 -46q30 -94 97 -139q68 -45 165 -45t164 43q68 44 96 138q15 48 15 96v0zM253 651v71q0 12 -8 21q-9 8 -21 8h-85q-12 0 -21 -8q-8 -9 -8 -21v-71q0 -12 8 -22q9 -9 21 -9h85q12 0 21 9
q8 10 8 22v0zM469 651v71q0 12 -8 21q-9 8 -21 8h-85q-12 0 -21 -8q-8 -9 -8 -21v-71q0 -12 8 -22q9 -9 21 -9h85q12 0 21 9q8 10 8 22v0z" />
    <glyph glyph-name="divide" unicode="&#xf7;" horiz-adv-x="613" 
d="M356 125v86q0 12 -9 21q-9 8 -21 8h-92q-13 0 -21 -8q-9 -9 -9 -21v-86q0 -12 9 -21q8 -9 21 -9h92q12 0 21 9t9 21v0zM540 347v53q0 12 -9 21q-10 9 -22 9h-459q-12 0 -21 -9q-8 -9 -8 -21v-53q0 -12 8 -21q9 -9 21 -9h459q12 0 22 9q9 9 9 21v0zM356 530v84q0 12 -9 21
t-21 9h-92q-13 0 -21 -9q-9 -9 -9 -21v-84q0 -12 9 -22q8 -9 21 -9h92q12 0 21 9q9 10 9 22v0z" />
    <glyph glyph-name="oslash" unicode="&#xf8;" horiz-adv-x="696" 
d="M426 272q0 -32 -6 -61q-7 -29 -22 -52q-15 -22 -39 -35q-25 -14 -61 -14q-20 0 -40 6t-37 18l199 204q4 -17 5 -33q1 -17 1 -33v0zM379 407l-202 -208q-10 34 -10 73q0 31 7 60q8 29 23 52q16 22 41 35q25 14 60 14q22 0 43 -6t38 -20v0zM586 521q0 13 -13 28
q-14 14 -28 14q-12 0 -21 -9l-54 -53q-37 27 -81 38q-45 12 -91 12q-96 0 -164 -45q-67 -44 -97 -138q-8 -23 -12 -48q-4 -24 -4 -48q0 -46 14 -92q13 -47 40 -84l-45 -46q-8 -10 -8 -21q0 -14 14 -28t28 -14q12 0 20 9l45 46q37 -27 81 -37q43 -10 88 -10q93 0 161 41
t97 132q9 24 13 51t4 53q0 44 -13 90q-12 45 -36 82l53 54q9 10 9 23v0z" />
    <glyph glyph-name="ugrave" unicode="&#xf9;" horiz-adv-x="616" 
d="M506 38v470q0 12 -9 21q-8 8 -21 8h-82q-12 0 -20 -8q-9 -9 -9 -21v-117q1 -58 1 -116q0 -22 -1 -51q0 -29 -8 -49q-13 -30 -42 -47q-29 -18 -61 -18q-31 0 -48 10q-18 10 -28 26t-12 39q-3 23 -3 48v275q0 12 -9 21q-8 8 -21 8h-83q-12 0 -21 -8q-8 -9 -8 -21v-307
q0 -47 9 -85q10 -37 32 -65q22 -27 57 -41q35 -15 86 -15q39 0 75 10q37 10 64 40q9 8 15 17t12 19q0 -10 -1 -22q0 -12 2 -24t8 -19q6 -8 21 -8h75q13 0 21 9q9 8 9 21v0zM360 627q0 4 -4 12l-53 96q-5 10 -20 18q-15 7 -27 7h-94q-4 0 -9 -2q-5 -1 -5 -6q0 -7 6 -13
l94 -104q8 -9 23 -15t27 -6h44q6 0 12 3q6 2 6 10v0z" />
    <glyph glyph-name="uacute" unicode="&#xfa;" horiz-adv-x="616" 
d="M506 38v470q0 12 -9 21q-8 8 -21 8h-82q-12 0 -20 -8q-9 -9 -9 -21v-117q1 -58 1 -116q0 -22 -1 -51q0 -29 -8 -49q-13 -30 -42 -47q-29 -18 -61 -18q-31 0 -48 10q-18 10 -28 26t-12 39q-3 23 -3 48v275q0 12 -9 21q-8 8 -21 8h-83q-12 0 -21 -8q-8 -9 -8 -21v-307
q0 -47 9 -85q10 -37 32 -65q22 -27 57 -41q35 -15 86 -15q39 0 75 10q37 10 64 40q9 8 15 17t12 19q0 -10 -1 -22q0 -12 2 -24t8 -19q6 -8 21 -8h75q13 0 21 9q9 8 9 21v0zM421 752q0 5 -6 6q-5 2 -9 2h-94q-13 0 -27 -7q-13 -7 -20 -18l-53 -96q-4 -8 -4 -12q0 -8 6 -10
q5 -3 12 -3h44q12 0 27 6q16 6 24 15l94 104q6 6 6 13v0z" />
    <glyph glyph-name="ucircumflex" unicode="&#xfb;" horiz-adv-x="616" 
d="M506 38v470q0 12 -9 21q-8 8 -21 8h-82q-12 0 -20 -8q-9 -9 -9 -21v-117q1 -58 1 -116q0 -22 -1 -51q0 -29 -8 -49q-13 -30 -42 -47q-29 -18 -61 -18q-31 0 -48 10q-18 10 -28 26t-12 39q-3 23 -3 48v275q0 12 -9 21q-8 8 -21 8h-83q-12 0 -21 -8q-8 -9 -8 -21v-307
q0 -47 9 -85q10 -37 32 -65q22 -27 57 -41q35 -15 86 -15q39 0 75 10q37 10 64 40q9 8 15 17t12 19q0 -10 -1 -22q0 -12 2 -24t8 -19q6 -8 21 -8h75q13 0 21 9q9 8 9 21v0zM410 639l-1 2q-1 1 -1 2l-106 116q-7 8 -21 8q-15 1 -25 1q-8 0 -21 -1t-19 -8l-104 -116
q-1 -1 -1 -4q0 -4 5 -5h7h35q6 0 15 2t14 7l65 76q4 4 8 4t9 -4l64 -76q4 -5 13 -7q10 -2 16 -2h35h7q6 1 6 5v0z" />
    <glyph glyph-name="udieresis" unicode="&#xfc;" horiz-adv-x="620" 
d="M506 38v470q0 12 -9 21q-8 8 -21 8h-82q-12 0 -20 -8q-9 -9 -9 -21v-117q1 -58 1 -116q0 -22 -1 -51q0 -29 -8 -49q-13 -30 -42 -47q-29 -18 -61 -18q-31 0 -48 10q-18 10 -28 26t-12 39q-3 23 -3 48v275q0 12 -9 21q-8 8 -21 8h-83q-12 0 -21 -8q-8 -9 -8 -21v-307
q0 -47 9 -85q10 -37 32 -65q22 -27 57 -41q35 -15 86 -15q39 0 75 10q37 10 64 40q9 8 15 17t12 19q0 -10 -1 -22q0 -12 2 -24t8 -19q6 -8 21 -8h75q13 0 21 9q9 8 9 21v0zM229 651v71q0 12 -9 21q-9 8 -21 8h-83q-12 0 -22 -8q-9 -9 -9 -21v-71q0 -12 9 -22q10 -9 22 -9h83
q12 0 21 9q9 10 9 22v0zM445 651v71q0 12 -9 21q-9 8 -21 8h-84q-12 0 -21 -8q-9 -9 -9 -21v-71q0 -12 9 -22q9 -9 21 -9h84q12 0 21 9q9 10 9 22v0z" />
    <glyph glyph-name="yacute" unicode="&#xfd;" horiz-adv-x="634" 
d="M541 518q0 9 -7 14q-6 5 -15 5h-90q-12 0 -23 -9q-10 -8 -15 -20l-97 -322q-1 -2 -2 -7q-2 -4 -6 -4t-6 4q-1 5 -2 7l-98 322q-4 13 -15 21t-23 8h-99q-22 0 -22 -20q0 -2 2 -9q3 -7 6 -16t6 -17t4 -11l162 -443q3 -9 5 -19q2 -9 2 -19q0 -21 -13 -45q-13 -23 -36 -29
q-5 -2 -10 -2h-11h-16t-15 -2q-6 -3 -10 -8q-5 -6 -5 -17v-54q0 -9 9 -19t18 -11q5 -1 11 -1h12h22q10 1 22 1q31 0 54 9q23 10 40 28q17 17 30 40q12 24 21 51l209 584q1 3 1 10v0zM421 752q0 5 -6 6q-5 2 -9 2h-94q-13 0 -27 -7q-13 -7 -20 -18l-53 -96q-4 -8 -4 -12
q0 -8 6 -10q5 -3 12 -3h44q12 0 27 6q16 6 24 15l94 104q6 6 6 13v0z" />
    <glyph glyph-name="thorn" unicode="&#xfe;" horiz-adv-x="644" 
d="M413 414q0 -55 -27 -78q-27 -24 -82 -24h-108q-11 0 -22 7q-10 8 -10 20v146q0 12 10 22t22 10h107q53 0 81 -24q29 -23 29 -79v0zM560 415q0 101 -57 159q-58 59 -159 59h-180v101q0 11 -7 20q-7 8 -20 8h-91q-12 0 -19 -8q-6 -9 -6 -20v-707q0 -11 6 -20q7 -8 19 -8h91
q13 0 20 8q7 9 7 20v136q0 12 10 19q11 7 22 7h143q110 0 166 59q55 59 55 167v0z" />
    <glyph glyph-name="ydieresis" unicode="&#xff;" horiz-adv-x="634" 
d="M541 518q0 9 -7 14q-6 5 -15 5h-90q-12 0 -23 -9q-10 -8 -15 -20l-97 -322q-1 -2 -2 -7q-2 -4 -6 -4t-6 4q-1 5 -2 7l-98 322q-4 13 -15 21t-23 8h-99q-22 0 -22 -20q0 -2 2 -9q3 -7 6 -16t6 -17t4 -11l162 -443q3 -9 5 -19q2 -9 2 -19q0 -21 -13 -45q-13 -23 -36 -29
q-5 -2 -10 -2h-11h-16t-15 -2q-6 -3 -10 -8q-5 -6 -5 -17v-54q0 -9 9 -19t18 -11q5 -1 11 -1h12h22q10 1 22 1q31 0 54 9q23 10 40 28q17 17 30 40q12 24 21 51l209 584q1 3 1 10v0zM241 651v71q0 12 -9 21q-10 8 -22 8h-83q-12 0 -21 -8q-8 -9 -8 -21v-71q0 -12 8 -22
q9 -9 21 -9h83q12 0 22 9q9 10 9 22v0zM457 651v71q0 12 -9 21q-9 8 -22 8h-83q-12 0 -21 -8q-8 -9 -8 -21v-71q0 -12 8 -22q9 -9 21 -9h83q13 0 22 9q9 10 9 22v0z" />
    <glyph glyph-name="Aogonek" unicode="&#x104;" horiz-adv-x="706" 
d="M647 38l-51 -25q-11 -16 -24 -30q-14 -13 -25 -28t-18 -32q-8 -17 -8 -42q0 -16 6 -29q5 -12 12 -20q8 -8 17 -13q10 -5 17 -7q13 -4 33 -5q21 -2 32 0q11 3 20 5q8 1 15 4q7 2 13 7q6 4 15 12q10 10 4 24t-17 14q-14 0 -27 -9t-27 -9t-29 3q-15 4 -25 18q-6 9 -5 26
t9 29q10 14 21 26q11 11 34 28q16 11 26 13q10 3 13 5q2 3 -4 10q-7 6 -27 25v0zM441 295q0 -10 -7 -15q-6 -5 -15 -5h-126q-8 0 -15 5t-7 15q0 2 5 19q5 16 13 41q7 24 16 52q10 28 18 54q9 25 16 45q6 19 8 25q2 3 4 7q3 4 7 4t6 -4q2 -5 3 -8q2 -6 8 -25q6 -20 14 -45
q9 -25 18 -53q9 -27 16 -51t12 -41q6 -17 6 -20v0zM696 24q0 3 -13 41q-13 37 -33 93t-44 121q-23 65 -45 124q-21 59 -37 102q-16 44 -20 56l-31 86q-4 11 -7 22q-4 12 -9 23t-16 19q-11 9 -24 9h-117q-12 0 -23 -9q-12 -8 -17 -19l-238 -658q-1 -4 -1 -10q0 -9 6 -14
q6 -4 14 -4h101q17 0 28 11q10 10 17 27q6 16 10 35q5 19 11 35q6 17 17 28q10 10 28 10h209q17 0 27 -10q10 -11 16 -28q6 -16 10 -35t10 -35q6 -17 15 -27q10 -11 28 -11h106q8 0 15 4q7 5 7 14v0z" />
    <glyph glyph-name="aogonek" unicode="&#x105;" horiz-adv-x="618" 
d="M497 40l-51 -25q-12 -16 -25 -30q-13 -13 -24 -28q-12 -15 -19 -32t-7 -42q0 -16 5 -29q5 -12 13 -20t17 -13t16 -7q13 -4 34 -5q20 -2 32 0q11 3 19 5q8 1 15 4q8 3 14 7t14 12q10 10 4 24t-16 14q-14 0 -27 -9t-27 -9q-15 0 -30 3q-14 4 -25 18q-6 9 -5 26t9 29
q11 15 21 26q11 11 35 28q15 11 25 15q11 4 13 7q3 4 -4 10q-7 5 -26 21v0zM356 224q0 -12 -1 -32q0 -19 -6 -30q-13 -35 -48 -53q-35 -17 -69 -17q-29 0 -49 14q-20 15 -20 45q0 26 10 41q11 16 27 24q17 9 39 13l42 8q21 3 41 9q19 5 33 16q1 -9 1 -19v-19v0zM525 14
q0 7 -5 13q-5 7 -11 15t-11 21q-4 14 -4 36v267q0 56 -17 91t-47 56q-29 20 -70 28t-90 8q-34 0 -68 -6q-33 -5 -62 -17q-29 -13 -52 -36q-23 -22 -36 -57q-3 -8 -7 -24t-4 -24q0 -6 4 -15q3 -8 12 -8h100q10 0 15 6q4 6 7 14t7 18q4 9 12 18q9 8 25 13q16 6 43 6
q18 0 34 -3q16 -2 27 -10q12 -7 19 -21q8 -13 8 -34q0 -10 -6 -16q-5 -7 -12 -11q-8 -4 -17 -7q-8 -2 -17 -3q-20 -4 -41 -6t-42 -5q-40 -5 -75 -16q-36 -11 -64 -32q-28 -20 -43 -52q-16 -31 -16 -77q0 -38 13 -66t36 -47t54 -29q31 -9 67 -9q51 0 92 19q42 19 76 56
q0 -9 3 -27q4 -18 8 -26q5 -9 15 -9h128q12 0 12 8v0z" />
    <glyph glyph-name="Cacute" unicode="&#x106;" horiz-adv-x="750" 
d="M439 938q0 5 -6 6q-6 2 -10 2h-94q-11 0 -26 -7t-20 -18l-53 -96q-4 -8 -4 -12q0 -7 5 -10q6 -4 12 -4h44q12 0 28 7q15 6 23 15l94 103q7 9 7 14v0zM670 234q0 4 -2 8t-7 4h-132q-5 0 -9 -6t-7 -13q-3 -8 -5 -17q-2 -8 -5 -14q-22 -46 -61 -65q-38 -20 -87 -20t-83 22
t-56 57q-21 35 -31 78q-11 43 -11 84q0 45 11 90q10 45 32 81q23 36 59 58q37 23 89 23q43 0 78 -16q34 -16 56 -55q3 -5 6 -14q3 -8 7 -17q3 -9 8 -15q5 -7 11 -7h125q14 0 14 13q0 12 -4 29q-4 16 -11 32q-8 16 -16 31t-15 25q-48 63 -118 94q-70 30 -147 30
q-67 0 -131 -24q-64 -23 -110 -71q-56 -59 -77 -132q-20 -72 -20 -150q0 -80 20 -148q21 -69 63 -119t105 -79q64 -29 150 -29q37 0 74 9t71 25t64 40q29 24 51 54q17 24 28 50q12 27 19 55l2 10q2 4 2 9v0z" />
    <glyph glyph-name="cacute" unicode="&#x107;" horiz-adv-x="525" 
d="M421 751q0 5 -6 7q-5 2 -9 2h-94q-13 0 -27 -7q-13 -7 -20 -18l-53 -96q-4 -8 -4 -13q0 -7 6 -9q5 -3 12 -3h44q12 0 27 6q16 5 24 15l94 104q6 6 6 12v0zM512 181q0 16 -17 16h-94q-13 0 -20 -4t-11 -11q-4 -6 -7 -14q-2 -9 -6 -16q-13 -21 -36 -33t-47 -12
q-35 0 -57 15q-21 15 -32 38q-12 24 -16 53t-4 57q0 26 5 54t18 52q12 24 33 39q21 16 53 16q21 0 37 -4q15 -4 26 -13q10 -8 19 -22q8 -13 15 -33q2 -4 5 -9q3 -4 8 -4h103q11 0 18 7t7 18v3q-9 71 -55 111q-46 39 -112 55q-17 4 -35 6q-18 3 -36 3q-65 0 -112 -20
q-48 -20 -79 -57q-32 -36 -47 -87q-15 -50 -15 -112q0 -63 14 -115q13 -52 44 -88q31 -37 79 -57t116 -20t127 29t90 92q8 16 12 31t8 33q0 1 1 1v2v0z" />
    <glyph glyph-name="Ccaron" unicode="&#x10c;" horiz-adv-x="750" 
d="M469 977q0 5 -4 6q-5 1 -8 1h-36q-6 0 -15 -3q-9 -2 -14 -7l-63 -76q-2 -3 -9 -3q-5 0 -8 3l-66 76q-5 5 -13 7q-8 3 -16 3h-33q-4 0 -9 -1t-5 -5q0 -1 1 -2q0 -1 1 -2l105 -115q7 -8 21 -9h24q8 0 21 1q14 1 20 8l105 115q0 1 1 1v2v0zM670 234q0 4 -2 8t-7 4h-132
q-5 0 -9 -6t-7 -13q-3 -8 -5 -17q-2 -8 -5 -14q-22 -46 -61 -65q-38 -20 -87 -20t-83 22t-56 57q-21 35 -31 78q-11 43 -11 84q0 45 11 90q10 45 32 81q23 36 59 58q37 23 89 23q43 0 78 -16q34 -16 56 -55q3 -5 6 -14q3 -8 7 -17q3 -9 8 -15q5 -7 11 -7h125q14 0 14 13
q0 12 -4 29q-4 16 -11 32q-8 16 -16 31t-15 25q-48 63 -118 94q-70 30 -147 30q-67 0 -131 -24q-64 -23 -110 -71q-56 -59 -77 -132q-20 -72 -20 -150q0 -80 20 -148q21 -69 63 -119t105 -79q64 -29 150 -29q37 0 74 9t71 25t64 40q29 24 51 54q17 24 28 50q12 27 19 55
l2 10q2 4 2 9v0z" />
    <glyph glyph-name="ccaron" unicode="&#x10d;" horiz-adv-x="525" 
d="M119 743q0 -1 1 -2q0 -1 1 -2l106 -116q7 -8 21 -8q14 -1 25 -1q8 0 21 1q12 1 19 8l104 116q0 1 1 2q0 1 1 1v1q0 4 -6 5h-7h-35q-6 0 -14 -2q-9 -2 -14 -7l-65 -76q-3 -4 -9 -4q-5 0 -9 4l-64 76q-5 5 -13 7q-9 2 -15 2h-36h-7q-6 -1 -6 -5v0zM512 181q0 16 -17 16h-94
q-13 0 -20 -4t-11 -11q-4 -6 -7 -14q-2 -9 -6 -16q-13 -21 -36 -33t-47 -12q-35 0 -57 15q-21 15 -32 38q-12 24 -16 53t-4 57q0 26 5 54t18 52q12 24 33 39q21 16 53 16q21 0 37 -4q15 -4 26 -13q10 -8 19 -22q8 -13 15 -33q2 -4 5 -9q3 -4 8 -4h103q11 0 18 7t7 18v3
q-9 71 -55 111q-46 39 -112 55q-17 4 -35 6q-18 3 -36 3q-65 0 -112 -20q-48 -20 -79 -57q-32 -36 -47 -87q-15 -50 -15 -112q0 -63 14 -115q13 -52 44 -88q31 -37 79 -57t116 -20t127 29t90 92q8 16 12 31t8 33q0 1 1 1v2v0z" />
    <glyph glyph-name="Dcaron" unicode="&#x10e;" horiz-adv-x="683" 
d="M469 977q0 5 -4 6q-5 1 -8 1h-36q-6 0 -15 -3q-9 -2 -14 -7l-63 -76q-2 -3 -9 -3q-5 0 -8 3l-66 76q-5 5 -13 7q-8 3 -16 3h-33q-4 0 -9 -1t-5 -5q0 -1 1 -2q0 -1 1 -2l105 -115q7 -8 21 -9h24q8 0 21 1q14 1 20 8l105 115q0 1 1 1v2v0zM484 377q0 -32 -6 -64
q-6 -33 -18 -63t-32 -56q-19 -25 -47 -44q-14 -9 -30 -16q-15 -6 -32 -6h-120q-12 0 -21 8q-9 9 -9 21v409q0 12 9 21t21 9h120q43 0 74 -21q31 -20 51 -52t30 -71t10 -75v0zM638 392q0 36 -7 76q-8 40 -24 78q-15 38 -38 70q-23 33 -54 55q-38 26 -81 37q-44 12 -90 12
h-294q-12 0 -21 -9q-8 -9 -8 -21v-655q0 -12 8 -21q9 -8 21 -8h285q83 0 141 33t94 88q36 54 52 123t16 142v0z" />
    <glyph glyph-name="dcaron" unicode="&#x10f;" horiz-adv-x="708" 
d="M683 690v60q0 10 -6 16q-7 7 -16 7h-57q-9 0 -15 -7q-7 -6 -7 -16v-50q0 -9 7 -16q6 -6 15 -6q10 0 20 -1q10 0 10 -14q0 -19 -8 -29q-8 -11 -17 -17q-10 -6 -18 -10q-8 -3 -8 -8v-23q0 -7 6 -7q5 0 11 2q42 11 63 44q20 32 20 75v0zM410 266q0 -31 -7 -59
q-6 -29 -21 -51t-39 -35q-24 -14 -59 -14q-33 0 -55 15q-22 14 -36 37t-20 51t-6 56t6 56q5 29 19 53t36 39t56 15q38 0 62 -14q25 -13 39 -35t19 -52q6 -29 6 -62v0zM545 36v654q0 12 -9 21q-8 9 -21 9h-81q-12 0 -21 -9t-9 -21l-1 -194q0 -6 -2 -11t-9 -5q-6 0 -12 6
q-5 5 -10 11l-10 10q-21 17 -47 29q-27 13 -54 13q-62 0 -107 -21t-74 -58q-30 -37 -43 -87q-14 -50 -14 -108q0 -42 6 -82q7 -39 23 -75q17 -35 44 -63t69 -46q21 -8 42 -12q22 -4 43 -4q22 0 43 12q22 12 41 27q18 15 34 27q15 13 25 13h16q0 -10 -1 -21q0 -11 2 -21
q3 -11 9 -17q6 -7 19 -7h79q13 0 21 9q9 8 9 21v0z" />
    <glyph glyph-name="Eogonek" unicode="&#x118;" horiz-adv-x="591" 
d="M497 40l-51 -25q-12 -16 -25 -30q-13 -13 -24 -28q-12 -15 -19 -32t-7 -42q0 -16 5 -29q5 -12 13 -20t17 -13t16 -7q13 -4 34 -5q20 -2 32 0q11 3 19 5q8 1 15 4q8 3 14 7t14 12q10 10 4 24t-16 14q-14 0 -27 -9t-27 -9q-15 0 -30 3q-14 4 -25 18q-6 9 -5 26t9 29
q11 15 21 26q11 11 35 28q15 11 25 13q11 3 13 5q3 3 -4 10q-7 6 -26 25v0zM573 36v66q0 12 -9 21t-21 9h-344q-12 0 -21 9q-9 8 -9 21v127q0 12 9 21q9 8 21 8h276q13 0 21 9q9 9 9 21v65q0 13 -9 21q-8 9 -21 9h-276q-12 0 -21 9t-9 21v91q0 12 9 21t21 9h328q12 0 21 8
q8 9 8 21v67q0 12 -8 21q-9 9 -21 9h-477q-12 0 -21 -9q-8 -9 -8 -21v-654q0 -13 8 -21q9 -9 21 -9h493q12 0 21 9q9 8 9 21v0z" />
    <glyph glyph-name="eogonek" unicode="&#x119;" horiz-adv-x="556" 
d="M402 321h-198q-8 0 -14 5q-6 6 -6 14q0 3 2 9q2 8 5 17t8 17q14 23 40 38q26 14 53 14q52 0 79 -33t31 -81v0zM457 39l-126 -27q-11 -16 -25 -30q-13 -13 -24 -28t-19 -32q-7 -17 -7 -42q0 -16 5 -29q5 -12 13 -20t17 -13t16 -7q14 -4 34 -5q21 -2 32 0q11 3 19 5
q9 1 16 4q7 2 13 7q6 4 14 12q11 10 5 24q-7 14 -17 14q-14 0 -27 -9t-27 -9t-29 3t-25 18q-7 9 -5 26q1 17 9 29q10 14 21 26q10 11 34 28q15 11 20 14q6 4 11 7q6 3 17 10q10 6 35 24v0zM547 246q0 14 -1 27q-1 12 -1 27q0 88 -42 148t-127 86q-20 6 -41 11q-21 4 -43 4
q-53 0 -100 -19q-81 -30 -119 -92t-38 -146q0 -67 13 -122q14 -55 43 -94q30 -39 79 -61t122 -22q80 0 141 30q62 30 97 106q2 4 3 7q2 4 2 9q0 11 -9 13q-10 3 -18 3h-83q-16 0 -25 -10q-10 -9 -21 -20q-12 -10 -31 -19t-56 -9q-28 0 -50 10q-22 11 -36 29q-15 17 -23 41
t-8 50h342q5 0 18 2q12 2 12 11v0z" />
    <glyph glyph-name="Ecaron" unicode="&#x11a;" horiz-adv-x="591" 
d="M469 977q0 5 -4 6q-5 1 -8 1h-36q-6 0 -15 -3q-9 -2 -14 -7l-63 -76q-2 -3 -9 -3q-5 0 -8 3l-66 76q-5 5 -13 7q-8 3 -16 3h-33q-4 0 -9 -1t-5 -5q0 -1 1 -2q0 -1 1 -2l105 -115q7 -8 21 -9h24q8 0 21 1q14 1 20 8l105 115q0 1 1 1v2v0zM573 35v67q0 12 -9 21t-21 9h-344
q-12 0 -21 8q-9 9 -9 21v128q0 12 9 21q9 8 21 8h276q13 0 21 9q9 9 9 21v66q0 12 -9 21q-8 8 -21 8h-276q-12 0 -21 9t-9 21v91q0 12 9 21t21 9h328q12 0 21 8q8 9 8 21v67q0 12 -8 21q-9 9 -21 9h-477q-12 0 -21 -9q-8 -9 -8 -21v-655q0 -12 8 -21q9 -8 21 -8h493
q12 0 21 8q9 9 9 21v0z" />
    <glyph glyph-name="ecaron" unicode="&#x11b;" horiz-adv-x="541" 
d="M118 743q0 -1 1 -2q0 -1 1 -2l106 -116q7 -8 21 -8q14 -1 25 -1q8 0 21 1q12 1 19 8l104 116q0 1 1 2q0 1 1 1v1q0 4 -6 5h-7h-35q-6 0 -14 -2q-9 -2 -14 -7l-65 -76q-3 -4 -9 -4q-5 0 -9 4l-64 76q-5 5 -14 7q-8 2 -14 2h-36h-7q-6 -1 -6 -5v0zM386 321h-196q-8 0 -15 5
q-6 6 -6 14q0 3 2 9q2 8 5 17t9 17q14 23 40 38q26 14 53 14q52 0 78 -33q26 -32 30 -81v0zM533 246q0 14 -1 27q-1 12 -1 27q0 88 -42 148t-127 86q-21 7 -42 11t-42 4q-53 0 -101 -19q-80 -29 -118 -92q-38 -62 -38 -146q0 -67 13 -122q13 -54 43 -94q30 -39 79 -61
t122 -22q80 0 141 30q62 30 96 106l4 8q1 3 1 8q0 11 -10 14q-10 2 -17 2h-82q-17 0 -26 -10q-9 -9 -21 -20q-11 -10 -30 -19t-56 -9q-28 0 -50 10q-22 11 -37 29t-22 41q-8 24 -8 50h342q5 0 17 2q13 2 13 11v0z" />
    <glyph glyph-name="Lslash" unicode="&#x141;" horiz-adv-x="586" 
d="M288 517q4 5 -3 11q-6 5 -10 8q-6 4 -14 6q-8 1 -15 -3l-301 -185q-4 -2 -6 -4q-3 -6 3 -12q7 -5 11 -8q6 -4 14 -5q8 -2 14 2l301 185q5 3 6 5v0zM526 35v71q0 12 -10 21q-9 9 -21 9h-292q-12 0 -21 8q-9 9 -9 21v525q0 12 -8 21q-9 8 -21 8h-94q-12 0 -21 -8
q-8 -9 -8 -21v-655q0 -12 8 -21q9 -8 21 -8h445q12 0 21 8q10 9 10 21v0z" />
    <glyph glyph-name="lslash" unicode="&#x142;" horiz-adv-x="275" 
d="M288 517q4 5 -3 11q-6 5 -10 8q-6 4 -14 6q-8 1 -15 -3l-301 -185q-4 -2 -6 -4q-3 -6 3 -12q7 -5 11 -8q6 -4 14 -5q8 -2 14 2l301 185q5 3 6 5v0zM180 36v654q0 12 -8 21q-9 9 -21 9h-83q-12 0 -21 -9t-9 -21v-654q0 -12 9 -21t21 -9h83q12 0 21 9q8 9 8 21v0z" />
    <glyph glyph-name="Nacute" unicode="&#x143;" horiz-adv-x="670" 
d="M439 938q0 5 -6 6q-6 2 -10 2h-94q-11 0 -26 -7q-15 -8 -20 -18l-53 -96q-4 -8 -4 -12q0 -8 5 -11q6 -3 12 -3h44q12 0 28 6q15 7 23 16l94 103q7 8 7 14v0zM614 35v655q0 12 -9 21q-9 8 -21 8h-82q-12 0 -21 -8q-9 -9 -9 -21v-437v-9q-1 -5 -6 -5q-4 0 -6 3q-3 3 -5 6
l-259 446q-7 11 -19 18q-11 7 -25 7h-102q-12 0 -21 -8q-8 -9 -8 -21v-655q0 -12 8 -21q9 -8 21 -8h84q12 0 21 8q8 9 8 21v449q0 3 1 9q1 5 5 5q3 0 6 -4t6 -6l266 -457q7 -11 19 -18q13 -7 26 -7h92q12 0 21 8q9 9 9 21v0z" />
    <glyph glyph-name="nacute" unicode="&#x144;" horiz-adv-x="519" 
d="M421 751q0 5 -6 7q-5 2 -9 2h-94q-13 0 -27 -7q-13 -7 -20 -18l-53 -96q-4 -8 -4 -13q0 -7 6 -9q5 -3 12 -3h44q12 0 27 6q16 5 24 15l94 104q6 6 6 12v0zM500 37v333q0 69 -28 112q-27 43 -97 61q-30 8 -55 8q-59 0 -96 -20t-67 -72v16q1 7 1 15q0 17 -5 32t-26 15h-77
q-12 0 -21 -8q-8 -9 -8 -21v-471q0 -12 8 -21q9 -8 21 -8h83q13 0 21 8q9 9 9 21q0 70 1 138v138q0 37 15 67t51 45q18 8 38 8q43 0 66 -16q24 -16 24 -63q0 -80 -1 -158v-159q0 -12 8 -21q9 -8 21 -8h84q13 0 21 8q9 9 9 21v0z" />
    <glyph glyph-name="Ncaron" unicode="&#x147;" horiz-adv-x="670" 
d="M469 977q0 5 -4 6q-5 1 -8 1h-36q-6 0 -15 -3q-9 -2 -14 -7l-63 -76q-2 -3 -9 -3q-5 0 -8 3l-66 76q-5 5 -13 7q-8 3 -16 3h-33q-4 0 -9 -1t-5 -5q0 -1 1 -2q0 -1 1 -2l105 -115q7 -8 21 -9h24q8 0 21 1q14 1 20 8l105 115q0 1 1 1v2v0zM614 36v654q0 12 -9 21t-21 9h-82
q-12 0 -21 -9t-9 -21v-437v-8q-1 -6 -6 -6q-4 0 -6 4q-3 3 -5 6l-259 445q-7 11 -19 19q-11 7 -25 7h-102q-12 0 -21 -9q-8 -9 -8 -21v-654q0 -12 8 -21q9 -9 21 -9h83q13 0 21 9q9 9 9 21v448q0 4 1 9q1 6 5 6q3 0 6 -4t5 -6l267 -457q7 -11 19 -19q12 -7 26 -7h92
q12 0 21 9t9 21v0z" />
    <glyph glyph-name="ncaron" unicode="&#x148;" horiz-adv-x="519" 
d="M99 743q0 -1 1 -2q0 -1 1 -2l105 -116q7 -8 22 -8q14 -1 24 -1q8 0 21 1t19 8l105 116q0 1 1 2v1q1 0 1 1q0 4 -6 5h-8h-35q-6 0 -14 -2t-13 -7l-66 -76q-3 -4 -9 -4q-4 0 -8 4l-65 76q-5 5 -13 7t-14 2h-36h-8q-5 -1 -5 -5v0zM500 37v333q0 69 -28 112q-27 43 -97 61
q-30 8 -55 8q-59 0 -96 -20t-67 -72v16q1 7 1 15q0 17 -5 32t-26 15h-77q-12 0 -21 -8q-8 -9 -8 -21v-471q0 -12 8 -21q9 -8 21 -8h83q13 0 21 8q9 9 9 21q0 70 1 138v138q0 37 15 67t51 45q18 8 38 8q43 0 66 -16q24 -16 24 -63q0 -80 -1 -158v-159q0 -12 8 -21q9 -8 21 -8
h84q13 0 21 8q9 9 9 21v0z" />
    <glyph glyph-name="OE" unicode="&#x152;" horiz-adv-x="1134" 
d="M505 173q-22 -31 -54 -46t-70 -15q-52 0 -86 26q-34 27 -54 66t-28 87q-8 47 -8 89q0 32 8 68q9 35 26 67q16 32 42 55q25 24 59 34q9 2 20 5q12 2 21 2q36 0 69 -17q34 -18 55 -45v-376v0zM1057 35v67q0 12 -8 21q-9 9 -21 9h-345q-12 0 -21 8q-8 9 -8 21v128q0 12 8 21
q9 8 21 8h277q12 0 21 9t9 21v66q0 12 -9 21q-9 8 -21 8h-277q-12 0 -21 9q-8 9 -8 21v91q0 12 8 21q9 9 21 9h328q12 0 21 8q9 9 9 21v67q0 12 -9 21t-21 9h-476q-10 0 -19 -6q-8 -6 -10 -16q-31 23 -67 32t-75 9q-85 0 -143 -33q-59 -32 -95 -87q-36 -54 -51 -124
t-15 -144q0 -52 9 -102q9 -51 30 -95t55 -80q35 -36 85 -60q29 -13 61 -21q32 -7 64 -7q38 0 74 11q37 11 67 33q2 -11 10 -18q9 -6 20 -6h493q12 0 21 8q8 9 8 21v0z" />
    <glyph glyph-name="oe" unicode="&#x153;" horiz-adv-x="1040" 
d="M427 240q0 -10 -2 -21q-3 -11 -6 -21q-29 -88 -119 -88q-37 0 -62 14q-25 13 -40 35t-22 51t-7 62q0 31 7 60q8 29 23 52q16 23 41 36q26 13 60 13q44 0 75 -19q30 -20 44 -63q2 -5 5 -17q2 -12 2 -17v-12q-1 -7 -1 -13q0 -14 1 -26t1 -26v0zM792 321h-198q-8 0 -14 5
q-6 6 -6 14q0 3 2 9q2 8 5 17t8 17q14 23 40 38q27 14 53 14q52 0 79 -33q27 -32 31 -81v0zM937 246q0 14 -1 27q-1 12 -1 27q0 88 -42 148t-127 86q-20 7 -41 11t-43 4q-50 0 -100 -18q-49 -17 -85 -52q-39 40 -90 56t-107 16q-96 0 -164 -45q-67 -44 -97 -138
q-8 -23 -12 -48q-4 -24 -4 -48q0 -52 17 -101q31 -91 98 -134q68 -42 162 -42q54 0 104 14q51 14 90 52q37 -40 86 -54q50 -14 102 -14q80 0 142 30q61 30 96 106q2 4 3 8q2 3 2 8q0 11 -10 14q-11 2 -18 2h-82q-16 0 -25 -10q-9 -9 -21 -20q-12 -10 -31 -19t-56 -9
q-49 0 -78 29q-28 29 -36 75l5 26h335q5 0 17 2t12 11v0z" />
    <glyph glyph-name="Rcaron" unicode="&#x158;" horiz-adv-x="676" 
d="M469 977q0 5 -4 6q-5 1 -8 1h-36q-6 0 -15 -3q-9 -2 -14 -7l-63 -76q-2 -3 -9 -3q-5 0 -8 3l-66 76q-5 5 -13 7q-8 3 -16 3h-33q-4 0 -9 -1t-5 -5q0 -1 1 -2q0 -1 1 -2l105 -115q7 -8 21 -9h24q8 0 21 1q14 1 20 8l105 115q0 1 1 1v2v0zM466 506q0 -48 -25 -74t-73 -26
h-169q-12 0 -21 9t-9 21v131q0 12 9 21t21 9h151q23 0 44 -5q21 -4 37 -15q17 -10 26 -28t9 -43v0zM616 513q0 41 -15 79q-26 69 -83 99q-56 29 -128 29h-341q-12 0 -21 -9q-8 -9 -8 -21v-656q0 -12 8 -21q9 -8 21 -8h89q13 0 21 8q9 9 9 21v221q0 12 9 21q9 8 21 8l148 -1
q12 0 25 -2t26 -7t23 -13q10 -7 14 -20q7 -17 8 -43t1 -45q0 -30 1 -66q1 -37 13 -65q2 -4 7 -11q4 -6 9 -6h134q8 0 8 4q0 17 -11 42q-10 25 -10 51q0 20 1 41v41q0 28 -3 53q-3 26 -12 47t-27 37q-18 17 -48 26q26 9 46 26q21 17 35 39t22 48t8 53v0z" />
    <glyph glyph-name="rcaron" unicode="&#x159;" horiz-adv-x="347" 
d="M26 743q0 -1 1 -2q0 -1 1 -2l105 -116q8 -8 22 -8q14 -1 24 -1q9 0 21 1q13 1 19 8l105 116q0 1 1 2v1q1 0 1 1q0 4 -6 5h-7h-35q-6 0 -15 -2q-8 -2 -13 -7l-65 -76q-3 -4 -10 -4q-4 0 -8 4l-64 76q-5 5 -14 7q-8 2 -14 2h-36h-8q-5 -1 -5 -5v0zM333 437v85q0 7 -1 17
q-2 11 -12 11q-18 0 -40 -3q-23 -2 -40 -10q-13 -6 -27 -16q-13 -10 -24 -23q-12 -13 -20 -27q-9 -15 -14 -28v65q0 12 -9 21q-9 8 -21 8h-75q-12 0 -21 -8q-8 -9 -8 -21v-470q0 -13 8 -21q9 -9 21 -9h83q13 0 21 9q9 8 9 21v215q0 25 6 53q6 29 20 52q13 23 34 38
q22 15 53 15q7 0 14 -1q6 -2 13 -2q14 0 22 8t8 21v0z" />
    <glyph glyph-name="Sacute" unicode="&#x15a;" horiz-adv-x="667" 
d="M439 938q0 5 -6 6q-6 2 -10 2h-94q-11 0 -26 -7t-20 -18l-53 -96q-4 -8 -4 -12q0 -7 5 -10q6 -4 12 -4h44q12 0 28 7q15 6 23 15l94 103q7 9 7 14v0zM618 217q0 58 -22 95t-74 65q-12 7 -25 10t-27 7q-52 14 -103 28q-50 14 -103 26q-18 4 -34 10q-17 5 -30 13
q-12 9 -20 23t-8 36q0 24 13 40q12 16 31 25t41 13t40 4q20 0 40 -2t38 -9q18 -6 34 -18t26 -30q6 -9 9 -19q3 -9 5 -20q1 -2 2 -5q2 -3 5 -3h110q11 0 19 7q9 7 9 18q0 3 -2 12q-2 8 -4 17l-6 16q-2 9 -3 12q-17 41 -44 69q-28 28 -63 46q-34 18 -74 26q-40 7 -81 7
q-53 0 -104 -11q-51 -10 -91 -35q-41 -25 -65 -67q-25 -41 -25 -103q0 -77 36 -124q36 -48 109 -72q21 -6 42 -10t41 -9q34 -8 67 -16q34 -9 67 -17q15 -4 29 -9q13 -5 24 -13t18 -20q6 -12 6 -30q0 -32 -16 -51q-15 -18 -40 -27q-24 -10 -52 -12q-28 -3 -52 -3
q-43 0 -82 16q-38 15 -55 58q-2 7 -4 16q-3 9 -3 16q0 10 -9 10h-109q-12 0 -20 -7t-8 -21q0 -21 5 -45q5 -23 15 -43q18 -34 50 -57t71 -38q39 -14 80 -21t76 -7q43 0 85 7t80 23q37 16 68 44q30 28 48 70q19 41 19 89v0z" />
    <glyph glyph-name="sacute" unicode="&#x15b;" horiz-adv-x="523" 
d="M421 751q0 5 -6 7q-5 2 -9 2h-94q-13 0 -27 -7q-13 -7 -20 -18l-53 -96q-4 -8 -4 -13q0 -7 6 -9q5 -3 12 -3h44q12 0 27 6q16 5 24 15l94 104q6 6 6 12v0zM514 177q0 45 -20 73q-20 27 -50 44q-31 16 -68 25q-38 9 -73 17q-10 2 -28 6t-36 9q-19 5 -34 12t-21 15
q-8 8 -8 21q0 17 11 25q10 9 24 13q15 4 30 5h27q31 0 55 -11q23 -10 33 -43q2 -5 3 -9q1 -3 8 -3h101q10 0 20 6q9 6 9 17q0 5 -2 12q-1 7 -3 12q-11 41 -36 66q-24 25 -56 39t-69 18q-37 5 -74 5q-43 0 -82 -9q-40 -10 -70 -31q-31 -21 -49 -54q-19 -34 -19 -82
q0 -58 36 -93t88 -49l110 -26q10 -2 27 -6t33 -11q16 -6 29 -15q12 -9 12 -23q0 -15 -10 -25q-9 -10 -24 -16q-14 -7 -30 -9q-16 -3 -28 -3q-20 0 -38 2q-19 2 -34 8q-15 7 -26 19q-12 13 -17 34q-2 8 -4 11q-2 4 -10 4h-105q-11 0 -18 -8t-7 -19t5 -27q6 -16 11 -26
q18 -31 45 -51q28 -20 61 -31q32 -11 68 -16q35 -4 68 -4q44 0 86 9q42 10 75 32q33 21 54 56q20 35 20 85v0z" />
    <glyph glyph-name="Scaron" unicode="&#x160;" horiz-adv-x="731" 
d="M632 217q0 58 -22 96q-22 37 -73 64q-12 7 -26 10q-13 3 -26 7q-52 14 -103 28t-103 26q-19 4 -35 10q-16 5 -29 13q-13 9 -21 23q-7 14 -7 36q0 24 13 40q12 16 31 25t41 13t41 4q20 0 41 -2q21 -3 40 -10t34 -20q16 -13 25 -34q4 -9 6 -16l4 -16q1 -2 3 -5q1 -3 4 -3
h111q11 0 19 7t8 18q0 21 -10 47t-21 43q-21 32 -48 54t-59 36q-33 14 -68 20q-35 5 -71 5q-52 0 -103 -11q-52 -10 -92 -36q-40 -25 -64 -66q-25 -41 -25 -103q0 -152 145 -196q20 -6 41 -10t42 -9q34 -8 67 -16q34 -9 68 -17q15 -4 29 -9q13 -4 24 -12q10 -9 17 -20
q6 -12 6 -31q0 -32 -16 -51q-16 -18 -40 -27q-24 -10 -52 -12q-27 -3 -52 -3q-19 0 -39 3q-19 3 -37 11q-18 7 -33 20q-14 12 -23 31q-5 10 -7 20q-2 9 -4 21q-2 10 -10 10h-108q-12 0 -21 -7t-9 -21q0 -21 5 -45q5 -23 16 -43q17 -34 49 -57q33 -23 72 -38q38 -14 79 -21
t76 -7q43 0 85 7t80 23t68 44t49 70q18 41 18 89v0zM469 977q0 5 -4 6q-5 1 -8 1h-36q-6 0 -15 -3q-9 -2 -14 -7l-63 -76q-2 -3 -9 -3q-5 0 -8 3l-66 76q-5 5 -13 7q-8 3 -16 3h-33q-4 0 -9 -1t-5 -5q0 -1 1 -2q0 -1 1 -2l105 -115q7 -8 21 -9h24q8 0 21 1q14 1 20 8
l105 115q0 1 1 1v2v0z" />
    <glyph glyph-name="scaron" unicode="&#x161;" horiz-adv-x="621" 
d="M529 177q0 45 -20 73q-20 27 -51 44q-31 16 -68 25q-38 9 -72 17q-11 2 -29 6q-17 4 -36 9q-18 5 -34 12q-15 7 -21 15q-7 8 -7 21q0 17 10 25q10 9 25 13q14 4 29 5h27q32 0 55 -11q24 -10 33 -43q2 -5 3 -9q1 -3 8 -3h102q10 0 19 6t9 17q0 5 -1 12q-2 7 -4 12
q-11 41 -35 66t-56 39q-33 14 -70 18q-37 5 -73 5q-43 0 -83 -9q-39 -10 -70 -31t-49 -54q-19 -34 -19 -82q0 -58 36 -93t88 -49l110 -26q10 -2 27 -6t33 -11q17 -6 29 -15t12 -23q0 -15 -9 -25q-10 -10 -24 -16q-14 -7 -30 -9q-16 -3 -28 -3q-18 0 -37 2q-18 2 -35 9
q-16 7 -28 19t-16 33q-2 8 -3 11q-1 4 -10 4h-105q-11 0 -18 -8q-8 -8 -8 -19t5 -27q6 -16 11 -26q18 -31 45 -50q28 -20 61 -31q33 -12 68 -17q35 -4 68 -4q44 0 87 9q42 9 75 31q33 21 53 56q21 35 21 86v0zM427 789q0 5 -4 6h-8h-36q-6 0 -15 -2t-13 -7l-64 -76
q-3 -4 -9 -4q-4 0 -8 4l-66 76q-5 5 -14 7q-8 2 -15 2h-33h-8q-6 -1 -6 -5q0 -1 1 -2q0 -1 1 -2l105 -116q7 -8 21 -8q15 -1 24 -1q8 0 21 1q14 1 20 8l105 116q0 1 1 2v1v0z" />
    <glyph glyph-name="Tcaron" unicode="&#x164;" horiz-adv-x="651" 
d="M469 977q0 5 -4 6q-5 1 -8 1h-36q-6 0 -15 -3q-9 -2 -14 -7l-63 -76q-2 -3 -9 -3q-5 0 -8 3l-66 76q-5 5 -13 7q-8 3 -16 3h-33q-4 0 -9 -1t-5 -5q0 -1 1 -2q0 -1 1 -2l105 -115q7 -8 21 -9h24q8 0 21 1q14 1 20 8l105 115q0 1 1 1v2v0zM612 623v67q0 12 -9 21t-21 9
h-532q-12 0 -21 -9q-8 -9 -8 -21v-67q0 -12 8 -21q9 -8 21 -8h159q12 0 21 -9t9 -21v-528q0 -13 9 -21q8 -9 21 -9h94q12 0 21 9q8 8 8 21v528q0 12 9 21t21 9h160q12 0 21 8q9 9 9 21v0z" />
    <glyph glyph-name="tcaron" unicode="&#x165;" horiz-adv-x="433" 
d="M405 690v60q0 10 -7 16q-7 7 -16 7h-56q-9 0 -16 -7q-7 -6 -7 -16v-50q0 -9 7 -16q7 -6 16 -6t19 -1q11 0 11 -14q0 -19 -9 -29q-8 -11 -17 -17t-17 -10q-9 -3 -9 -8v-23q0 -7 7 -7q5 0 11 2q42 11 62 44q21 32 21 75v0zM324 492q0 17 -5 31t-26 14h-19t-18 2q-9 2 -15 9
q-5 7 -5 19v82q0 12 -9 21t-21 9h-83q-12 0 -21 -9t-9 -21v-82q0 -20 -11 -24q-11 -5 -25 -6q-14 -2 -25 -6q-11 -5 -11 -23q0 -7 -1 -13v-13q0 -17 5 -31t25 -14q17 0 30 -5q13 -4 13 -25v-262q0 -48 9 -76t28 -43t49 -20q31 -4 76 -4q11 0 23 -1q12 0 22 2q11 3 17 10
q6 6 6 20v46q0 28 -27 28q-12 0 -23 1q-12 0 -20 4q-8 3 -13 12q-4 9 -4 25v258q0 21 14 25q13 4 29 4q16 1 30 5t14 26v12q1 7 1 13v0z" />
    <glyph glyph-name="Uring" unicode="&#x16e;" horiz-adv-x="642" 
d="M356 893q0 -22 -11 -37q-10 -15 -33 -15q-24 0 -34 15t-10 37q0 20 10 36q10 15 34 15q23 0 33 -14q11 -15 11 -37v0zM405 893q0 43 -26 66t-67 23q-40 0 -68 -24q-27 -23 -27 -65t27 -66q28 -23 68 -23q42 0 67 23q26 23 26 66v0zM597 245v223q-1 110 -1 222q0 12 -8 21
t-20 9h-96q-11 0 -23 -8q-11 -9 -11 -22v-434q0 -68 -27 -105t-99 -37q-66 0 -99 39q-34 39 -34 103v434q0 13 -10 22q-11 8 -23 8h-97q-12 0 -20 -9t-8 -21v-432q0 -68 20 -119q21 -50 59 -84q37 -34 91 -51q53 -18 117 -18q63 0 116 16q53 15 92 47q38 31 60 80
q21 49 21 116v0z" />
    <glyph glyph-name="uring" unicode="&#x16f;" horiz-adv-x="530" 
d="M307 681q0 -22 -10 -37q-10 -14 -34 -14q-23 0 -33 14q-11 15 -11 37q0 20 11 36q10 15 33 15q24 0 34 -14q10 -15 10 -37v0zM357 681q0 43 -27 66q-26 23 -67 23q-40 0 -67 -24q-27 -23 -27 -65t27 -66q27 -23 67 -23q42 0 68 23t26 66v0zM506 33v470q0 12 -9 21
q-8 8 -21 8h-82q-12 0 -20 -8q-9 -9 -9 -21v-117q1 -58 1 -116q0 -22 -1 -51q0 -29 -8 -49q-13 -30 -42 -47q-29 -18 -61 -18q-31 0 -48 10q-18 10 -28 26t-12 39q-3 23 -3 48v275q0 12 -9 21q-8 8 -21 8h-83q-12 0 -21 -8q-8 -9 -8 -21v-307q0 -47 9 -85q10 -37 32 -65
q22 -27 57 -41q35 -15 86 -15q39 0 75 10q37 10 64 40q9 8 15 17t12 19q0 -10 -1 -22q0 -12 2 -24t8 -19q6 -8 21 -8h75q13 0 21 9q9 8 9 21v0z" />
    <glyph glyph-name="Ydieresis" unicode="&#x178;" horiz-adv-x="729" 
d="M644 705q0 8 -5 12q-6 3 -13 3h-106q-12 0 -24 -8t-18 -19l-126 -257q-3 -4 -5 -8q-3 -3 -8 -3t-8 3q-3 4 -5 8l-136 257q-6 11 -19 19q-12 8 -24 8h-108q-7 0 -13 -3q-5 -4 -5 -12q0 -7 3 -11l222 -393q6 -11 10 -27q4 -15 4 -28v-210q0 -13 9 -21q9 -9 21 -9h92
q13 0 21 9q9 8 9 21v208q0 14 4 29q4 16 10 27l215 394q3 4 3 11v0zM304 844v71q0 12 -8 21q-9 9 -21 9h-83q-12 0 -21 -9t-9 -21v-71q0 -12 9 -21q9 -8 21 -8h83q12 0 21 8q8 9 8 21v0zM520 844v71q0 12 -8 21q-9 9 -21 9h-83q-12 0 -21 -9t-9 -21v-71q0 -12 9 -21
q9 -8 21 -8h83q12 0 21 8q8 9 8 21v0z" />
    <glyph glyph-name="Zacute" unicode="&#x179;" horiz-adv-x="629" 
d="M439 938q0 5 -6 6q-6 2 -10 2h-94q-11 0 -26 -7t-20 -18l-53 -96q-4 -8 -4 -12q0 -7 5 -10q6 -4 12 -4h44q12 0 28 7q15 6 23 15l94 103q7 9 7 14v0zM589 35v67q0 12 -9 21q-8 9 -21 9h-322q-5 0 -11 2q-6 3 -6 9q0 7 6 12l342 423q8 11 13 25q6 15 6 29v58q0 12 -9 21
q-8 9 -21 9h-496q-13 0 -22 -9t-9 -21v-67q0 -12 9 -21q9 -8 22 -8h306q5 0 11 -3q5 -2 5 -9q0 -6 -6 -12l-338 -415q-8 -10 -13 -25t-5 -28v-67q0 -12 8 -21q9 -8 21 -8h509q13 0 21 8q9 9 9 21v0z" />
    <glyph glyph-name="zacute" unicode="&#x17a;" horiz-adv-x="498" 
d="M421 751q0 5 -6 7q-5 2 -9 2h-94q-13 0 -27 -7q-13 -7 -20 -18l-53 -96q-4 -8 -4 -13q0 -7 6 -9q5 -3 12 -3h44q12 0 27 6q16 5 24 15l94 104q6 6 6 12v0zM476 38v54q0 12 -8 21q-9 9 -21 9h-213q-5 0 -11 2t-6 8t6 12l224 257q8 10 14 24t6 27v56q0 12 -9 21q-8 8 -20 8
h-369q-12 0 -21 -8q-9 -9 -9 -21v-54q0 -12 9 -21q9 -8 21 -8h199q5 0 10 -2t5 -8q0 -7 -6 -13l-237 -264q-8 -9 -14 -24q-5 -15 -5 -28v-48q0 -12 8 -21q9 -9 21 -9h397q12 0 21 9q8 9 8 21v0z" />
    <glyph glyph-name="Zdotaccent" unicode="&#x17b;" horiz-adv-x="629" 
d="M381 845v70q0 12 -9 21q-8 9 -21 9h-82q-13 0 -22 -9t-9 -21v-70q0 -13 9 -21q9 -9 22 -9h82q13 0 21 9q9 8 9 21v0zM589 35v67q0 12 -9 21q-8 9 -21 9h-322q-5 0 -11 2q-6 3 -6 9q0 7 6 12l342 423q8 11 13 25q6 15 6 29v58q0 12 -9 21q-8 9 -21 9h-496q-13 0 -22 -9
t-9 -21v-67q0 -12 9 -21q9 -8 22 -8h306q5 0 11 -3q5 -2 5 -9q0 -6 -6 -12l-338 -415q-8 -10 -13 -25t-5 -28v-67q0 -12 8 -21q9 -8 21 -8h509q13 0 21 8q9 9 9 21v0z" />
    <glyph glyph-name="zdotaccent" unicode="&#x17c;" horiz-adv-x="501" 
d="M327 651v71q0 12 -9 21q-8 8 -21 8h-84q-12 0 -21 -8q-8 -9 -8 -21v-71q0 -12 8 -21q9 -10 21 -10h84q13 0 21 10q9 9 9 21v0zM476 38v54q0 12 -8 21q-9 9 -21 9h-213q-5 0 -11 2t-6 8t6 12l224 257q8 10 14 24t6 27v56q0 12 -9 21q-8 8 -20 8h-369q-12 0 -21 -8
q-9 -9 -9 -21v-54q0 -12 9 -21q9 -8 21 -8h199q5 0 10 -2t5 -8q0 -7 -6 -13l-237 -264q-8 -9 -14 -24q-5 -15 -5 -28v-48q0 -12 8 -21q9 -9 21 -9h397q12 0 21 9q8 9 8 21v0z" />
    <glyph glyph-name="Zcaron" unicode="&#x17d;" horiz-adv-x="694" 
d="M603 35v67q0 12 -8 21q-9 9 -21 9h-323q-5 0 -11 2q-5 3 -5 9q0 7 5 12l343 423q8 11 13 25q5 15 5 29v58q0 12 -8 21q-9 9 -21 9h-497q-12 0 -21 -9t-9 -21v-67q0 -12 9 -21q9 -8 21 -8h306q5 0 11 -3q6 -2 6 -9t-6 -12l-338 -415q-9 -10 -14 -25t-5 -28v-67
q0 -12 9 -21q8 -8 21 -8h509q12 0 21 8q8 9 8 21v0zM519 937q0 4 -6 4q-7 1 -10 1h-42q-7 0 -18 -2q-12 -2 -17 -7l-80 -77q-4 -4 -10 -4t-10 4l-79 77q-5 5 -16 7q-12 2 -19 2h-43q-2 0 -8 -1q-7 0 -7 -4l1 -2q11 -14 25 -25q14 -12 26 -23q21 -18 40 -36q18 -18 39 -35
q10 -8 27 -9q16 -1 29 -1q12 0 26 1t22 9l128 117l2 4v0z" />
    <glyph glyph-name="zcaron" unicode="&#x17e;" horiz-adv-x="587" 
d="M491 38v54q0 12 -9 21t-21 9h-213q-5 0 -10 2t-5 8q0 7 5 12l224 257q8 9 14 24q6 14 6 27v56q0 12 -9 21q-9 8 -21 8h-368q-12 0 -21 -8q-8 -9 -8 -21v-54q0 -12 8 -21q9 -8 21 -8h198q5 0 10 -2t5 -8q0 -8 -5 -13l-237 -264q-8 -9 -14 -24t-6 -28v-48q0 -12 9 -21
t21 -9h396q12 0 21 9t9 21v0zM469 767q0 4 -6 4q-7 1 -10 1h-41q-7 0 -19 -2t-17 -7l-80 -77q-4 -4 -10 -4t-10 4l-78 77q-5 5 -16 7q-12 2 -19 2h-44q-2 0 -9 -1q-6 0 -6 -4l1 -2q11 -14 25 -25q14 -12 26 -23q20 -18 39 -36t40 -35q10 -8 26 -9q17 -1 30 -1q11 0 26 1
q14 1 22 9l128 117l2 4v0z" />
    <glyph glyph-name="circumflex" unicode="&#x2c6;" horiz-adv-x="582" 
d="M469 662q0 1 -15 18q-14 17 -34 38q-19 21 -37 40q-17 18 -21 23q-8 8 -23 9h-24q-9 0 -21 -1t-18 -8l-105 -115q-1 -1 -1 -4q0 -4 5 -5q4 -1 8 -1h34q7 0 15 3q9 2 14 7l65 76q2 3 9 3q5 0 8 -3l64 -76q6 -5 13 -7q8 -3 15 -3h36q3 0 8 1t5 5v0z" />
    <glyph glyph-name="tilde" unicode="&#x2dc;" horiz-adv-x="496" 
d="M531 859q0 4 -2 13t-6 17q-4 9 -8 16q-5 6 -9 6q-3 0 -7 -6q-5 -7 -13 -15q-7 -7 -18 -14q-10 -7 -23 -7q-21 0 -39 8t-35 17q-18 9 -37 17q-19 7 -42 7q-25 0 -46 -12q-20 -12 -35 -34l-4 -8t-2 -9q0 -3 3 -11q2 -7 6 -16q5 -8 8 -15q4 -6 7 -6q4 0 10 6q5 6 13 13
t17 14q10 6 21 6q20 0 39 -8t37 -16q19 -9 39 -17q19 -7 40 -7q25 0 46 15q21 14 36 35q4 5 4 11v0z" />
    <glyph glyph-name="mu" unicode="&#x3bc;" horiz-adv-x="512" 
d="M128 64v667h256v-667h-256v0zM65 0h384v794h-384v-794v0z" />
    <glyph glyph-name="endash" unicode="&#x2013;" horiz-adv-x="605" 
d="M575 389q0 11 -10 18q-9 7 -20 7h-495q-11 0 -20 -7t-9 -18t9 -18t20 -7h495q11 0 20 7q10 7 10 18v0z" />
    <glyph glyph-name="emdash" unicode="&#x2014;" horiz-adv-x="711" 
d="M677 389q0 11 -9 18t-21 7h-597q-11 0 -20 -7t-9 -18t9 -18t20 -7h597q12 0 21 7t9 18v0z" />
    <glyph glyph-name="quoteleft" unicode="&#x2018;" horiz-adv-x="279" 
d="M163 481v67q0 12 -9 21q-8 8 -21 8h-14q-8 -1 -15 0q-6 1 -12 6q-5 4 -5 14q0 23 12 37q11 13 25 21q13 8 25 13t12 14v29q0 10 -7 10q-5 0 -16 -2q-56 -15 -87 -58q-30 -43 -30 -100v-80q0 -12 8 -21q9 -9 21 -9h83q13 0 21 9q9 9 9 21v0z" />
    <glyph glyph-name="quoteright" unicode="&#x2019;" horiz-adv-x="276" 
d="M163 609v81q0 12 -9 21q-8 9 -21 9h-83q-12 0 -21 -9q-8 -9 -8 -21v-67q0 -12 8 -21q9 -8 21 -8h15q8 1 15 0q6 -1 11 -6q6 -4 6 -14q0 -24 -12 -38q-12 -13 -26 -21t-25 -13q-12 -6 -12 -13v-29q0 -10 8 -10q4 0 7 1q3 0 7 1q57 15 88 57q31 43 31 100v0z" />
    <glyph glyph-name="quotesinglbase" unicode="&#x201a;" horiz-adv-x="303" 
d="M186 21v94q0 15 -11 25q-10 10 -24 10h-87q-15 0 -25 -10t-10 -25v-77q0 -15 10 -25t25 -10h15q7 0 14 -2q7 -1 11 -6q5 -5 5 -14q0 -29 -13 -45q-12 -16 -26 -25q-14 -10 -27 -15q-12 -6 -12 -14v-35q0 -11 9 -11q8 0 18 3q64 17 96 68t32 114v0z" />
    <glyph glyph-name="quotedblleft" unicode="&#x201c;" horiz-adv-x="514" 
d="M163 481v67q0 12 -9 21q-8 8 -21 8h-14q-8 -1 -15 1q-7 1 -13 5q-5 4 -5 14l1 2q1 24 13 37t26 21l24 12q11 4 11 13v29q0 11 -7 11q-4 0 -8 -1q-3 -1 -8 -2q-57 -17 -87 -57q-30 -41 -30 -100v-81q0 -12 8 -21q9 -9 21 -9h83q13 0 21 9q9 9 9 21v0zM400 481v67
q0 12 -9 21q-9 8 -21 8h-14q-9 -1 -16 0t-12 6q-5 4 -5 14q0 24 12 38q11 13 25 21q14 7 26 12t12 14v29q0 11 -8 11q-4 0 -7 -1l-8 -2q-57 -17 -88 -57q-31 -41 -31 -100v-81q0 -12 9 -21t21 -9h84q12 0 21 9t9 21v0z" />
    <glyph glyph-name="quotedblright" unicode="&#x201d;" horiz-adv-x="513" 
d="M163 610v80q0 12 -9 21q-8 9 -21 9h-83q-12 0 -21 -9q-8 -9 -8 -21v-67q0 -12 8 -21q9 -8 21 -8h15q8 1 15 0q6 -1 11 -5q6 -4 6 -14q0 -24 -12 -38t-26 -22t-25 -13q-12 -6 -12 -12v-30q0 -10 8 -10q4 0 7 1t7 2q58 18 88 57q31 40 31 100v0zM400 610v80q0 12 -9 21
t-21 9h-84q-12 0 -21 -9t-9 -21v-67q0 -12 9 -21q9 -8 21 -8h14q7 1 15 0t13 -5t5 -14q0 -23 -12 -37q-11 -14 -25 -22t-26 -13q-12 -6 -12 -13v-30q0 -10 7 -10q5 0 8 1l8 2q57 17 88 57q31 41 31 100v0z" />
    <glyph glyph-name="quotedblbase" unicode="&#x201e;" horiz-adv-x="513" 
d="M186 21v94q0 15 -11 25q-10 10 -24 10h-87q-15 0 -25 -10t-10 -25v-77q0 -15 10 -25t25 -10h15q7 0 14 -2q7 -1 11 -6q5 -5 5 -14q0 -29 -13 -45q-12 -16 -26 -25q-14 -10 -27 -15q-12 -6 -12 -14v-35q0 -11 9 -11q8 0 18 3q64 17 96 68t32 114v0zM396 21v94q0 15 -11 25
q-10 10 -24 10h-87q-15 0 -25 -10t-10 -25v-77q0 -15 10 -25t25 -10h15q7 0 14 -2q7 -1 11 -6t4 -14q0 -29 -12 -45t-27 -25q-14 -10 -26 -15q-12 -6 -12 -14v-35q0 -5 1 -8t7 -3q8 0 18 3q64 17 96 68q33 51 33 114v0z" />
    <glyph glyph-name="dagger" unicode="&#x2020;" horiz-adv-x="694" 
d="M606 534q0 17 -5 32q-5 16 -25 16h-141q-12 0 -21 9q-8 9 -8 21v136q0 12 -9 21t-21 9h-54q-11 0 -17 -5q-7 -5 -10 -14q-3 -8 -4 -18q-1 -9 -1 -17q0 -22 2 -44t2 -43q0 -9 -1 -18q-1 -10 -4 -18q-3 -9 -9 -14t-17 -5h-141q-11 0 -17 -5t-9 -13q-3 -7 -4 -17v-18v-19
q1 -11 3 -19q3 -9 9 -15q6 -5 18 -5h141q12 0 21 -9q8 -9 8 -21v-555q0 -12 9 -21t21 -9h54q12 0 21 9t9 21v555q0 11 5 17q6 7 14 10t18 4t18 1q23 0 45 -2q23 -2 45 -2t33 3t16 11q5 7 6 20v31v0z" />
    <glyph glyph-name="daggerdbl" unicode="&#x2021;" horiz-adv-x="696" 
d="M606 165q0 16 -5 32t-25 16h-141q-12 0 -21 8q-8 9 -8 21v199q0 11 5 17q6 7 14 10t18 4t18 1q23 0 45 -2q23 -2 45 -2t33 3t16 11q5 7 6 20v31q0 17 -5 32q-5 16 -25 16h-141q-12 0 -21 9q-8 9 -8 21v136q0 12 -9 21t-21 9h-54q-11 0 -17 -5q-7 -5 -10 -14q-3 -8 -4 -18
q-1 -9 -1 -17q0 -22 2 -44t2 -43q0 -9 -1 -18q-1 -10 -4 -18q-3 -9 -9 -14t-17 -5h-141q-11 0 -17 -5t-9 -13q-3 -7 -4 -17v-18v-19q1 -11 3 -19q3 -9 9 -15q6 -5 18 -5h141q12 0 21 -9q8 -9 8 -21v-199q0 -11 -5 -17t-13 -9t-18 -4t-18 -1q-23 0 -45 2q-23 3 -45 3t-33 -4
q-11 -3 -16 -11t-6 -21q-1 -12 -1 -31q0 -16 5 -32t25 -16h141q12 0 21 -8q8 -9 8 -21v-156v-20q0 -10 2 -18q2 -9 9 -15t19 -6h54q21 0 25 13q5 13 5 30v172q0 11 5 17q6 6 14 9t18 4t18 1q23 0 45 -2q23 -2 45 -2t33 3t16 11t6 21v31v0z" />
    <glyph glyph-name="ellipsis" unicode="&#x2026;" horiz-adv-x="849" 
d="M182 36v86q0 12 -8 21q-9 9 -21 9h-95q-12 0 -21 -9q-8 -9 -8 -21v-86q0 -12 8 -21q9 -8 21 -8h95q12 0 21 8q8 9 8 21v0zM453 36v86q0 12 -9 21t-21 9h-93q-12 0 -21 -9t-9 -21v-86q0 -12 9 -21q9 -8 21 -8h93q12 0 21 8q9 9 9 21v0zM734 36v86q0 12 -8 21q-9 9 -21 9
h-95q-12 0 -21 -9q-8 -9 -8 -21v-86q0 -12 8 -21q9 -8 21 -8h95q12 0 21 8q8 9 8 21v0z" />
    <glyph glyph-name="perthousand" unicode="&#x2030;" horiz-adv-x="1411" 
d="M355 532q0 -33 -24 -56q-23 -24 -56 -24t-56 24q-23 23 -23 56t23 56t56 23t56 -23q24 -23 24 -56v0zM829 176q0 -33 -23 -56q-23 -24 -56 -24t-57 24q-23 23 -23 56t23 56q24 23 57 23t56 -23t23 -56v0zM1259 176q0 -33 -23 -56q-23 -24 -56 -24t-56 24q-24 23 -24 56
t24 56q23 23 56 23t56 -23t23 -56v0zM458 532q0 38 -14 72q-14 33 -40 57q-25 25 -58 39q-33 15 -71 15t-72 -15q-33 -14 -57 -39q-25 -24 -39 -57q-15 -34 -15 -72t15 -71q14 -33 39 -58q24 -26 57 -40q34 -14 72 -14t71 14t58 40q26 25 40 58t14 71v0zM742 697q0 9 -7 12
q-7 2 -15 2q-19 0 -37 -3q-18 -4 -28 -22l-374 -674q-4 -6 -4 -11q0 -8 6 -11q7 -3 15 -3q21 0 38 3q17 4 28 22l375 674q3 4 3 11v0zM932 176q0 38 -14 71t-39 58t-58 39t-71 14t-71 -14q-34 -14 -59 -39t-39 -58q-15 -33 -15 -71t15 -71q14 -33 39 -58t59 -39
q33 -14 71 -14t71 14t58 39t39 58t14 71v0zM1362 176q0 38 -14 71t-39 58t-58 39t-71 14t-71 -14t-58 -39q-26 -25 -40 -58t-14 -71t14 -71t40 -58q25 -25 58 -39t71 -14t71 14t58 39t39 58t14 71v0z" />
    <glyph glyph-name="guilsinglleft" unicode="&#x2039;" horiz-adv-x="481" 
d="M370 172v35q0 7 -2 16t-7 13l-76 65q-4 4 -4 8t4 8l76 65q5 6 7 14q2 9 2 15v34q0 2 -1 8q0 5 -4 5h-1q0 -1 -1 -1q-1 -1 -2 -1l-116 -104q-8 -7 -9 -22v-24q0 -9 1 -21t8 -18l116 -107h1q1 -1 2 -1q5 0 5 5q1 4 1 8v0z" />
    <glyph glyph-name="guilsinglright" unicode="&#x203a;" horiz-adv-x="513" 
d="M399 313q0 9 -1 20q-1 12 -8 19q-18 17 -37 34q-20 17 -38 34q-9 9 -22 20q-12 12 -22 18q-4 0 -5 -5t-1 -8v-34q0 -6 2 -15q2 -8 7 -14q4 -3 17 -13q14 -11 27 -23q14 -12 25 -22q11 -11 11 -15t-11 -15q-11 -10 -25 -22q-13 -11 -27 -22q-13 -11 -17 -14q-5 -4 -7 -13
t-2 -16v-35q0 -4 1 -8q1 -5 6 -5q1 0 18 16q17 15 37 34q21 19 40 36q18 18 23 22q8 8 8 21q1 14 1 25v0z" />
    <glyph glyph-name="Euro" unicode="&#x20ac;" horiz-adv-x="721" 
d="M644 730q0 12 -13 23q-12 10 -31 17t-42 12q-23 6 -46 8q-22 3 -40 4q-19 2 -28 2q-27 0 -54 -3t-53 -14q-28 -11 -55 -26q-28 -15 -50 -35q-24 -22 -41 -44t-29 -46t-21 -51q-10 -26 -18 -56q-5 -17 -14 -21t-20 -5q-11 -2 -23 -8q-11 -7 -22 -31q-2 -5 -4 -11t-2 -12
q0 -10 10 -13q11 -3 22 -4q12 -2 23 -7q10 -5 10 -20q0 -11 -6 -15t-14 -7t-17 -9q-9 -5 -16 -18q-10 -15 -10 -30t12 -18q12 -4 23 -4q15 0 24 -4q8 -4 13 -12q5 -7 8 -17q3 -11 7 -23q15 -44 36 -84q22 -40 51 -72q30 -32 69 -54q38 -21 86 -28q19 -3 38 -4q18 -1 38 -1
q23 0 47 2q24 3 47 9q12 3 26 7q13 3 24 10q12 7 19 17t7 25v42q1 21 1 41q0 9 -3 20q-2 11 -14 11t-27 -9q-14 -8 -26 -14q-24 -11 -56 -19q-31 -8 -57 -8q-30 0 -55 13q-24 13 -43 34t-32 47t-19 53q5 15 25 18q19 3 32 3q24 0 48 -2q23 -2 47 -2q7 0 14 1q6 0 13 3
q6 3 12 10q6 6 10 14q5 8 8 17q2 9 2 15q0 15 -14 18q-15 3 -26 3q-33 0 -64 -2q-31 -3 -64 -3q-6 0 -16 1q-10 0 -20 3q-10 2 -17 8q-6 6 -6 15t8 14q9 5 21 8q13 2 25 3h17h67q34 -1 67 -1q12 0 25 3q12 3 23 10q10 6 17 16q6 10 6 25q0 17 -11 21q-10 3 -25 3h-13
q-7 -1 -14 -1h-76q-38 -1 -76 -1q-14 0 -27 5q-13 4 -13 22q0 16 10 38t19 36q21 30 55 48q33 17 71 17q28 0 57 -10t53 -21q6 -3 11 -5q6 -2 12 -2q7 0 10 3q3 2 7 8q3 5 12 19q8 14 17 31q8 17 14 32q7 14 7 19v0z" />
    <glyph glyph-name="uni2120" unicode="&#x2120;" horiz-adv-x="880" 
d="M192 557q0 29 -26 45q-3 2 -7 2q-3 1 -6 3q-15 4 -28 8q-13 3 -26 7q-11 2 -18 6t-7 17t11 18q12 4 22 4t20 -2q10 -3 17 -14q1 -3 3 -11q0 -2 2 -2h28q8 0 8 7q0 2 -2 8q-1 6 -1 8q-10 23 -29 32q-20 9 -41 9q-28 0 -51 -13q-24 -12 -24 -47q0 -42 38 -54q5 -2 11 -3
q5 -1 12 -3q8 -3 17 -5t17 -5q9 -2 15 -5q6 -4 6 -14q0 -18 -15 -22q-15 -5 -28 -5q-11 0 -21 5q-10 4 -15 17q-1 2 -1 4v4q0 3 -3 3h-29q-7 0 -7 -8q0 -13 5 -25q9 -18 32 -26q22 -8 41 -8q22 0 43 8q21 9 32 32q5 13 5 25v0zM463 498v192q0 9 -9 9h-47q-9 0 -11 -8
q-4 -8 -6 -17q-2 -10 -4 -18l-24 -76q-1 -5 -6 -18q-4 -14 -6 -17q-1 1 -7 22q-7 21 -15 47q-7 26 -15 49q-7 23 -8 28q-2 8 -10 8h-48q-9 0 -9 -9v-192q0 -9 9 -9h25q8 0 8 9v149q3 -7 6 -18q3 -10 5 -18q6 -18 12 -37q5 -18 10 -37q4 -9 6 -20q3 -10 7 -19t11 -9h26
q7 0 11 8q5 12 8 25q3 12 7 24q8 25 16 51q7 26 15 50q1 -2 1 -12v-12v-23q0 -26 -1 -51v-51q0 -4 3 -6q3 -3 6 -3h25q9 0 9 9v0z" />
    <glyph glyph-name="trademark" unicode="&#x2122;" horiz-adv-x="1011" 
d="M180 692v20q0 3 -2 6t-6 3h-156q-4 0 -6 -3q-3 -3 -3 -6v-20q0 -9 9 -9h47q9 0 9 -8v-155q0 -9 9 -9h27q8 0 8 9v155q0 8 9 8h47q8 0 8 9v0zM441 520v192q0 3 -3 6q-2 3 -6 3h-48q-8 0 -10 -9q-4 -9 -6 -17q-2 -9 -4 -17q-6 -20 -12 -39q-7 -20 -13 -38q-1 -4 -5 -18
t-6 -17q-1 1 -8 22q-6 21 -14 47q-8 25 -15 48t-8 29q-4 9 -10 9h-49q-9 0 -9 -9v-192q0 -9 9 -9h24q9 0 9 9v148q3 -7 6 -17t6 -18q5 -19 11 -37q6 -19 11 -37q3 -9 6 -20q2 -11 6 -19q4 -9 11 -9h26q7 0 12 8q5 11 8 24t7 24q8 26 15 51q8 25 16 51q1 -2 1 -12v-13v-22
q0 -26 -1 -51v-51q0 -4 3 -7q3 -2 6 -2h25q9 0 9 9v0z" />
  </font>
</defs>
</svg>
