<?xml version="1.0" standalone="no"?>
<!DOCTYPE svg PUBLIC "-//W3C//DTD SVG 1.1//EN" "http://www.w3.org/Graphics/SVG/1.1/DTD/svg11.dtd" >
<svg>
<metadata>
Created by FontForge 20120731 at Wed May 18 17:38:50 2016
 By ,,,
(c) Copyright , FFDec v.5.3.0.
</metadata>
<defs>
<font id="NostromoCond" horiz-adv-x="541" >
  <font-face 
    font-family="Nostromo Cond"
    font-weight="400"
    font-style="italic"
    font-stretch="normal"
    units-per-em="1024"
    panose-1="0 0 0 0 0 0 0 0 0 0"
    ascent="819"
    descent="-205"
    x-height="786"
    cap-height="786"
    bbox="0 -126 1966 1003"
    underline-thickness="60"
    underline-position="30"
    slope="10"
    unicode-range="U+0020-201D"
  />
<missing-glyph horiz-adv-x="512" 
d="M0 683v-683h438v683h-438zM365 610v-537h-292v537h292z" />
    <glyph glyph-name=".notdef" horiz-adv-x="512" 
d="M0 683v-683h438v683h-438zM365 610v-537h-292v537h292z" />
    <glyph glyph-name="glyph1" horiz-adv-x="0" 
 />
    <glyph glyph-name="glyph2" horiz-adv-x="512" 
 />
    <glyph glyph-name="space" unicode=" " horiz-adv-x="512" 
 />
    <glyph glyph-name="exclam" unicode="!" horiz-adv-x="213" 
d="M131 4v131h-131v-131h131v0zM131 233v557h-131v-557h131v0z" />
    <glyph glyph-name="quotedbl" unicode="&#x22;" horiz-adv-x="389" 
d="M131 852h-131v-131h66l-66 -131h33l98 131v131v0zM305 852h-131v-131h66l-66 -131h33l98 131v131v0z" />
    <glyph glyph-name="numbersign" unicode="#" horiz-adv-x="702" 
d="M403 454l-45 -161h-76l45 161h76v0zM532 454h73l32 129h-69l53 194h-129l-53 -194h-76l54 194h-129l-54 -194h-81l-32 -129h77l-45 -161h-81l-32 -129h77l-45 -161h130l44 161h76l-45 -161h129l45 161h74l31 129h-69l45 161v0z" />
    <glyph glyph-name="dollar" unicode="$" horiz-adv-x="558" 
d="M476 254v18q0 5 -2 25t-10 46q-7 26 -22 56q-15 29 -42 53q-26 25 -66 41q-39 16 -95 16q-29 1 -52 12q-19 9 -35 30q-16 20 -16 59v19q0 39 16 59q16 19 36 30q22 11 51 13q25 -2 46 -11q17 -8 33 -25t21 -48l132 28q-5 24 -16 55q-11 30 -34 58q-22 29 -59 50
q-36 21 -89 27v64h-69v-64q-39 -4 -67 -16q-29 -12 -51 -30q-21 -17 -36 -38q-15 -20 -24 -42q-23 -49 -26 -110v-19q3 -66 30 -118q11 -23 28 -44t43 -38q25 -17 59 -27t79 -10q28 -2 50 -14q20 -10 35 -30q16 -20 16 -59v-16q0 -39 -16 -60t-35 -30q-23 -11 -50 -13
q-26 2 -46 11q-18 8 -34 25q-17 17 -22 48l-132 -27q5 -25 17 -55q11 -30 34 -59q22 -29 58 -50t90 -27v-65h69v65q38 4 67 17q29 12 50 29q22 18 37 38q14 21 24 42q22 49 25 111v0z" />
    <glyph glyph-name="percent" unicode="%" horiz-adv-x="606" 
d="M361 790l-328 -786h131l328 786h-131v0zM0 692q0 41 29 70q29 28 70 28q40 0 69 -28q29 -29 29 -70t-29 -70q-29 -28 -69 -28q-41 0 -70 28q-29 29 -29 70v0zM328 102q0 41 28 70q29 28 70 28t70 -28q28 -29 28 -70t-28 -70q-29 -28 -70 -28t-70 28q-28 29 -28 70v0z" />
    <glyph glyph-name="ampersand" unicode="&#x26;" horiz-adv-x="729" 
d="M341 158q-11 -9 -23 -14q-12 -4 -22 -6q-11 -3 -24 -3h-33q-39 0 -60 16q-21 15 -30 35q-12 22 -13 51q0 38 16 59t35 30q23 11 52 13h33q8 0 12 1l92 -139l-18 -24t-17 -19v0zM273 680q28 -2 51 -14q19 -10 35 -30t16 -59t-16 -60t-35 -30q-23 -11 -51 -12q-3 0 -19 2
t-35 12q-18 10 -34 31q-15 20 -15 57q0 39 16 59t35 30q23 12 52 14v0zM579 169h68v136h-34h-1h-33q-37 0 -66 -7q-29 -8 -53 -19l-60 90q42 24 64 60q22 35 33 68q12 39 14 80q-3 67 -29 119q-12 22 -29 44q-18 21 -43 38t-59 28q-34 10 -78 10q-46 0 -79 -10
q-34 -11 -60 -28q-25 -17 -42 -38q-17 -22 -29 -44q-26 -52 -29 -119q1 -23 6 -50q5 -23 15 -49q9 -27 29 -52q-32 -27 -49 -60q-16 -32 -25 -61q-9 -34 -10 -68q0 -45 10 -79q11 -33 28 -58q17 -26 38 -42q21 -17 43 -29q52 -26 120 -29h67v1q50 5 83 23q34 18 58 42v1
q2 3 5 6q3 4 5 7l54 -80h136l-108 161q8 3 15 4q7 2 13 3t12 1v0z" />
    <glyph glyph-name="quotesingle" unicode="'" horiz-adv-x="213" 
d="M131 852h-131v-131h66l-66 -131h33l98 131v131v0z" />
    <glyph glyph-name="parenleft" unicode="(" horiz-adv-x="311" 
d="M230 676v131q-43 0 -76 -10t-57 -26t-41 -37q-17 -20 -27 -42q-26 -50 -29 -115v-360q3 -65 29 -115q10 -22 27 -42q17 -21 41 -36q24 -16 57 -26t76 -10v130q-28 1 -50 13q-18 9 -33 29q-16 20 -16 57v360q0 37 16 57q15 20 33 29q22 12 50 13v0z" />
    <glyph glyph-name="parenright" unicode=")" horiz-adv-x="311" 
d="M0 676q28 -1 50 -13q18 -9 33 -29q16 -20 16 -57v-360q0 -37 -16 -57q-15 -20 -33 -29q-22 -12 -50 -13v-130q43 0 76 10t57 26q24 15 40 36q17 20 28 42q26 50 29 115v360q-3 65 -29 115q-11 22 -28 42q-16 21 -40 37t-57 26t-76 10v-131v0z" />
    <glyph glyph-name="asterisk" unicode="*" horiz-adv-x="425" 
d="M98 706l-65 -75l87 -65l52 86l51 -86l88 65l-66 74l98 24l-32 102l-95 -39l10 101h-109l10 -101l-94 39l-33 -102l98 -23v0z" />
    <glyph glyph-name="plus" unicode="+" horiz-adv-x="410" 
d="M328 364v66h-131v131h-66v-131h-131v-66h131v-131h66v131h131v0z" />
    <glyph glyph-name="comma" unicode="," horiz-adv-x="213" 
d="M131 135h-131v-131h66l-66 -130h33l98 130v131v0z" />
    <glyph glyph-name="hyphen" unicode="-" horiz-adv-x="410" 
d="M328 364v66h-328v-66h328v0z" />
    <glyph glyph-name="period" unicode="." horiz-adv-x="213" 
d="M131 4v131h-131v-131h131v0z" />
    <glyph glyph-name="slash" unicode="/" horiz-adv-x="535" 
d="M328 785l-328 -785h131l328 785h-131v0z" />
    <glyph glyph-name="zero" unicode="0" 
d="M230 114q-43 0 -71 27q-28 28 -28 72v360q0 44 28 72q28 27 71 27q42 0 70 -27q28 -28 28 -72v-360q0 -44 -28 -72q-28 -27 -70 -27v0zM230 803q-52 0 -94 -17t-72 -48t-47 -73t-17 -92v-360q0 -51 17 -93t47 -72t72 -47t94 -17q50 0 92 17q43 17 73 47t47 72t17 93v360
q0 50 -17 92t-47 73t-73 48q-42 17 -92 17v0z" />
    <glyph glyph-name="one" unicode="1" horiz-adv-x="213" 
d="M131 1v785h-131v-785h131v0z" />
    <glyph glyph-name="two" unicode="2" 
d="M230 311q42 0 75 10t57 26t40 37q17 20 28 42q26 50 29 115v16q-3 64 -29 115q-11 21 -28 42q-16 20 -40 36q-24 17 -57 27q-33 9 -75 9q-43 0 -76 -9q-33 -10 -57 -27q-24 -16 -41 -36q-17 -21 -27 -43q-26 -50 -29 -114h131q0 37 16 57q15 20 33 29q22 11 50 12
q27 -1 49 -12q18 -9 33 -29q16 -20 16 -57v-17q0 -36 -16 -56q-15 -20 -33 -29q-22 -12 -49 -13q-43 0 -76 -9q-33 -10 -57 -27q-24 -16 -41 -36q-17 -21 -27 -42q-26 -51 -29 -115v-212h459v131h-328v81q0 37 16 57q15 20 33 29q22 11 50 12v0z" />
    <glyph glyph-name="three" unicode="3" horiz-adv-x="542" 
d="M459 557q-3 64 -29 115q-11 21 -28 42q-16 20 -40 36q-24 17 -57 27q-33 9 -75 9q-43 0 -76 -9q-33 -10 -57 -27q-24 -16 -41 -36q-17 -21 -27 -43q-26 -50 -29 -114h131q0 37 16 57q15 20 33 29q22 11 50 12q27 -1 49 -12q18 -9 33 -29q16 -20 16 -57t-15 -57t-33 -29
q-19 -9 -34 -11q-16 -2 -17 -2h-32v-131h32q1 0 17 -2q15 -2 34 -11q18 -9 33 -29t15 -56q0 -37 -16 -57q-15 -20 -33 -29q-22 -11 -49 -12q-28 1 -50 12q-18 9 -33 29q-16 20 -16 57h-131q3 -64 29 -115q10 -21 27 -42q17 -20 41 -36q24 -17 57 -27q33 -9 76 -9q42 0 75 9
q33 10 57 27q24 16 40 36q17 21 28 42q26 51 29 115q-1 28 -8 56q-7 25 -19 54q-12 28 -36 54q24 26 36 54q12 29 19 54q7 28 8 56v0z" />
    <glyph glyph-name="four" unicode="4" horiz-adv-x="542" 
d="M459 165v131h-98v228h-131v-228h-99v490h-131v-621h230v-164h131v164h98v0z" />
    <glyph glyph-name="five" unicode="5" horiz-adv-x="542" 
d="M230 459h-99v196h295v131h-426v-458h230q27 -1 49 -12q18 -9 33 -29q16 -20 16 -57t-16 -57q-15 -20 -33 -29q-22 -11 -49 -12q-28 1 -50 12q-18 9 -33 29q-16 20 -16 57h-131q3 -64 29 -115q10 -21 27 -42q17 -20 41 -36q24 -17 57 -27q33 -9 76 -9q42 0 75 9
q33 10 57 27q24 16 40 36q17 21 28 42q26 51 29 115q-3 64 -29 115q-11 21 -28 42q-16 20 -40 36q-24 17 -57 27q-33 9 -75 9v0z" />
    <glyph glyph-name="six" unicode="6" horiz-adv-x="542" 
d="M230 132q-28 1 -50 12q-18 9 -33 29q-16 20 -16 57t16 57q15 20 33 29q22 11 50 12q27 -1 49 -12q18 -9 33 -29q16 -20 16 -57t-16 -57q-15 -20 -33 -29q-22 -11 -49 -12v0zM230 460q-30 0 -54 -6q-24 -5 -45 -13v116q0 37 16 57q15 20 33 29q22 11 50 12q27 -1 49 -12
q18 -9 33 -29q16 -20 16 -57h131q-3 64 -29 114q-11 22 -28 43q-16 20 -40 36q-24 17 -57 27q-33 9 -75 9q-43 0 -76 -9q-33 -10 -57 -27q-24 -16 -41 -36q-17 -21 -27 -42q-26 -51 -29 -115v-327q3 -64 29 -115q10 -21 27 -42q17 -20 41 -36q24 -17 57 -27q33 -9 76 -9
q42 0 75 9q33 10 57 27q24 16 40 36q17 21 28 42q26 51 29 115q-3 65 -29 115q-11 21 -28 42q-16 20 -40 37q-24 16 -57 26t-75 10v0z" />
    <glyph glyph-name="seven" unicode="7" horiz-adv-x="542" 
d="M459 786h-459v-131h274l-274 -654h131l328 785v0z" />
    <glyph glyph-name="eight" unicode="8" horiz-adv-x="542" 
d="M230 132q-28 1 -50 12q-18 9 -33 29q-16 20 -16 57q0 36 15 56t33 29q19 9 34 11t17 2q1 0 16 -2t34 -11q18 -9 33 -29t15 -56q0 -37 -16 -57q-15 -20 -33 -29q-22 -11 -49 -12v0zM230 655q27 -1 49 -12q18 -9 33 -29q16 -20 16 -57q0 -36 -15 -56t-33 -29
q-19 -9 -34 -11q-15 -1 -16 -1q-2 0 -17 1q-15 2 -34 11q-18 9 -33 29t-15 56q0 37 16 57q15 20 33 29q22 11 50 12v0zM459 557q-3 64 -29 115q-11 21 -28 42q-16 20 -40 36q-24 17 -57 27q-33 9 -75 9q-43 0 -76 -9q-33 -10 -57 -27q-24 -16 -41 -36q-17 -21 -27 -42
q-26 -51 -29 -115q1 -29 8 -56q7 -25 19 -53t36 -54q-24 -27 -36 -55t-19 -53q-7 -28 -8 -56q3 -64 29 -115q10 -21 27 -42q17 -20 41 -36q24 -17 57 -27q33 -9 76 -9q42 0 75 9q33 10 57 27q24 16 40 36q17 21 28 42q26 51 29 115q-1 28 -8 56q-7 25 -19 53t-36 55
q24 26 36 54t19 53q7 27 8 56v0z" />
    <glyph glyph-name="nine" unicode="9" horiz-adv-x="542" 
d="M230 460q-28 1 -50 12q-18 9 -33 28q-16 20 -16 57t16 57q15 20 33 29q22 11 50 12q27 -1 49 -12q18 -9 33 -29q16 -20 16 -57t-16 -57q-15 -19 -33 -28q-22 -11 -49 -12v0zM230 786q-43 0 -76 -9q-33 -10 -57 -27q-24 -16 -41 -36q-17 -21 -27 -42q-26 -51 -29 -115
q3 -65 29 -115q10 -21 27 -42q17 -20 41 -36t57 -26t76 -10q57 0 98 18v-116q0 -37 -16 -57q-15 -20 -33 -29q-22 -11 -49 -12q-28 1 -50 12q-18 9 -33 29q-16 20 -16 57h-131q3 -64 29 -115q10 -21 27 -42q17 -20 41 -36q24 -17 57 -27q33 -9 76 -9q42 0 75 9q33 10 57 27
q24 16 40 36q17 21 28 42q26 51 29 115v327q-3 64 -29 115q-11 21 -28 42q-16 20 -40 36q-24 17 -57 27q-33 9 -75 9v0z" />
    <glyph glyph-name="colon" unicode=":" horiz-adv-x="213" 
d="M131 4v131h-131v-131h131v0zM131 516v131h-131v-131h131v0z" />
    <glyph glyph-name="semicolon" unicode=";" horiz-adv-x="213" 
d="M131 516v131h-131v-131h131v0zM0 135h131v-131l-98 -130h-33l66 130h-66v131v0z" />
    <glyph glyph-name="less" unicode="&#x3c;" horiz-adv-x="-272" 
d="M1820 880l-367 -439l367 -439h146l-366 439l366 439h-146v0z" />
    <glyph glyph-name="equal" unicode="=" horiz-adv-x="410" 
d="M328 299v65h-328v-65h328v0zM328 430v65h-328v-65h328v0z" />
    <glyph glyph-name="greater" unicode="&#x3e;" horiz-adv-x="-272" 
d="M1966 441l-366 439h-147l367 -439l-367 -439h147l366 439v0z" />
    <glyph glyph-name="question" unicode="?" 
d="M295 135v-131h-131v131h131v0zM229 807q-64 -3 -114 -29q-22 -11 -42 -28q-21 -16 -37 -40t-26 -57t-10 -76h131q1 28 12 50q10 18 30 33q20 16 56 16q28 -1 50 -13q18 -9 33 -29q16 -20 16 -57q0 -11 -3 -22q-2 -10 -7 -22q-6 -11 -14 -21q-6 -7 -16 -15q-9 -9 -20 -17
l-22 -16q-10 -8 -17 -15q-27 -25 -46 -65t-19 -101v-31v-2v-17h131v50q0 10 3 21q2 9 7 21q4 12 13 23q7 8 17 18q11 10 22 18q19 10 36 27q28 25 47 65t19 101q-3 65 -29 115q-11 22 -28 42q-16 21 -40 37t-57 26t-76 10v0z" />
    <glyph glyph-name="at" unicode="@" horiz-adv-x="588" 
d="M376 509v-160q-22 1 -40 10q-15 8 -27 24q-13 16 -13 46q0 29 13 45q12 16 27 24q18 10 40 11v0zM189 429q3 -53 23 -94q10 -18 23 -35q13 -16 33 -30q19 -13 46 -21q26 -7 62 -7h136v374q-3 64 -27 115q-11 22 -27 43q-15 21 -39 38q-23 17 -55 28q-32 12 -73 14h-34
q-45 0 -79 -10q-33 -11 -59 -28t-42 -38q-17 -21 -29 -43q-26 -52 -29 -119v-375q3 -67 29 -119q12 -23 29 -44q16 -21 42 -38t59 -27q34 -10 79 -10h170v136h-170q-29 1 -51 12q-20 9 -35 30q-16 21 -16 60v375q0 39 16 60q16 20 35 29q23 12 51 13h17q28 -1 51 -13
q19 -9 35 -30t16 -59q-36 0 -62 -8q-27 -8 -46 -21q-20 -14 -33 -31q-13 -16 -23 -34q-20 -41 -23 -93v0z" />
    <glyph glyph-name="A" unicode="A" 
d="M274 327h-88l44 263l44 -263v0zM295 196l33 -195h131l-131 786h-197l-131 -786h131l33 195h131v0z" />
    <glyph glyph-name="B" unicode="B" horiz-adv-x="508" 
d="M197 131l-66 -2v199l66 -1q43 -1 71 -27q27 -27 27 -71t-27 -70q-28 -26 -71 -28v0zM130 457l1 200l66 -2q43 -2 71 -28q27 -26 27 -70t-27 -71q-28 -27 -71 -28l-67 -1v0zM364 393q34 33 48 75q14 43 14 89q0 50 -17 93q-17 42 -47 72q-31 30 -73 47t-92 17h-197v-786
h197q50 0 92 17t73 47q30 30 47 72t17 93q0 46 -14 89q-14 42 -48 75v0z" />
    <glyph glyph-name="C" unicode="C" 
d="M230 114q-43 0 -71 27q-28 28 -28 72v360q0 44 28 72q28 27 71 27q42 0 70 -27q28 -28 28 -72h131q0 50 -17 92t-47 73t-73 48q-42 17 -92 17q-52 0 -94 -17t-72 -48t-47 -73t-17 -92v-360q0 -51 17 -93t47 -72t72 -47t94 -17q50 0 92 17q43 17 73 47q30 31 47 73t17 92
h-131q0 -44 -28 -72q-28 -27 -70 -27v0z" />
    <glyph glyph-name="D" unicode="D" horiz-adv-x="508" 
d="M197 131l-66 -1v527l66 -2q43 -2 71 -28q27 -26 27 -70v-328q0 -44 -27 -71q-28 -26 -71 -27v0zM197 786h-197v-786h197q50 0 93 17q42 17 72 47q30 31 47 73t17 92v328q0 50 -17 92t-47 73q-30 30 -72 47q-43 17 -93 17v0z" />
    <glyph glyph-name="E" unicode="E" horiz-adv-x="475" 
d="M131 655h262v131h-393v-786h393v131h-262v196h197v131h-197v197v0z" />
    <glyph glyph-name="F" unicode="F" horiz-adv-x="475" 
d="M131 655h262v131h-393v-786h131v327h197v131h-197v197v0z" />
    <glyph glyph-name="G" unicode="G" 
d="M230 344v-131h98q0 -43 -27 -71q-28 -28 -71 -28t-71 28t-28 71v360q0 43 28 71t71 28t71 -28q27 -28 27 -71h131q0 50 -17 92t-47 73q-31 31 -73 48t-92 17t-92 -17t-73 -48t-48 -73t-17 -92v-360q0 -51 17 -93t48 -72t73 -47t92 -17t92 17t73 47q30 31 47 73t17 92v131
h-229v0z" />
    <glyph glyph-name="H" unicode="H" horiz-adv-x="508" 
d="M426 786h-131v-328h-164v328h-131v-786h131v327h164v-327h131v786v0z" />
    <glyph glyph-name="I" unicode="I" horiz-adv-x="213" 
d="M131 0v786h-131v-786h131v0z" />
    <glyph glyph-name="J" unicode="J" 
d="M459 787h-131v-574q0 -44 -28 -72q-28 -27 -70 -27q-43 0 -71 27q-28 28 -28 72h-131q0 -50 17 -92t47 -73q30 -30 72 -47t94 -17q50 0 92 17q43 17 73 47t47 72t17 93v574v0z" />
    <glyph glyph-name="K" unicode="K" horiz-adv-x="508" 
d="M161 321l134 -321h131l-193 465l160 321h-131l-131 -262v262h-131v-786h131v262l30 59v0z" />
    <glyph glyph-name="L" unicode="L" horiz-adv-x="475" 
d="M393 131h-262v655h-131v-786h393v131v0z" />
    <glyph glyph-name="M" unicode="M" horiz-adv-x="606" 
d="M524 786h-131l-131 -449l-131 449h-131v-786h131v337l99 -337h65l98 337v-337h131v786v0z" />
    <glyph glyph-name="N" unicode="N" horiz-adv-x="508" 
d="M426 786h-131v-437l-164 437h-131v-786h131v437l164 -437h131v786v0z" />
    <glyph glyph-name="O" unicode="O" 
d="M230 114q-43 0 -71 27q-28 28 -28 72v360q0 44 28 72q28 27 71 27q42 0 70 -27q28 -28 28 -72v-360q0 -44 -28 -72q-28 -27 -70 -27v0zM230 803q-52 0 -94 -17t-72 -48t-47 -73t-17 -92v-360q0 -51 17 -93t47 -72t72 -47t94 -17q50 0 92 17q43 17 73 47t47 72t17 93v360
q0 50 -17 92t-47 73t-73 48q-42 17 -92 17v0z" />
    <glyph glyph-name="P" unicode="P" horiz-adv-x="508" 
d="M197 458h-66v197h66q43 0 71 -27q27 -27 27 -71t-27 -72q-28 -27 -71 -27v0zM197 786h-197v-786h131v327h66q50 0 92 17t73 47q30 31 47 73t17 93q0 50 -17 92q-17 43 -47 73q-31 30 -73 47t-92 17v0z" />
    <glyph glyph-name="Q" unicode="Q" horiz-adv-x="573" 
d="M230 114q-43 0 -71 27q-28 28 -28 72v360q0 44 28 72q28 27 71 27q42 0 70 -27q28 -28 28 -72v-360q0 -20 -4 -33h-70l30 -50q-11 -8 -26 -12q-14 -4 -28 -4v0zM361 0h131l-61 101q11 25 20 55q8 30 8 57v360q0 50 -17 92t-47 73t-73 48q-42 17 -92 17q-52 0 -94 -17
t-72 -48t-47 -73t-17 -92v-360q0 -51 17 -93t47 -72t72 -47t94 -17q32 0 63 7q32 7 59 22l9 -13v0z" />
    <glyph glyph-name="R" unicode="R" horiz-adv-x="508" 
d="M197 459l-66 -1v198l66 -1q43 -1 71 -27q27 -27 27 -71t-27 -71q-28 -26 -71 -27v0zM426 557q0 50 -17 93q-17 42 -47 72q-31 30 -73 47t-92 17h-197v-786h131v327h41l123 -327h131l-131 349q68 28 100 82q31 54 31 126v0z" />
    <glyph glyph-name="S" unicode="S" 
d="M131 573q0 44 28 72q28 27 71 27q42 0 70 -27q28 -28 28 -72h131q0 50 -17 92t-47 73t-73 48q-42 17 -92 17q-58 0 -100 -19q-43 -19 -72 -52t-43 -78q-15 -45 -15 -98q0 -50 17 -92t47 -73t72 -48t94 -17q53 0 75 -32q23 -32 23 -81q0 -44 -28 -72q-28 -27 -70 -27
q-43 0 -71 27q-28 28 -28 72h-131q0 -50 17 -92t47 -73q30 -30 72 -47t94 -17q56 0 99 19q43 18 72 51t43 78q15 45 15 98q0 18 -5 39q-4 21 -10 39q-24 76 -79 112q-56 37 -135 37q-27 0 -46 9t-31 25t-17 37t-5 45v0z" />
    <glyph glyph-name="T" unicode="T" horiz-adv-x="475" 
d="M393 655v131h-393v-131h131v-655h131v655h131v0z" />
    <glyph glyph-name="U" unicode="U" 
d="M459 786h-131v-573q0 -44 -28 -72q-28 -27 -70 -27q-43 0 -71 27q-28 28 -28 72v573h-131v-573q0 -51 17 -93t47 -72t72 -47t94 -17q50 0 92 17q43 17 73 47t47 72t17 93v573v0z" />
    <glyph glyph-name="V" unicode="V" horiz-adv-x="606" 
d="M525 786h-132l-131 -449l-131 449h-131l230 -786h65l230 786v0z" />
    <glyph glyph-name="W" unicode="W" horiz-adv-x="737" 
d="M656 786h-131l-66 -393l-66 393h-131l-65 -393l-66 393h-131l131 -786h131l66 393l65 -393h132l131 786v0z" />
    <glyph glyph-name="X" unicode="X" 
d="M295 393l164 393h-131l-98 -235l-99 235h-131l164 -393l-164 -393h131l99 235l98 -235h131l-164 393v0z" />
    <glyph glyph-name="Y" unicode="Y" 
d="M459 786h-131l-98 -235l-99 235h-131l164 -393v-393h131v393l164 393v0z" />
    <glyph glyph-name="Z" unicode="Z" horiz-adv-x="508" 
d="M426 655v131h-426v-131h295l-295 -524v-131h426v131h-295l295 524v0z" />
    <glyph glyph-name="bracketleft" unicode="[" horiz-adv-x="344" 
d="M131 659h131v131h-262v-786h262v131h-131v524v0z" />
    <glyph glyph-name="backslash" unicode="\" horiz-adv-x="535" 
d="M459 0l-328 785h-131l328 -785h131v0z" />
    <glyph glyph-name="bracketright" unicode="]" horiz-adv-x="344" 
d="M262 790h-262v-131h131v-524h-131v-131h262v786v0z" />
    <glyph glyph-name="asciicircum" unicode="^" horiz-adv-x="502" 
d="M420 533l-129 310h-44h-74h-44l-129 -310h118l92 222l92 -222h118v0z" />
    <glyph glyph-name="underscore" unicode="_" 
d="M459 4v65h-459v-65h459v0z" />
    <glyph glyph-name="grave" unicode="`" horiz-adv-x="205" 
d="M0 875l77 -139q10 0 20 1q8 0 15 1q7 0 10 -2q2 -2 -2 19q-5 22 -12 49q-8 30 -20 71h-88v0z" />
    <glyph glyph-name="a" unicode="a" 
d="M274 327h-88l44 263l44 -263v0zM295 196l33 -195h131l-131 786h-197l-131 -786h131l33 195h131v0z" />
    <glyph glyph-name="b" unicode="b" horiz-adv-x="508" 
d="M197 131l-66 -2v199l66 -1q43 -1 71 -27q27 -27 27 -71t-27 -70q-28 -26 -71 -28v0zM130 457l1 200l66 -2q43 -2 71 -28q27 -26 27 -70t-27 -71q-28 -27 -71 -28l-67 -1v0zM364 393q34 33 48 75q14 43 14 89q0 50 -17 93q-17 42 -47 72q-31 30 -73 47t-92 17h-197v-786
h197q50 0 92 17t73 47q30 30 47 72t17 93q0 46 -14 89q-14 42 -48 75v0z" />
    <glyph glyph-name="c" unicode="c" 
d="M230 114q-43 0 -71 27q-28 28 -28 72v360q0 44 28 72q28 27 71 27q42 0 70 -27q28 -28 28 -72h131q0 50 -17 92t-47 73t-73 48q-42 17 -92 17q-52 0 -94 -17t-72 -48t-47 -73t-17 -92v-360q0 -51 17 -93t47 -72t72 -47t94 -17q50 0 92 17q43 17 73 47q30 31 47 73t17 92
h-131q0 -44 -28 -72q-28 -27 -70 -27v0z" />
    <glyph glyph-name="d" unicode="d" horiz-adv-x="508" 
d="M197 131l-66 -1v527l66 -2q43 -2 71 -28q27 -26 27 -70v-328q0 -44 -27 -71q-28 -26 -71 -27v0zM197 786h-197v-786h197q50 0 93 17q42 17 72 47q30 31 47 73t17 92v328q0 50 -17 92t-47 73q-30 30 -72 47q-43 17 -93 17v0z" />
    <glyph glyph-name="e" unicode="e" horiz-adv-x="475" 
d="M131 655h262v131h-393v-786h393v131h-262v196h197v131h-197v197v0z" />
    <glyph glyph-name="f" unicode="f" horiz-adv-x="475" 
d="M131 655h262v131h-393v-786h131v327h197v131h-197v197v0z" />
    <glyph glyph-name="g" unicode="g" 
d="M230 344v-131h98q0 -43 -27 -71q-28 -28 -71 -28t-71 28t-28 71v360q0 43 28 71t71 28t71 -28q27 -28 27 -71h131q0 50 -17 92t-47 73q-31 31 -73 48t-92 17t-92 -17t-73 -48t-48 -73t-17 -92v-360q0 -51 17 -93t48 -72t73 -47t92 -17t92 17t73 47q30 31 47 73t17 92v131
h-229v0z" />
    <glyph glyph-name="h" unicode="h" horiz-adv-x="508" 
d="M426 786h-131v-328h-164v328h-131v-786h131v327h164v-327h131v786v0z" />
    <glyph glyph-name="i" unicode="i" horiz-adv-x="213" 
d="M131 0v786h-131v-786h131v0z" />
    <glyph glyph-name="j" unicode="j" 
d="M459 787h-131v-574q0 -44 -28 -72q-28 -27 -70 -27q-43 0 -71 27q-28 28 -28 72h-131q0 -50 17 -92t47 -73q30 -30 72 -47t94 -17q50 0 92 17q43 17 73 47t47 72t17 93v574v0z" />
    <glyph glyph-name="k" unicode="k" horiz-adv-x="508" 
d="M161 321l134 -321h131l-193 465l160 321h-131l-131 -262v262h-131v-786h131v262l30 59v0z" />
    <glyph glyph-name="l" unicode="l" horiz-adv-x="475" 
d="M393 131h-262v655h-131v-786h393v131v0z" />
    <glyph glyph-name="m" unicode="m" horiz-adv-x="606" 
d="M524 786h-131l-131 -449l-131 449h-131v-786h131v337l99 -337h65l98 337v-337h131v786v0z" />
    <glyph glyph-name="n" unicode="n" horiz-adv-x="508" 
d="M426 786h-131v-437l-164 437h-131v-786h131v437l164 -437h131v786v0z" />
    <glyph glyph-name="o" unicode="o" 
d="M230 114q-43 0 -71 27q-28 28 -28 72v360q0 44 28 72q28 27 71 27q42 0 70 -27q28 -28 28 -72v-360q0 -44 -28 -72q-28 -27 -70 -27v0zM230 803q-52 0 -94 -17t-72 -48t-47 -73t-17 -92v-360q0 -51 17 -93t47 -72t72 -47t94 -17q50 0 92 17q43 17 73 47t47 72t17 93v360
q0 50 -17 92t-47 73t-73 48q-42 17 -92 17v0z" />
    <glyph glyph-name="p" unicode="p" horiz-adv-x="508" 
d="M197 458h-66v197h66q43 0 71 -27q27 -27 27 -71t-27 -72q-28 -27 -71 -27v0zM197 786h-197v-786h131v327h66q50 0 92 17t73 47q30 31 47 73t17 93q0 50 -17 92q-17 43 -47 73q-31 30 -73 47t-92 17v0z" />
    <glyph glyph-name="q" unicode="q" horiz-adv-x="573" 
d="M230 114q-43 0 -71 27q-28 28 -28 72v360q0 44 28 72q28 27 71 27q42 0 70 -27q28 -28 28 -72v-360q0 -20 -4 -33h-70l30 -50q-11 -8 -26 -12q-14 -4 -28 -4v0zM361 0h131l-61 101q11 25 20 55q8 30 8 57v360q0 50 -17 92t-47 73t-73 48q-42 17 -92 17q-52 0 -94 -17
t-72 -48t-47 -73t-17 -92v-360q0 -51 17 -93t47 -72t72 -47t94 -17q32 0 63 7q32 7 59 22l9 -13v0z" />
    <glyph glyph-name="r" unicode="r" horiz-adv-x="508" 
d="M197 459l-66 -1v198l66 -1q43 -1 71 -27q27 -27 27 -71t-27 -71q-28 -26 -71 -27v0zM426 557q0 50 -17 93q-17 42 -47 72q-31 30 -73 47t-92 17h-197v-786h131v327h41l123 -327h131l-131 349q68 28 100 82q31 54 31 126v0z" />
    <glyph glyph-name="s" unicode="s" 
d="M131 573q0 44 28 72q28 27 71 27q42 0 70 -27q28 -28 28 -72h131q0 50 -17 92t-47 73t-73 48q-42 17 -92 17q-58 0 -100 -19q-43 -19 -72 -52t-43 -78q-15 -45 -15 -98q0 -50 17 -92t47 -73t72 -48t94 -17q53 0 75 -32q23 -32 23 -81q0 -44 -28 -72q-28 -27 -70 -27
q-43 0 -71 27q-28 28 -28 72h-131q0 -50 17 -92t47 -73q30 -30 72 -47t94 -17q56 0 99 19q43 18 72 51t43 78q15 45 15 98q0 18 -5 39q-4 21 -10 39q-24 76 -79 112q-56 37 -135 37q-27 0 -46 9t-31 25t-17 37t-5 45v0z" />
    <glyph glyph-name="t" unicode="t" horiz-adv-x="475" 
d="M393 655v131h-393v-131h131v-655h131v655h131v0z" />
    <glyph glyph-name="u" unicode="u" 
d="M459 786h-131v-573q0 -44 -28 -72q-28 -27 -70 -27q-43 0 -71 27q-28 28 -28 72v573h-131v-573q0 -51 17 -93t47 -72t72 -47t94 -17q50 0 92 17q43 17 73 47t47 72t17 93v573v0z" />
    <glyph glyph-name="v" unicode="v" horiz-adv-x="606" 
d="M525 786h-132l-131 -449l-131 449h-131l230 -786h65l230 786v0z" />
    <glyph glyph-name="w" unicode="w" horiz-adv-x="737" 
d="M656 786h-131l-66 -393l-66 393h-131l-65 -393l-66 393h-131l131 -786h131l66 393l65 -393h132l131 786v0z" />
    <glyph glyph-name="x" unicode="x" 
d="M295 393l164 393h-131l-98 -235l-99 235h-131l164 -393l-164 -393h131l99 235l98 -235h131l-164 393v0z" />
    <glyph glyph-name="y" unicode="y" 
d="M459 786h-131l-98 -235l-99 235h-131l164 -393v-393h131v393l164 393v0z" />
    <glyph glyph-name="z" unicode="z" horiz-adv-x="508" 
d="M426 655v131h-426v-131h295l-295 -524v-131h426v131h-295l295 524v0z" />
    <glyph glyph-name="braceleft" unicode="{" horiz-adv-x="412" 
d="M219 478v165q0 41 18 63q17 23 38 33q24 11 55 13v147q-48 0 -85 -12q-37 -11 -64 -29t-46 -41q-18 -23 -30 -46q-28 -57 -32 -128v-128l-73 -74l73 -73v-129q4 -71 32 -128q12 -23 30 -46q19 -23 46 -41t64 -29t85 -11v146q-31 2 -55 13q-21 10 -38 32q-18 22 -18 64
v165l-36 37l36 37v0z" />
    <glyph glyph-name="braceright" unicode="}" horiz-adv-x="412" 
d="M110 643v-165l37 -37l-37 -37v-165q0 -42 -18 -64q-17 -22 -38 -32q-24 -11 -54 -13v-146q48 0 85 11q36 11 63 29t46 41q18 23 30 46q28 57 32 128v129l74 73l-74 74v128q-4 71 -32 128q-12 23 -30 46q-19 23 -46 41t-63 29q-37 12 -85 12v-147q30 -2 54 -13
q21 -10 38 -33q18 -22 18 -63v0z" />
    <glyph glyph-name="uni00A0" unicode="&#xa0;" horiz-adv-x="512" 
d="M128 64v876h256v-876h-256v0zM65 0h384v1003h-384v-1003v0z" />
    <glyph glyph-name="sterling" unicode="&#xa3;" horiz-adv-x="558" 
d="M476 138h-272v205h171v136h-171v101q0 39 16 59t35 30q22 12 51 14h136v136h-136q-45 0 -79 -10q-33 -11 -59 -28t-42 -38q-17 -22 -29 -44q-26 -52 -29 -119v-101h-68v-136h68v-205h-68v-136h476v136v0z" />
    <glyph glyph-name="quoteleft" unicode="&#x2018;" horiz-adv-x="213" 
d="M0 590h131v131h-65l65 131h-32l-99 -131v-131v0z" />
    <glyph glyph-name="quoteright" unicode="&#x2019;" horiz-adv-x="213" 
d="M131 852h-131v-131h66l-66 -131h33l98 131v131v0z" />
    <glyph glyph-name="quotedblleft" unicode="&#x201c;" horiz-adv-x="389" 
d="M174 590h131v131h-65l65 131h-32l-99 -131v-131v0zM0 590h131v131h-65l65 131h-32l-99 -131v-131v0z" />
    <glyph glyph-name="quotedblright" unicode="&#x201d;" horiz-adv-x="389" 
d="M131 852h-131v-131h66l-66 -131h33l98 131v131v0zM305 852h-131v-131h66l-66 -131h33l98 131v131v0z" />
  </font>
</defs>
</svg>
